%TF.GenerationSoftware,KiCad,Pcbnew,9.0.6*%
%TF.CreationDate,2026-01-05T15:27:57+01:00*%
%TF.ProjectId,pico-radio-9-k_toldalas,7069636f-2d72-4616-9469-6f2d392d6be9,rev?*%
%TF.SameCoordinates,Original*%
%TF.FileFunction,Copper,L1,Top*%
%TF.FilePolarity,Positive*%
%FSLAX46Y46*%
G04 Gerber Fmt 4.6, Leading zero omitted, Abs format (unit mm)*
G04 Created by KiCad (PCBNEW 9.0.6) date 2026-01-05 15:27:57*
%MOMM*%
%LPD*%
G01*
G04 APERTURE LIST*
G04 Aperture macros list*
%AMRoundRect*
0 Rectangle with rounded corners*
0 $1 Rounding radius*
0 $2 $3 $4 $5 $6 $7 $8 $9 X,Y pos of 4 corners*
0 Add a 4 corners polygon primitive as box body*
4,1,4,$2,$3,$4,$5,$6,$7,$8,$9,$2,$3,0*
0 Add four circle primitives for the rounded corners*
1,1,$1+$1,$2,$3*
1,1,$1+$1,$4,$5*
1,1,$1+$1,$6,$7*
1,1,$1+$1,$8,$9*
0 Add four rect primitives between the rounded corners*
20,1,$1+$1,$2,$3,$4,$5,0*
20,1,$1+$1,$4,$5,$6,$7,0*
20,1,$1+$1,$6,$7,$8,$9,0*
20,1,$1+$1,$8,$9,$2,$3,0*%
%AMFreePoly0*
4,1,37,0.603843,0.796157,0.639018,0.796157,0.711114,0.766294,0.766294,0.711114,0.796157,0.639018,0.796157,0.603843,0.800000,0.600000,0.800000,-0.600000,0.796157,-0.603843,0.796157,-0.639018,0.766294,-0.711114,0.711114,-0.766294,0.639018,-0.796157,0.603843,-0.796157,0.600000,-0.800000,0.000000,-0.800000,0.000000,-0.796148,-0.078414,-0.796148,-0.232228,-0.765552,-0.377117,-0.705537,
-0.507515,-0.618408,-0.618408,-0.507515,-0.705537,-0.377117,-0.765552,-0.232228,-0.796148,-0.078414,-0.796148,0.078414,-0.765552,0.232228,-0.705537,0.377117,-0.618408,0.507515,-0.507515,0.618408,-0.377117,0.705537,-0.232228,0.765552,-0.078414,0.796148,0.000000,0.796148,0.000000,0.800000,0.600000,0.800000,0.603843,0.796157,0.603843,0.796157,$1*%
%AMFreePoly1*
4,1,37,0.000000,0.796148,0.078414,0.796148,0.232228,0.765552,0.377117,0.705537,0.507515,0.618408,0.618408,0.507515,0.705537,0.377117,0.765552,0.232228,0.796148,0.078414,0.796148,-0.078414,0.765552,-0.232228,0.705537,-0.377117,0.618408,-0.507515,0.507515,-0.618408,0.377117,-0.705537,0.232228,-0.765552,0.078414,-0.796148,0.000000,-0.796148,0.000000,-0.800000,-0.600000,-0.800000,
-0.603843,-0.796157,-0.639018,-0.796157,-0.711114,-0.766294,-0.766294,-0.711114,-0.796157,-0.639018,-0.796157,-0.603843,-0.800000,-0.600000,-0.800000,0.600000,-0.796157,0.603843,-0.796157,0.639018,-0.766294,0.711114,-0.711114,0.766294,-0.639018,0.796157,-0.603843,0.796157,-0.600000,0.800000,0.000000,0.800000,0.000000,0.796148,0.000000,0.796148,$1*%
G04 Aperture macros list end*
%TA.AperFunction,ComponentPad*%
%ADD10RoundRect,0.200000X-0.600000X-0.600000X0.600000X-0.600000X0.600000X0.600000X-0.600000X0.600000X0*%
%TD*%
%TA.AperFunction,ComponentPad*%
%ADD11C,1.600000*%
%TD*%
%TA.AperFunction,ComponentPad*%
%ADD12FreePoly0,0.000000*%
%TD*%
%TA.AperFunction,ComponentPad*%
%ADD13FreePoly1,0.000000*%
%TD*%
%TA.AperFunction,ComponentPad*%
%ADD14R,1.700000X1.700000*%
%TD*%
%TA.AperFunction,ComponentPad*%
%ADD15C,1.700000*%
%TD*%
%TA.AperFunction,ComponentPad*%
%ADD16RoundRect,0.250000X0.550000X-0.550000X0.550000X0.550000X-0.550000X0.550000X-0.550000X-0.550000X0*%
%TD*%
%TA.AperFunction,ComponentPad*%
%ADD17R,1.500000X1.500000*%
%TD*%
%TA.AperFunction,ComponentPad*%
%ADD18C,1.500000*%
%TD*%
%TA.AperFunction,ComponentPad*%
%ADD19R,2.000000X2.000000*%
%TD*%
%TA.AperFunction,ComponentPad*%
%ADD20C,2.000000*%
%TD*%
%TA.AperFunction,ComponentPad*%
%ADD21R,1.550000X1.550000*%
%TD*%
%TA.AperFunction,ComponentPad*%
%ADD22C,1.550000*%
%TD*%
%TA.AperFunction,SMDPad,CuDef*%
%ADD23R,1.397000X0.558800*%
%TD*%
%TA.AperFunction,ComponentPad*%
%ADD24RoundRect,0.250000X-0.550000X-0.550000X0.550000X-0.550000X0.550000X0.550000X-0.550000X0.550000X0*%
%TD*%
%TA.AperFunction,ComponentPad*%
%ADD25RoundRect,0.250001X-0.949999X0.949999X-0.949999X-0.949999X0.949999X-0.949999X0.949999X0.949999X0*%
%TD*%
%TA.AperFunction,ComponentPad*%
%ADD26C,2.400000*%
%TD*%
%TA.AperFunction,ComponentPad*%
%ADD27RoundRect,0.250000X-0.550000X0.550000X-0.550000X-0.550000X0.550000X-0.550000X0.550000X0.550000X0*%
%TD*%
%TA.AperFunction,ComponentPad*%
%ADD28C,1.000000*%
%TD*%
%TA.AperFunction,Conductor*%
%ADD29C,0.800000*%
%TD*%
%TA.AperFunction,Conductor*%
%ADD30C,0.200000*%
%TD*%
G04 APERTURE END LIST*
D10*
%TO.P,A1,1,GPIO0*%
%TO.N,/SDO*%
X101970000Y-35210000D03*
D11*
%TO.P,A1,2,GPIO1*%
%TO.N,/LED*%
X101970000Y-37750000D03*
D12*
%TO.P,A1,3,GPIO2*%
%TO.N,/SCK*%
X101970000Y-40290000D03*
D11*
%TO.P,A1,4,GPIO3*%
%TO.N,/SDI*%
X101970000Y-42830000D03*
%TO.P,A1,5,GPIO4*%
%TO.N,/DC*%
X101970000Y-45370000D03*
%TO.P,A1,6,GND*%
%TO.N,GND*%
X101970000Y-47910000D03*
%TO.P,A1,7,GPIO5*%
%TO.N,/RST*%
X101970000Y-50450000D03*
D12*
%TO.P,A1,8,GPIO6*%
%TO.N,/CS*%
X101970000Y-52990000D03*
D11*
%TO.P,A1,9,GPIO7*%
%TO.N,/T_CS*%
X101970000Y-55530000D03*
%TO.P,A1,10,GPIO8*%
%TO.N,/Si_SDA*%
X101970000Y-58070000D03*
%TO.P,A1,11,GPIO9*%
%TO.N,/Si_SCL*%
X101970000Y-60610000D03*
%TO.P,A1,12,GPIO10*%
%TO.N,/Si_RST*%
X101970000Y-63150000D03*
D12*
%TO.P,A1,13,GPIO11*%
%TO.N,unconnected-(A1-GPIO11-Pad13)*%
X101970000Y-65690000D03*
D11*
%TO.P,A1,14,GPIO12*%
%TO.N,unconnected-(A1-GPIO12-Pad14)*%
X101970000Y-68230000D03*
%TO.P,A1,15,GND*%
%TO.N,GND*%
X101970000Y-70770000D03*
%TO.P,A1,16,GPIO13*%
%TO.N,unconnected-(A1-GPIO13-Pad16)*%
X101970000Y-73310000D03*
%TO.P,A1,17,GPIO14*%
%TO.N,unconnected-(A1-GPIO14-Pad17)*%
X101970000Y-75850000D03*
D12*
%TO.P,A1,18,GPIO15*%
%TO.N,unconnected-(A1-GPIO15-Pad18)*%
X101970000Y-78390000D03*
D11*
%TO.P,A1,19,GPIO16*%
%TO.N,ROT_DT*%
X101970000Y-80930000D03*
%TO.P,A1,20,GPIO17*%
%TO.N,ROT_CLK*%
X101970000Y-83470000D03*
%TO.P,A1,21,GPIO18*%
%TO.N,ROT_SW*%
X119750000Y-83470000D03*
%TO.P,A1,22,GPIO19*%
%TO.N,AUDIO_MUTE*%
X119750000Y-80930000D03*
D13*
%TO.P,A1,23,GPIO20*%
%TO.N,BUZZER*%
X119750000Y-78390000D03*
D11*
%TO.P,A1,24,GPIO21*%
%TO.N,unconnected-(A1-GPIO21-Pad24)*%
X119750000Y-75850000D03*
%TO.P,A1,25,GPIO22*%
%TO.N,unconnected-(A1-GPIO22-Pad25)*%
X119750000Y-73310000D03*
%TO.P,A1,26,GPIO23*%
%TO.N,unconnected-(A1-GPIO23-Pad26)*%
X119750000Y-70770000D03*
%TO.P,A1,27,GPIO24*%
%TO.N,unconnected-(A1-GPIO24-Pad27)*%
X119750000Y-68230000D03*
D13*
%TO.P,A1,28,GPIO25*%
%TO.N,unconnected-(A1-GPIO25-Pad28)*%
X119750000Y-65690000D03*
D11*
%TO.P,A1,29,AGND*%
%TO.N,GND*%
X119750000Y-63150000D03*
%TO.P,A1,30,GPIO26_ADC0*%
%TO.N,AD_FFT_AUDIO*%
X119750000Y-60610000D03*
%TO.P,A1,31,GPIO27_ADC1*%
%TO.N,Net-(A1-GPIO27_ADC1)*%
X119750000Y-58070000D03*
%TO.P,A1,32,GPIO28_ADC2*%
%TO.N,unconnected-(A1-GPIO28_ADC2-Pad32)*%
X119750000Y-55530000D03*
D13*
%TO.P,A1,33,GPIO29_ADC3*%
%TO.N,unconnected-(A1-GPIO29_ADC3-Pad33)*%
X119750000Y-52990000D03*
D11*
%TO.P,A1,34,RUN*%
%TO.N,Net-(A1-RUN)*%
X119750000Y-50450000D03*
%TO.P,A1,35,GND*%
%TO.N,GND*%
X119750000Y-47910000D03*
%TO.P,A1,36,3V3*%
%TO.N,+3.3V*%
X119750000Y-45370000D03*
%TO.P,A1,37,3V3_EN*%
%TO.N,unconnected-(A1-3V3_EN-Pad37)*%
X119750000Y-42830000D03*
D13*
%TO.P,A1,38,GND*%
%TO.N,GND*%
X119750000Y-40290000D03*
D11*
%TO.P,A1,39,VSYS*%
%TO.N,+Vsys*%
X119750000Y-37750000D03*
%TO.P,A1,40,VBUS*%
%TO.N,+Vbus*%
X119750000Y-35210000D03*
%TD*%
%TO.P,C12,1*%
%TO.N,+Vbus*%
X125000000Y-35250000D03*
%TO.P,C12,2*%
%TO.N,GND*%
X125000000Y-40250000D03*
%TD*%
%TO.P,R6,1*%
%TO.N,Net-(U3B--)*%
X65250000Y-40000000D03*
%TO.P,R6,2*%
%TO.N,Net-(C7-Pad1)*%
X55090000Y-40000000D03*
%TD*%
%TO.P,C1,1*%
%TO.N,Net-(U1-FMI)*%
X73250000Y-68490000D03*
%TO.P,C1,2*%
%TO.N,Net-(J1-Pin_2)*%
X70750000Y-68490000D03*
%TD*%
D14*
%TO.P,U2,1,VCC*%
%TO.N,+3.3V*%
X95000000Y-68290000D03*
D15*
%TO.P,U2,2,GND*%
%TO.N,GND*%
X95000000Y-65750000D03*
%TO.P,U2,3,CS*%
%TO.N,/CS*%
X95000000Y-63210000D03*
%TO.P,U2,4,RESET*%
%TO.N,/RST*%
X95000000Y-60670000D03*
%TO.P,U2,5,DC/RS*%
%TO.N,/DC*%
X95000000Y-58130000D03*
%TO.P,U2,6,SDI/MOSI*%
%TO.N,/SDI*%
X95000000Y-55590000D03*
%TO.P,U2,7,SCK*%
%TO.N,/SCK*%
X95000000Y-53050000D03*
%TO.P,U2,8,LED*%
%TO.N,/LED*%
X95000000Y-50510000D03*
%TO.P,U2,9,SDO/MISO*%
%TO.N,unconnected-(U2-SDO{slash}MISO-Pad9)*%
X95000000Y-47970000D03*
%TO.P,U2,10,T_CLK*%
%TO.N,/SCK*%
X95000000Y-45430000D03*
%TO.P,U2,11,T_CS*%
%TO.N,/T_CS*%
X95000000Y-42890000D03*
%TO.P,U2,12,T_DIN*%
%TO.N,/SDI*%
X95000000Y-40350000D03*
%TO.P,U2,13,T_DO*%
%TO.N,/SDO*%
X95000000Y-37810000D03*
%TO.P,U2,14,T_IRQ*%
%TO.N,unconnected-(U2-T_IRQ-Pad14)*%
X95000000Y-35270000D03*
%TD*%
D16*
%TO.P,C5,1*%
%TO.N,Net-(U1-LOUT{slash}DFS)*%
X76500000Y-60445113D03*
D11*
%TO.P,C5,2*%
%TO.N,AUDIO_L*%
X76500000Y-57945113D03*
%TD*%
%TO.P,R10,1*%
%TO.N,GND*%
X71250000Y-33500000D03*
%TO.P,R10,2*%
%TO.N,Net-(U3B-+)*%
X61090000Y-33500000D03*
%TD*%
%TO.P,C3,1*%
%TO.N,Net-(U1-AMI)*%
X73250000Y-78240000D03*
%TO.P,C3,2*%
%TO.N,Net-(J3-Pin_2)*%
X70750000Y-78240000D03*
%TD*%
%TO.P,R4,1*%
%TO.N,GND*%
X71250000Y-64750000D03*
%TO.P,R4,2*%
%TO.N,AUDIO_L*%
X71250000Y-54590000D03*
%TD*%
%TO.P,R2,1*%
%TO.N,AUDIO_MUTE*%
X64500000Y-60330000D03*
%TO.P,R2,2*%
%TO.N,Net-(Q2-B)*%
X64500000Y-50170000D03*
%TD*%
D17*
%TO.P,Q2,1,E*%
%TO.N,GND*%
X57000000Y-60250000D03*
D18*
%TO.P,Q2,2,B*%
%TO.N,Net-(Q2-B)*%
X57000000Y-57710000D03*
%TO.P,Q2,3,C*%
%TO.N,AUDIO_L*%
X57000000Y-55170000D03*
%TD*%
D19*
%TO.P,BZ1,1,+*%
%TO.N,+Vbus*%
X133750000Y-63950000D03*
D20*
%TO.P,BZ1,2,-*%
%TO.N,Net-(BZ1--)*%
X133750000Y-71550000D03*
%TD*%
D11*
%TO.P,R13,1*%
%TO.N,Net-(A1-GPIO27_ADC1)*%
X125750000Y-58000000D03*
%TO.P,R13,2*%
%TO.N,GND*%
X125750000Y-68160000D03*
%TD*%
%TO.P,R12,1*%
%TO.N,+Vbus*%
X130500000Y-47840000D03*
%TO.P,R12,2*%
%TO.N,Net-(A1-GPIO27_ADC1)*%
X130500000Y-58000000D03*
%TD*%
D14*
%TO.P,J6,1,Pin_1*%
%TO.N,ROT_CLK*%
X94750000Y-83410000D03*
D15*
%TO.P,J6,2,Pin_2*%
%TO.N,ROT_DT*%
X94750000Y-80870000D03*
%TO.P,J6,3,Pin_3*%
%TO.N,ROT_SW*%
X94750000Y-78330000D03*
%TO.P,J6,4,Pin_4*%
%TO.N,+3.3V*%
X94750000Y-75790000D03*
%TO.P,J6,5,Pin_5*%
%TO.N,GND*%
X94750000Y-73250000D03*
%TD*%
D14*
%TO.P,J5,1,Pin_1*%
%TO.N,GND*%
X135250000Y-43000000D03*
D15*
%TO.P,J5,2,Pin_2*%
%TO.N,+Vbus*%
X132710000Y-43000000D03*
%TO.P,J5,3,Pin_3*%
%TO.N,GND*%
X130170000Y-43000000D03*
%TD*%
D17*
%TO.P,Q1,1,E*%
%TO.N,GND*%
X57000000Y-53080000D03*
D18*
%TO.P,Q1,2,B*%
%TO.N,Net-(Q1-B)*%
X57000000Y-50540000D03*
%TO.P,Q1,3,C*%
%TO.N,AUDIO_R*%
X57000000Y-48000000D03*
%TD*%
D21*
%TO.P,RV1,1,1*%
%TO.N,Net-(R11-Pad1)*%
X55250000Y-36500000D03*
D22*
%TO.P,RV1,2,2*%
%TO.N,AD_FFT_AUDIO*%
X57750000Y-34000000D03*
%TO.P,RV1,3,3*%
X55250000Y-31500000D03*
%TD*%
D11*
%TO.P,R3,1*%
%TO.N,GND*%
X68000000Y-64660000D03*
%TO.P,R3,2*%
%TO.N,AUDIO_R*%
X68000000Y-54500000D03*
%TD*%
D14*
%TO.P,J3,1,Pin_1*%
%TO.N,Net-(J3-Pin_1)*%
X60750000Y-83740000D03*
D15*
%TO.P,J3,2,Pin_2*%
%TO.N,Net-(J3-Pin_2)*%
X58210000Y-83740000D03*
%TO.P,J3,3,Pin_3*%
%TO.N,Net-(J3-Pin_3)*%
X55670000Y-83740000D03*
%TD*%
D14*
%TO.P,J4,1,Pin_1*%
%TO.N,+Vbus*%
X89500000Y-35250000D03*
D15*
%TO.P,J4,2,Pin_2*%
%TO.N,AUDIO_L*%
X89500000Y-37790000D03*
%TO.P,J4,3,Pin_3*%
%TO.N,AUDIO_R*%
X89500000Y-40330000D03*
%TO.P,J4,4,Pin_4*%
%TO.N,GND*%
X89500000Y-42870000D03*
%TD*%
D14*
%TO.P,L2,1,1*%
%TO.N,Net-(J3-Pin_1)*%
X66000000Y-83740000D03*
D15*
%TO.P,L2,2,2*%
%TO.N,GND*%
X68540000Y-83740000D03*
%TD*%
D16*
%TO.P,C10,1*%
%TO.N,Net-(U1-VDD)*%
X88500000Y-60195113D03*
D11*
%TO.P,C10,2*%
%TO.N,GND*%
X88500000Y-57695113D03*
%TD*%
%TO.P,C9,1*%
%TO.N,GND*%
X87500000Y-63490000D03*
%TO.P,C9,2*%
%TO.N,Net-(U1-VDD)*%
X87500000Y-68490000D03*
%TD*%
%TO.P,R7,1*%
%TO.N,Net-(U3B--)*%
X71250000Y-40000000D03*
%TO.P,R7,2*%
%TO.N,AUDIO_L*%
X71250000Y-50160000D03*
%TD*%
%TO.P,R14,1*%
%TO.N,BUZZER*%
X125750000Y-81410000D03*
%TO.P,R14,2*%
%TO.N,Net-(Q3-B)*%
X125750000Y-71250000D03*
%TD*%
%TO.P,L3,1,1*%
%TO.N,GND*%
X63170000Y-71740000D03*
%TO.P,L3,2,2*%
%TO.N,Net-(U1-FMI)*%
X73330000Y-71740000D03*
%TD*%
%TO.P,L1,1,1*%
%TO.N,Net-(J3-Pin_3)*%
X63090000Y-75240000D03*
%TO.P,L1,2,2*%
%TO.N,GND*%
X73250000Y-75240000D03*
%TD*%
%TO.P,L4,1,1*%
%TO.N,Net-(U1-VDD)*%
X85500000Y-71990000D03*
%TO.P,L4,2,2*%
%TO.N,+3.3V*%
X85500000Y-82150000D03*
%TD*%
D23*
%TO.P,U1,1,LOUT/DFS*%
%TO.N,Net-(U1-LOUT{slash}DFS)*%
X76991400Y-69340000D03*
%TO.P,U1,2,GPO3/DCLK*%
%TO.N,Net-(U1-GPO3{slash}DCLK)*%
X76991400Y-70610000D03*
%TO.P,U1,3,GPO2/INTB*%
%TO.N,unconnected-(U1-GPO2{slash}INTB-Pad3)*%
X76991400Y-71880000D03*
%TO.P,U1,4,GPO1*%
%TO.N,unconnected-(U1-GPO1-Pad4)*%
X76991400Y-73150000D03*
%TO.P,U1,5,NC*%
%TO.N,unconnected-(U1-NC-Pad5)*%
X76991400Y-74420000D03*
%TO.P,U1,6,FMI*%
%TO.N,Net-(U1-FMI)*%
X76991400Y-75690000D03*
%TO.P,U1,7,RFGND*%
%TO.N,GND*%
X76991400Y-76960000D03*
%TO.P,U1,8,AMI*%
%TO.N,Net-(U1-AMI)*%
X76991400Y-78230000D03*
%TO.P,U1,9,\u002ARST*%
%TO.N,/Si_RST*%
X82300000Y-78230000D03*
%TO.P,U1,10,SENB*%
%TO.N,GND*%
X82300000Y-76960000D03*
%TO.P,U1,11,SCLK*%
%TO.N,/Si_SCL*%
X82300000Y-75690000D03*
%TO.P,U1,12,SDIO*%
%TO.N,/Si_SDA*%
X82300000Y-74420000D03*
%TO.P,U1,13,RCLK*%
%TO.N,Net-(U1-RCLK)*%
X82300000Y-73150000D03*
%TO.P,U1,14,VDD*%
%TO.N,Net-(U1-VDD)*%
X82300000Y-71880000D03*
%TO.P,U1,15,GND*%
%TO.N,GND*%
X82300000Y-70610000D03*
%TO.P,U1,16,ROUT/DOUT*%
%TO.N,Net-(U1-ROUT{slash}DOUT)*%
X82300000Y-69340000D03*
%TD*%
D24*
%TO.P,U3,1*%
%TO.N,N/C*%
X76880000Y-35170000D03*
D11*
%TO.P,U3,2*%
X76880000Y-37710000D03*
%TO.P,U3,3*%
X76880000Y-40250000D03*
%TO.P,U3,4,V+*%
%TO.N,+3.3V*%
X76880000Y-42790000D03*
%TO.P,U3,5,+*%
%TO.N,Net-(U3B-+)*%
X76880000Y-45330000D03*
%TO.P,U3,6,-*%
%TO.N,Net-(U3B--)*%
X76880000Y-47870000D03*
%TO.P,U3,7*%
%TO.N,AD_FFT_AUDIO*%
X76880000Y-50410000D03*
%TO.P,U3,8*%
%TO.N,N/C*%
X84500000Y-50410000D03*
%TO.P,U3,9*%
X84500000Y-47870000D03*
%TO.P,U3,10*%
X84500000Y-45330000D03*
%TO.P,U3,11,V-*%
%TO.N,GND*%
X84500000Y-42790000D03*
%TO.P,U3,12*%
%TO.N,N/C*%
X84500000Y-40250000D03*
%TO.P,U3,13*%
X84500000Y-37710000D03*
%TO.P,U3,14*%
X84500000Y-35170000D03*
%TD*%
D20*
%TO.P,TP2,1,1*%
%TO.N,AD_FFT_AUDIO*%
X74500000Y-32000000D03*
%TD*%
D11*
%TO.P,C6,1*%
%TO.N,Net-(U1-GPO3{slash}DCLK)*%
X75900000Y-65990000D03*
%TO.P,C6,2*%
%TO.N,GND*%
X75900000Y-63490000D03*
%TD*%
%TO.P,R9,1*%
%TO.N,Net-(U3B-+)*%
X74420000Y-54500000D03*
%TO.P,R9,2*%
%TO.N,+3.3V*%
X84580000Y-54500000D03*
%TD*%
%TO.P,R8,1*%
%TO.N,Net-(U3B-+)*%
X74250000Y-40000000D03*
%TO.P,R8,2*%
%TO.N,Net-(U3B--)*%
X74250000Y-50160000D03*
%TD*%
D25*
%TO.P,J1,1,Pin_1*%
%TO.N,GND*%
X57000000Y-64990000D03*
D26*
%TO.P,J1,2,Pin_2*%
%TO.N,Net-(J1-Pin_2)*%
X57000000Y-68490000D03*
%TD*%
D14*
%TO.P,SW1,1,1*%
%TO.N,GND*%
X125000000Y-47975000D03*
D15*
%TO.P,SW1,2,2*%
%TO.N,Net-(A1-RUN)*%
X125000000Y-50515000D03*
%TD*%
D11*
%TO.P,R1,1*%
%TO.N,AUDIO_MUTE*%
X61000000Y-60250000D03*
%TO.P,R1,2*%
%TO.N,Net-(Q1-B)*%
X61000000Y-50090000D03*
%TD*%
D27*
%TO.P,C11,1*%
%TO.N,+Vbus*%
X130000000Y-35250000D03*
D11*
%TO.P,C11,2*%
%TO.N,GND*%
X130000000Y-37750000D03*
%TD*%
D20*
%TO.P,TP1,1,1*%
%TO.N,Net-(C7-Pad2)*%
X55250000Y-43750000D03*
%TD*%
D11*
%TO.P,R11,1*%
%TO.N,Net-(R11-Pad1)*%
X61090000Y-36500000D03*
%TO.P,R11,2*%
%TO.N,Net-(U3B--)*%
X71250000Y-36500000D03*
%TD*%
%TO.P,C7,1*%
%TO.N,Net-(C7-Pad1)*%
X65250000Y-43750000D03*
%TO.P,C7,2*%
%TO.N,Net-(C7-Pad2)*%
X60250000Y-43750000D03*
%TD*%
%TO.P,R5,1*%
%TO.N,Net-(U3B--)*%
X68000000Y-40000000D03*
%TO.P,R5,2*%
%TO.N,AUDIO_R*%
X68000000Y-50160000D03*
%TD*%
D17*
%TO.P,Q3,1,E*%
%TO.N,GND*%
X130250000Y-81500000D03*
D18*
%TO.P,Q3,2,B*%
%TO.N,Net-(Q3-B)*%
X130250000Y-78960000D03*
%TO.P,Q3,3,C*%
%TO.N,Net-(BZ1--)*%
X130250000Y-76420000D03*
%TD*%
D28*
%TO.P,Y1,1,1*%
%TO.N,Net-(U1-RCLK)*%
X80400000Y-65990000D03*
%TO.P,Y1,2,2*%
%TO.N,Net-(U1-GPO3{slash}DCLK)*%
X78500000Y-65990000D03*
%TD*%
D11*
%TO.P,C8,1*%
%TO.N,GND*%
X83500000Y-63490000D03*
%TO.P,C8,2*%
%TO.N,Net-(U1-RCLK)*%
X83500000Y-65990000D03*
%TD*%
%TO.P,C2,1*%
%TO.N,Net-(J2-Pin_2)*%
X65750000Y-78240000D03*
%TO.P,C2,2*%
%TO.N,Net-(J3-Pin_2)*%
X68250000Y-78240000D03*
%TD*%
D25*
%TO.P,J2,1,Pin_1*%
%TO.N,GND*%
X57250000Y-74740000D03*
D26*
%TO.P,J2,2,Pin_2*%
%TO.N,Net-(J2-Pin_2)*%
X57250000Y-78240000D03*
%TD*%
D16*
%TO.P,C4,1*%
%TO.N,Net-(U1-ROUT{slash}DOUT)*%
X82500000Y-60240000D03*
D11*
%TO.P,C4,2*%
%TO.N,AUDIO_R*%
X82500000Y-57740000D03*
%TD*%
D29*
%TO.N,+3.3V*%
X84000000Y-32750000D02*
X108750000Y-32750000D01*
X76880000Y-42790000D02*
X79210000Y-42790000D01*
X108750000Y-32750000D02*
X111500000Y-35500000D01*
X82500000Y-39500000D02*
X82500000Y-34250000D01*
X113620000Y-45370000D02*
X119750000Y-45370000D01*
X111500000Y-35500000D02*
X111500000Y-43250000D01*
X79210000Y-42790000D02*
X82500000Y-39500000D01*
X82500000Y-34250000D02*
X84000000Y-32750000D01*
X111500000Y-43250000D02*
X113620000Y-45370000D01*
D30*
%TO.N,GND*%
X76991400Y-76960000D02*
X75210000Y-76960000D01*
D29*
X73250000Y-76240000D02*
X73250000Y-75240000D01*
X73970000Y-76960000D02*
X73250000Y-76240000D01*
D30*
X82300000Y-70610000D02*
X84880000Y-70610000D01*
D29*
X119750000Y-47910000D02*
X101970000Y-47910000D01*
X89420000Y-42790000D02*
X89500000Y-42870000D01*
X85250000Y-70240000D02*
X85250000Y-67250000D01*
X73970000Y-76960000D02*
X75210000Y-76960000D01*
X85250000Y-67250000D02*
X86550000Y-65950000D01*
X95000000Y-65950000D02*
X87700000Y-65950000D01*
X73280000Y-75210000D02*
X73250000Y-75240000D01*
X84500000Y-42790000D02*
X89420000Y-42790000D01*
X87500000Y-65950000D02*
X87500000Y-63490000D01*
X87700000Y-65950000D02*
X87500000Y-65950000D01*
X86550000Y-65950000D02*
X87700000Y-65950000D01*
X84880000Y-70610000D02*
X85250000Y-70240000D01*
D30*
X76991400Y-76960000D02*
X82300000Y-76960000D01*
%TO.N,/T_CS*%
X97750000Y-54250000D02*
X99030000Y-55530000D01*
X94210000Y-54250000D02*
X97750000Y-54250000D01*
X99030000Y-55530000D02*
X101970000Y-55530000D01*
X95000000Y-42890000D02*
X93650000Y-42890000D01*
X93250000Y-53290000D02*
X94210000Y-54250000D01*
X93250000Y-43290000D02*
X93250000Y-53290000D01*
X93650000Y-42890000D02*
X93250000Y-43290000D01*
%TO.N,AD_FFT_AUDIO*%
X109750000Y-56750000D02*
X90750000Y-56750000D01*
X113610000Y-60610000D02*
X109750000Y-56750000D01*
X119750000Y-60610000D02*
X113610000Y-60610000D01*
X81750000Y-52500000D02*
X79660000Y-50410000D01*
X74500000Y-36000000D02*
X74500000Y-32000000D01*
X86500000Y-52500000D02*
X81750000Y-52500000D01*
X79660000Y-50410000D02*
X76880000Y-50410000D01*
X76880000Y-50410000D02*
X76645000Y-50410000D01*
X72750000Y-46515000D02*
X72750000Y-37750000D01*
X72750000Y-37750000D02*
X74500000Y-36000000D01*
X90750000Y-56750000D02*
X86500000Y-52500000D01*
X76645000Y-50410000D02*
X72750000Y-46515000D01*
%TO.N,/SCK*%
X97320000Y-45430000D02*
X99000000Y-43750000D01*
X99000000Y-40790000D02*
X99500000Y-40290000D01*
X99000000Y-43750000D02*
X99000000Y-40790000D01*
X99500000Y-40290000D02*
X101970000Y-40290000D01*
X95000000Y-45430000D02*
X97320000Y-45430000D01*
%TO.N,AUDIO_MUTE*%
X112750000Y-85750000D02*
X93250000Y-85750000D01*
X87750000Y-80250000D02*
X62500000Y-80250000D01*
X119750000Y-80930000D02*
X117570000Y-80930000D01*
X93250000Y-85750000D02*
X87750000Y-80250000D01*
X117570000Y-80930000D02*
X112750000Y-85750000D01*
X62500000Y-80250000D02*
X61000000Y-78750000D01*
X61000000Y-78750000D02*
X61000000Y-60250000D01*
%TO.N,Net-(U1-GPO3{slash}DCLK)*%
X78500000Y-70240000D02*
X78500000Y-65990000D01*
X78130000Y-70610000D02*
X78500000Y-70240000D01*
X76991400Y-70610000D02*
X78130000Y-70610000D01*
%TO.N,Net-(U1-RCLK)*%
X81880900Y-73150000D02*
X81790900Y-73240000D01*
X80400000Y-72150000D02*
X80400000Y-65990000D01*
X82300000Y-73150000D02*
X81410000Y-73150000D01*
X81000000Y-72750000D02*
X80400000Y-72150000D01*
X81010000Y-72750000D02*
X81000000Y-72750000D01*
X81410000Y-73150000D02*
X81010000Y-72750000D01*
X82300000Y-73150000D02*
X81880900Y-73150000D01*
%TO.N,Net-(U1-ROUT{slash}DOUT)*%
X82500000Y-61990000D02*
X82500000Y-60240000D01*
X82300000Y-69340000D02*
X82300000Y-68290000D01*
X82300000Y-68290000D02*
X82000000Y-67990000D01*
X82000000Y-62490000D02*
X82500000Y-61990000D01*
X82000000Y-67990000D02*
X82000000Y-62490000D01*
%TO.N,Net-(U1-LOUT{slash}DFS)*%
X77250000Y-62740000D02*
X76500000Y-61990000D01*
X76500000Y-61990000D02*
X76500000Y-60445113D01*
X77250000Y-69081400D02*
X77250000Y-62740000D01*
X76991400Y-69340000D02*
X77250000Y-69081400D01*
%TO.N,AUDIO_L*%
X61420000Y-55170000D02*
X57000000Y-55170000D01*
X63000000Y-56750000D02*
X61420000Y-55170000D01*
X71250000Y-54590000D02*
X71250000Y-55750000D01*
X70250000Y-56750000D02*
X63000000Y-56750000D01*
X71250000Y-55750000D02*
X70250000Y-56750000D01*
%TO.N,Net-(U1-FMI)*%
X75000000Y-74990000D02*
X75000000Y-74490000D01*
X73330000Y-72820000D02*
X73330000Y-71740000D01*
X75000000Y-74490000D02*
X73330000Y-72820000D01*
X76991400Y-75690000D02*
X75700000Y-75690000D01*
X75700000Y-75690000D02*
X75000000Y-74990000D01*
%TO.N,Net-(U1-AMI)*%
X73260000Y-78230000D02*
X73250000Y-78240000D01*
X74000000Y-78240000D02*
X73250000Y-78240000D01*
X76991400Y-78230000D02*
X73260000Y-78230000D01*
%TO.N,/Si_RST*%
X87010000Y-78230000D02*
X93839000Y-71401000D01*
X98750000Y-65000000D02*
X100600000Y-63150000D01*
X96973200Y-71401000D02*
X98750000Y-69624200D01*
X98750000Y-69624200D02*
X98750000Y-65000000D01*
X87010000Y-78230000D02*
X82300000Y-78230000D01*
X93839000Y-71401000D02*
X96973200Y-71401000D01*
X100600000Y-63150000D02*
X101970000Y-63150000D01*
%TO.N,/Si_SDA*%
X96740000Y-70500000D02*
X97750000Y-69490000D01*
X93240000Y-70500000D02*
X96740000Y-70500000D01*
X89320000Y-74420000D02*
X93240000Y-70500000D01*
X82300000Y-74420000D02*
X89320000Y-74420000D01*
X97750000Y-69490000D02*
X97750000Y-60000000D01*
X97750000Y-60000000D02*
X99680000Y-58070000D01*
X99680000Y-58070000D02*
X101970000Y-58070000D01*
%TO.N,/Si_SCL*%
X82300000Y-75690000D02*
X88800000Y-75690000D01*
X98250000Y-69557100D02*
X98250000Y-62750000D01*
X93490000Y-71000000D02*
X96807100Y-71000000D01*
X98250000Y-62750000D02*
X100390000Y-60610000D01*
X100390000Y-60610000D02*
X101970000Y-60610000D01*
X96807100Y-71000000D02*
X98250000Y-69557100D01*
X88800000Y-75690000D02*
X93490000Y-71000000D01*
%TO.N,/LED*%
X97221000Y-44279000D02*
X98250000Y-43250000D01*
X98250000Y-43250000D02*
X98250000Y-38500000D01*
X99000000Y-37750000D02*
X101970000Y-37750000D01*
X95000000Y-50510000D02*
X93970000Y-50510000D01*
X98250000Y-38500000D02*
X99000000Y-37750000D01*
X93750000Y-50290000D02*
X93750000Y-44790000D01*
X93970000Y-50510000D02*
X93750000Y-50290000D01*
X93750000Y-44790000D02*
X94261000Y-44279000D01*
X94261000Y-44279000D02*
X97221000Y-44279000D01*
%TO.N,Net-(U1-VDD)*%
X85360000Y-71880000D02*
X85500000Y-71740000D01*
X82300000Y-71880000D02*
X85360000Y-71880000D01*
%TD*%
M02*
