%TF.GenerationSoftware,KiCad,Pcbnew,9.0.6*%
%TF.CreationDate,2026-01-05T15:28:01+01:00*%
%TF.ProjectId,pico-radio-9-k_toldalas,7069636f-2d72-4616-9469-6f2d392d6be9,rev?*%
%TF.SameCoordinates,Original*%
%TF.FileFunction,Plated,1,2,PTH,Drill*%
%TF.FilePolarity,Positive*%
%FSLAX46Y46*%
G04 Gerber Fmt 4.6, Leading zero omitted, Abs format (unit mm)*
G04 Created by KiCad (PCBNEW 9.0.6) date 2026-01-05 15:28:01*
%MOMM*%
%LPD*%
G01*
G04 APERTURE LIST*
%TA.AperFunction,ComponentDrill*%
%ADD10C,0.500000*%
%TD*%
%TA.AperFunction,ComponentDrill*%
%ADD11C,0.800000*%
%TD*%
%TA.AperFunction,ComponentDrill*%
%ADD12C,1.000000*%
%TD*%
%TA.AperFunction,ComponentDrill*%
%ADD13C,1.200000*%
%TD*%
G04 APERTURE END LIST*
D10*
%TO.C,Y1*%
X78500000Y-65990000D03*
X80400000Y-65990000D03*
D11*
%TO.C,R6*%
X55090000Y-40000000D03*
%TO.C,Q1*%
X57000000Y-48000000D03*
X57000000Y-50540000D03*
X57000000Y-53080000D03*
%TO.C,Q2*%
X57000000Y-55170000D03*
X57000000Y-57710000D03*
X57000000Y-60250000D03*
%TO.C,C7*%
X60250000Y-43750000D03*
%TO.C,R1*%
X61000000Y-50090000D03*
X61000000Y-60250000D03*
%TO.C,R10*%
X61090000Y-33500000D03*
%TO.C,R11*%
X61090000Y-36500000D03*
%TO.C,L1*%
X63090000Y-75240000D03*
%TO.C,L3*%
X63170000Y-71740000D03*
%TO.C,R2*%
X64500000Y-50170000D03*
X64500000Y-60330000D03*
%TO.C,R6*%
X65250000Y-40000000D03*
%TO.C,C7*%
X65250000Y-43750000D03*
%TO.C,C2*%
X65750000Y-78240000D03*
%TO.C,R5*%
X68000000Y-40000000D03*
X68000000Y-50160000D03*
%TO.C,R3*%
X68000000Y-54500000D03*
X68000000Y-64660000D03*
%TO.C,C2*%
X68250000Y-78240000D03*
%TO.C,C1*%
X70750000Y-68490000D03*
%TO.C,C3*%
X70750000Y-78240000D03*
%TO.C,R10*%
X71250000Y-33500000D03*
%TO.C,R11*%
X71250000Y-36500000D03*
%TO.C,R7*%
X71250000Y-40000000D03*
X71250000Y-50160000D03*
%TO.C,R4*%
X71250000Y-54590000D03*
X71250000Y-64750000D03*
%TO.C,C1*%
X73250000Y-68490000D03*
%TO.C,L1*%
X73250000Y-75240000D03*
%TO.C,C3*%
X73250000Y-78240000D03*
%TO.C,L3*%
X73330000Y-71740000D03*
%TO.C,R8*%
X74250000Y-40000000D03*
X74250000Y-50160000D03*
%TO.C,R9*%
X74420000Y-54500000D03*
%TO.C,C6*%
X75900000Y-63490000D03*
X75900000Y-65990000D03*
%TO.C,C5*%
X76500000Y-57945113D03*
X76500000Y-60445113D03*
%TO.C,U3*%
X76880000Y-35170000D03*
X76880000Y-37710000D03*
X76880000Y-40250000D03*
X76880000Y-42790000D03*
X76880000Y-45330000D03*
X76880000Y-47870000D03*
X76880000Y-50410000D03*
%TO.C,C4*%
X82500000Y-57740000D03*
X82500000Y-60240000D03*
%TO.C,C8*%
X83500000Y-63490000D03*
X83500000Y-65990000D03*
%TO.C,U3*%
X84500000Y-35170000D03*
X84500000Y-37710000D03*
X84500000Y-40250000D03*
X84500000Y-42790000D03*
X84500000Y-45330000D03*
X84500000Y-47870000D03*
X84500000Y-50410000D03*
%TO.C,R9*%
X84580000Y-54500000D03*
%TO.C,L4*%
X85500000Y-71990000D03*
X85500000Y-82150000D03*
%TO.C,C9*%
X87500000Y-63490000D03*
X87500000Y-68490000D03*
%TO.C,C10*%
X88500000Y-57695113D03*
X88500000Y-60195113D03*
%TO.C,C12*%
X125000000Y-35250000D03*
X125000000Y-40250000D03*
%TO.C,R13*%
X125750000Y-58000000D03*
X125750000Y-68160000D03*
%TO.C,R14*%
X125750000Y-71250000D03*
X125750000Y-81410000D03*
%TO.C,C11*%
X130000000Y-35250000D03*
X130000000Y-37750000D03*
%TO.C,Q3*%
X130250000Y-76420000D03*
X130250000Y-78960000D03*
X130250000Y-81500000D03*
%TO.C,R12*%
X130500000Y-47840000D03*
X130500000Y-58000000D03*
D12*
%TO.C,RV1*%
X55250000Y-31500000D03*
X55250000Y-36500000D03*
%TO.C,TP1*%
X55250000Y-43750000D03*
%TO.C,J3*%
X55670000Y-83740000D03*
%TO.C,RV1*%
X57750000Y-34000000D03*
%TO.C,J3*%
X58210000Y-83740000D03*
X60750000Y-83740000D03*
%TO.C,L2*%
X66000000Y-83740000D03*
X68540000Y-83740000D03*
%TO.C,TP2*%
X74500000Y-32000000D03*
%TO.C,J4*%
X89500000Y-35250000D03*
X89500000Y-37790000D03*
X89500000Y-40330000D03*
X89500000Y-42870000D03*
%TO.C,J6*%
X94750000Y-73250000D03*
X94750000Y-75790000D03*
X94750000Y-78330000D03*
X94750000Y-80870000D03*
X94750000Y-83410000D03*
%TO.C,U2*%
X95000000Y-35270000D03*
X95000000Y-37810000D03*
X95000000Y-40350000D03*
X95000000Y-42890000D03*
X95000000Y-45430000D03*
X95000000Y-47970000D03*
X95000000Y-50510000D03*
X95000000Y-53050000D03*
X95000000Y-55590000D03*
X95000000Y-58130000D03*
X95000000Y-60670000D03*
X95000000Y-63210000D03*
X95000000Y-65750000D03*
X95000000Y-68290000D03*
%TO.C,A1*%
X101970000Y-35210000D03*
X101970000Y-37750000D03*
X101970000Y-40290000D03*
X101970000Y-42830000D03*
X101970000Y-45370000D03*
X101970000Y-47910000D03*
X101970000Y-50450000D03*
X101970000Y-52990000D03*
X101970000Y-55530000D03*
X101970000Y-58070000D03*
X101970000Y-60610000D03*
X101970000Y-63150000D03*
X101970000Y-65690000D03*
X101970000Y-68230000D03*
X101970000Y-70770000D03*
X101970000Y-73310000D03*
X101970000Y-75850000D03*
X101970000Y-78390000D03*
X101970000Y-80930000D03*
X101970000Y-83470000D03*
X119750000Y-35210000D03*
X119750000Y-37750000D03*
X119750000Y-40290000D03*
X119750000Y-42830000D03*
X119750000Y-45370000D03*
X119750000Y-47910000D03*
X119750000Y-50450000D03*
X119750000Y-52990000D03*
X119750000Y-55530000D03*
X119750000Y-58070000D03*
X119750000Y-60610000D03*
X119750000Y-63150000D03*
X119750000Y-65690000D03*
X119750000Y-68230000D03*
X119750000Y-70770000D03*
X119750000Y-73310000D03*
X119750000Y-75850000D03*
X119750000Y-78390000D03*
X119750000Y-80930000D03*
X119750000Y-83470000D03*
%TO.C,SW1*%
X125000000Y-47975000D03*
X125000000Y-50515000D03*
%TO.C,J5*%
X130170000Y-43000000D03*
X132710000Y-43000000D03*
%TO.C,BZ1*%
X133750000Y-63950000D03*
X133750000Y-71550000D03*
%TO.C,J5*%
X135250000Y-43000000D03*
D13*
%TO.C,J1*%
X57000000Y-64990000D03*
X57000000Y-68490000D03*
%TO.C,J2*%
X57250000Y-74740000D03*
X57250000Y-78240000D03*
M02*
