%TF.GenerationSoftware,KiCad,Pcbnew,9.0.6*%
%TF.CreationDate,2025-12-26T08:37:33+01:00*%
%TF.ProjectId,pico-radio-9-k_toldalas,7069636f-2d72-4616-9469-6f2d392d6be9,rev?*%
%TF.SameCoordinates,Original*%
%TF.FileFunction,Copper,L2,Bot*%
%TF.FilePolarity,Positive*%
%FSLAX46Y46*%
G04 Gerber Fmt 4.6, Leading zero omitted, Abs format (unit mm)*
G04 Created by KiCad (PCBNEW 9.0.6) date 2025-12-26 08:37:33*
%MOMM*%
%LPD*%
G01*
G04 APERTURE LIST*
G04 Aperture macros list*
%AMRoundRect*
0 Rectangle with rounded corners*
0 $1 Rounding radius*
0 $2 $3 $4 $5 $6 $7 $8 $9 X,Y pos of 4 corners*
0 Add a 4 corners polygon primitive as box body*
4,1,4,$2,$3,$4,$5,$6,$7,$8,$9,$2,$3,0*
0 Add four circle primitives for the rounded corners*
1,1,$1+$1,$2,$3*
1,1,$1+$1,$4,$5*
1,1,$1+$1,$6,$7*
1,1,$1+$1,$8,$9*
0 Add four rect primitives between the rounded corners*
20,1,$1+$1,$2,$3,$4,$5,0*
20,1,$1+$1,$4,$5,$6,$7,0*
20,1,$1+$1,$6,$7,$8,$9,0*
20,1,$1+$1,$8,$9,$2,$3,0*%
%AMFreePoly0*
4,1,37,0.603843,0.796157,0.639018,0.796157,0.711114,0.766294,0.766294,0.711114,0.796157,0.639018,0.796157,0.603843,0.800000,0.600000,0.800000,-0.600000,0.796157,-0.603843,0.796157,-0.639018,0.766294,-0.711114,0.711114,-0.766294,0.639018,-0.796157,0.603843,-0.796157,0.600000,-0.800000,0.000000,-0.800000,0.000000,-0.796148,-0.078414,-0.796148,-0.232228,-0.765552,-0.377117,-0.705537,
-0.507515,-0.618408,-0.618408,-0.507515,-0.705537,-0.377117,-0.765552,-0.232228,-0.796148,-0.078414,-0.796148,0.078414,-0.765552,0.232228,-0.705537,0.377117,-0.618408,0.507515,-0.507515,0.618408,-0.377117,0.705537,-0.232228,0.765552,-0.078414,0.796148,0.000000,0.796148,0.000000,0.800000,0.600000,0.800000,0.603843,0.796157,0.603843,0.796157,$1*%
%AMFreePoly1*
4,1,37,0.000000,0.796148,0.078414,0.796148,0.232228,0.765552,0.377117,0.705537,0.507515,0.618408,0.618408,0.507515,0.705537,0.377117,0.765552,0.232228,0.796148,0.078414,0.796148,-0.078414,0.765552,-0.232228,0.705537,-0.377117,0.618408,-0.507515,0.507515,-0.618408,0.377117,-0.705537,0.232228,-0.765552,0.078414,-0.796148,0.000000,-0.796148,0.000000,-0.800000,-0.600000,-0.800000,
-0.603843,-0.796157,-0.639018,-0.796157,-0.711114,-0.766294,-0.766294,-0.711114,-0.796157,-0.639018,-0.796157,-0.603843,-0.800000,-0.600000,-0.800000,0.600000,-0.796157,0.603843,-0.796157,0.639018,-0.766294,0.711114,-0.711114,0.766294,-0.639018,0.796157,-0.603843,0.796157,-0.600000,0.800000,0.000000,0.800000,0.000000,0.796148,0.000000,0.796148,$1*%
G04 Aperture macros list end*
%ADD10C,0.300000*%
%TA.AperFunction,NonConductor*%
%ADD11C,0.300000*%
%TD*%
%TA.AperFunction,ComponentPad*%
%ADD12RoundRect,0.200000X-0.600000X-0.600000X0.600000X-0.600000X0.600000X0.600000X-0.600000X0.600000X0*%
%TD*%
%TA.AperFunction,ComponentPad*%
%ADD13C,1.600000*%
%TD*%
%TA.AperFunction,ComponentPad*%
%ADD14FreePoly0,0.000000*%
%TD*%
%TA.AperFunction,ComponentPad*%
%ADD15FreePoly1,0.000000*%
%TD*%
%TA.AperFunction,ComponentPad*%
%ADD16R,1.700000X1.700000*%
%TD*%
%TA.AperFunction,ComponentPad*%
%ADD17C,1.700000*%
%TD*%
%TA.AperFunction,ComponentPad*%
%ADD18RoundRect,0.250000X0.550000X-0.550000X0.550000X0.550000X-0.550000X0.550000X-0.550000X-0.550000X0*%
%TD*%
%TA.AperFunction,ComponentPad*%
%ADD19R,1.500000X1.500000*%
%TD*%
%TA.AperFunction,ComponentPad*%
%ADD20C,1.500000*%
%TD*%
%TA.AperFunction,ComponentPad*%
%ADD21R,2.000000X2.000000*%
%TD*%
%TA.AperFunction,ComponentPad*%
%ADD22C,2.000000*%
%TD*%
%TA.AperFunction,ComponentPad*%
%ADD23R,1.550000X1.550000*%
%TD*%
%TA.AperFunction,ComponentPad*%
%ADD24C,1.550000*%
%TD*%
%TA.AperFunction,ComponentPad*%
%ADD25RoundRect,0.250000X-0.550000X-0.550000X0.550000X-0.550000X0.550000X0.550000X-0.550000X0.550000X0*%
%TD*%
%TA.AperFunction,ComponentPad*%
%ADD26RoundRect,0.250001X-0.949999X0.949999X-0.949999X-0.949999X0.949999X-0.949999X0.949999X0.949999X0*%
%TD*%
%TA.AperFunction,ComponentPad*%
%ADD27C,2.400000*%
%TD*%
%TA.AperFunction,ComponentPad*%
%ADD28RoundRect,0.250000X-0.550000X0.550000X-0.550000X-0.550000X0.550000X-0.550000X0.550000X0.550000X0*%
%TD*%
%TA.AperFunction,ComponentPad*%
%ADD29C,1.000000*%
%TD*%
%TA.AperFunction,Conductor*%
%ADD30C,0.800000*%
%TD*%
%TA.AperFunction,Conductor*%
%ADD31C,0.200000*%
%TD*%
G04 APERTURE END LIST*
D10*
D11*
X115029003Y-82445489D02*
X116529003Y-82445489D01*
X116529003Y-82445489D02*
X116529003Y-81874060D01*
X116529003Y-81874060D02*
X116457574Y-81731203D01*
X116457574Y-81731203D02*
X116386146Y-81659774D01*
X116386146Y-81659774D02*
X116243289Y-81588346D01*
X116243289Y-81588346D02*
X116029003Y-81588346D01*
X116029003Y-81588346D02*
X115886146Y-81659774D01*
X115886146Y-81659774D02*
X115814717Y-81731203D01*
X115814717Y-81731203D02*
X115743289Y-81874060D01*
X115743289Y-81874060D02*
X115743289Y-82445489D01*
X115029003Y-80945489D02*
X116029003Y-80945489D01*
X116529003Y-80945489D02*
X116457574Y-81016917D01*
X116457574Y-81016917D02*
X116386146Y-80945489D01*
X116386146Y-80945489D02*
X116457574Y-80874060D01*
X116457574Y-80874060D02*
X116529003Y-80945489D01*
X116529003Y-80945489D02*
X116386146Y-80945489D01*
X115100432Y-79588346D02*
X115029003Y-79731203D01*
X115029003Y-79731203D02*
X115029003Y-80016917D01*
X115029003Y-80016917D02*
X115100432Y-80159774D01*
X115100432Y-80159774D02*
X115171860Y-80231203D01*
X115171860Y-80231203D02*
X115314717Y-80302631D01*
X115314717Y-80302631D02*
X115743289Y-80302631D01*
X115743289Y-80302631D02*
X115886146Y-80231203D01*
X115886146Y-80231203D02*
X115957574Y-80159774D01*
X115957574Y-80159774D02*
X116029003Y-80016917D01*
X116029003Y-80016917D02*
X116029003Y-79731203D01*
X116029003Y-79731203D02*
X115957574Y-79588346D01*
X115029003Y-78731203D02*
X115100432Y-78874060D01*
X115100432Y-78874060D02*
X115171860Y-78945489D01*
X115171860Y-78945489D02*
X115314717Y-79016917D01*
X115314717Y-79016917D02*
X115743289Y-79016917D01*
X115743289Y-79016917D02*
X115886146Y-78945489D01*
X115886146Y-78945489D02*
X115957574Y-78874060D01*
X115957574Y-78874060D02*
X116029003Y-78731203D01*
X116029003Y-78731203D02*
X116029003Y-78516917D01*
X116029003Y-78516917D02*
X115957574Y-78374060D01*
X115957574Y-78374060D02*
X115886146Y-78302632D01*
X115886146Y-78302632D02*
X115743289Y-78231203D01*
X115743289Y-78231203D02*
X115314717Y-78231203D01*
X115314717Y-78231203D02*
X115171860Y-78302632D01*
X115171860Y-78302632D02*
X115100432Y-78374060D01*
X115100432Y-78374060D02*
X115029003Y-78516917D01*
X115029003Y-78516917D02*
X115029003Y-78731203D01*
X115029003Y-75588346D02*
X115743289Y-76088346D01*
X115029003Y-76445489D02*
X116529003Y-76445489D01*
X116529003Y-76445489D02*
X116529003Y-75874060D01*
X116529003Y-75874060D02*
X116457574Y-75731203D01*
X116457574Y-75731203D02*
X116386146Y-75659774D01*
X116386146Y-75659774D02*
X116243289Y-75588346D01*
X116243289Y-75588346D02*
X116029003Y-75588346D01*
X116029003Y-75588346D02*
X115886146Y-75659774D01*
X115886146Y-75659774D02*
X115814717Y-75731203D01*
X115814717Y-75731203D02*
X115743289Y-75874060D01*
X115743289Y-75874060D02*
X115743289Y-76445489D01*
X115029003Y-74302632D02*
X115814717Y-74302632D01*
X115814717Y-74302632D02*
X115957574Y-74374060D01*
X115957574Y-74374060D02*
X116029003Y-74516917D01*
X116029003Y-74516917D02*
X116029003Y-74802632D01*
X116029003Y-74802632D02*
X115957574Y-74945489D01*
X115100432Y-74302632D02*
X115029003Y-74445489D01*
X115029003Y-74445489D02*
X115029003Y-74802632D01*
X115029003Y-74802632D02*
X115100432Y-74945489D01*
X115100432Y-74945489D02*
X115243289Y-75016917D01*
X115243289Y-75016917D02*
X115386146Y-75016917D01*
X115386146Y-75016917D02*
X115529003Y-74945489D01*
X115529003Y-74945489D02*
X115600432Y-74802632D01*
X115600432Y-74802632D02*
X115600432Y-74445489D01*
X115600432Y-74445489D02*
X115671860Y-74302632D01*
X115029003Y-72945489D02*
X116529003Y-72945489D01*
X115100432Y-72945489D02*
X115029003Y-73088346D01*
X115029003Y-73088346D02*
X115029003Y-73374060D01*
X115029003Y-73374060D02*
X115100432Y-73516917D01*
X115100432Y-73516917D02*
X115171860Y-73588346D01*
X115171860Y-73588346D02*
X115314717Y-73659774D01*
X115314717Y-73659774D02*
X115743289Y-73659774D01*
X115743289Y-73659774D02*
X115886146Y-73588346D01*
X115886146Y-73588346D02*
X115957574Y-73516917D01*
X115957574Y-73516917D02*
X116029003Y-73374060D01*
X116029003Y-73374060D02*
X116029003Y-73088346D01*
X116029003Y-73088346D02*
X115957574Y-72945489D01*
X115029003Y-72231203D02*
X116029003Y-72231203D01*
X116529003Y-72231203D02*
X116457574Y-72302631D01*
X116457574Y-72302631D02*
X116386146Y-72231203D01*
X116386146Y-72231203D02*
X116457574Y-72159774D01*
X116457574Y-72159774D02*
X116529003Y-72231203D01*
X116529003Y-72231203D02*
X116386146Y-72231203D01*
X115029003Y-71302631D02*
X115100432Y-71445488D01*
X115100432Y-71445488D02*
X115171860Y-71516917D01*
X115171860Y-71516917D02*
X115314717Y-71588345D01*
X115314717Y-71588345D02*
X115743289Y-71588345D01*
X115743289Y-71588345D02*
X115886146Y-71516917D01*
X115886146Y-71516917D02*
X115957574Y-71445488D01*
X115957574Y-71445488D02*
X116029003Y-71302631D01*
X116029003Y-71302631D02*
X116029003Y-71088345D01*
X116029003Y-71088345D02*
X115957574Y-70945488D01*
X115957574Y-70945488D02*
X115886146Y-70874060D01*
X115886146Y-70874060D02*
X115743289Y-70802631D01*
X115743289Y-70802631D02*
X115314717Y-70802631D01*
X115314717Y-70802631D02*
X115171860Y-70874060D01*
X115171860Y-70874060D02*
X115100432Y-70945488D01*
X115100432Y-70945488D02*
X115029003Y-71088345D01*
X115029003Y-71088345D02*
X115029003Y-71302631D01*
X116529003Y-69231202D02*
X115029003Y-68731202D01*
X115029003Y-68731202D02*
X116529003Y-68231202D01*
X115029003Y-67659774D02*
X115029003Y-67374060D01*
X115029003Y-67374060D02*
X115100432Y-67231203D01*
X115100432Y-67231203D02*
X115171860Y-67159774D01*
X115171860Y-67159774D02*
X115386146Y-67016917D01*
X115386146Y-67016917D02*
X115671860Y-66945488D01*
X115671860Y-66945488D02*
X116243289Y-66945488D01*
X116243289Y-66945488D02*
X116386146Y-67016917D01*
X116386146Y-67016917D02*
X116457574Y-67088346D01*
X116457574Y-67088346D02*
X116529003Y-67231203D01*
X116529003Y-67231203D02*
X116529003Y-67516917D01*
X116529003Y-67516917D02*
X116457574Y-67659774D01*
X116457574Y-67659774D02*
X116386146Y-67731203D01*
X116386146Y-67731203D02*
X116243289Y-67802631D01*
X116243289Y-67802631D02*
X115886146Y-67802631D01*
X115886146Y-67802631D02*
X115743289Y-67731203D01*
X115743289Y-67731203D02*
X115671860Y-67659774D01*
X115671860Y-67659774D02*
X115600432Y-67516917D01*
X115600432Y-67516917D02*
X115600432Y-67231203D01*
X115600432Y-67231203D02*
X115671860Y-67088346D01*
X115671860Y-67088346D02*
X115743289Y-67016917D01*
X115743289Y-67016917D02*
X115886146Y-66945488D01*
X113399801Y-81945489D02*
X113328373Y-81731203D01*
X113328373Y-81731203D02*
X113256944Y-81659774D01*
X113256944Y-81659774D02*
X113114087Y-81588346D01*
X113114087Y-81588346D02*
X112899801Y-81588346D01*
X112899801Y-81588346D02*
X112756944Y-81659774D01*
X112756944Y-81659774D02*
X112685516Y-81731203D01*
X112685516Y-81731203D02*
X112614087Y-81874060D01*
X112614087Y-81874060D02*
X112614087Y-82445489D01*
X112614087Y-82445489D02*
X114114087Y-82445489D01*
X114114087Y-82445489D02*
X114114087Y-81945489D01*
X114114087Y-81945489D02*
X114042658Y-81802632D01*
X114042658Y-81802632D02*
X113971230Y-81731203D01*
X113971230Y-81731203D02*
X113828373Y-81659774D01*
X113828373Y-81659774D02*
X113685516Y-81659774D01*
X113685516Y-81659774D02*
X113542658Y-81731203D01*
X113542658Y-81731203D02*
X113471230Y-81802632D01*
X113471230Y-81802632D02*
X113399801Y-81945489D01*
X113399801Y-81945489D02*
X113399801Y-82445489D01*
X114114087Y-81159774D02*
X114114087Y-80302632D01*
X112614087Y-80731203D02*
X114114087Y-80731203D01*
X113185516Y-79802632D02*
X113185516Y-78659775D01*
X112685516Y-78016917D02*
X112614087Y-77802632D01*
X112614087Y-77802632D02*
X112614087Y-77445489D01*
X112614087Y-77445489D02*
X112685516Y-77302632D01*
X112685516Y-77302632D02*
X112756944Y-77231203D01*
X112756944Y-77231203D02*
X112899801Y-77159774D01*
X112899801Y-77159774D02*
X113042658Y-77159774D01*
X113042658Y-77159774D02*
X113185516Y-77231203D01*
X113185516Y-77231203D02*
X113256944Y-77302632D01*
X113256944Y-77302632D02*
X113328373Y-77445489D01*
X113328373Y-77445489D02*
X113399801Y-77731203D01*
X113399801Y-77731203D02*
X113471230Y-77874060D01*
X113471230Y-77874060D02*
X113542658Y-77945489D01*
X113542658Y-77945489D02*
X113685516Y-78016917D01*
X113685516Y-78016917D02*
X113828373Y-78016917D01*
X113828373Y-78016917D02*
X113971230Y-77945489D01*
X113971230Y-77945489D02*
X114042658Y-77874060D01*
X114042658Y-77874060D02*
X114114087Y-77731203D01*
X114114087Y-77731203D02*
X114114087Y-77374060D01*
X114114087Y-77374060D02*
X114042658Y-77159774D01*
X112614087Y-76302632D02*
X112685516Y-76445489D01*
X112685516Y-76445489D02*
X112756944Y-76516918D01*
X112756944Y-76516918D02*
X112899801Y-76588346D01*
X112899801Y-76588346D02*
X113328373Y-76588346D01*
X113328373Y-76588346D02*
X113471230Y-76516918D01*
X113471230Y-76516918D02*
X113542658Y-76445489D01*
X113542658Y-76445489D02*
X113614087Y-76302632D01*
X113614087Y-76302632D02*
X113614087Y-76088346D01*
X113614087Y-76088346D02*
X113542658Y-75945489D01*
X113542658Y-75945489D02*
X113471230Y-75874061D01*
X113471230Y-75874061D02*
X113328373Y-75802632D01*
X113328373Y-75802632D02*
X112899801Y-75802632D01*
X112899801Y-75802632D02*
X112756944Y-75874061D01*
X112756944Y-75874061D02*
X112685516Y-75945489D01*
X112685516Y-75945489D02*
X112614087Y-76088346D01*
X112614087Y-76088346D02*
X112614087Y-76302632D01*
X113614087Y-75374060D02*
X113614087Y-74802632D01*
X112614087Y-75159775D02*
X113899801Y-75159775D01*
X113899801Y-75159775D02*
X114042658Y-75088346D01*
X114042658Y-75088346D02*
X114114087Y-74945489D01*
X114114087Y-74945489D02*
X114114087Y-74802632D01*
X113614087Y-74516917D02*
X113614087Y-73945489D01*
X114114087Y-74302632D02*
X112828373Y-74302632D01*
X112828373Y-74302632D02*
X112685516Y-74231203D01*
X112685516Y-74231203D02*
X112614087Y-74088346D01*
X112614087Y-74088346D02*
X112614087Y-73945489D01*
X111556314Y-82516917D02*
X111627742Y-82445489D01*
X111627742Y-82445489D02*
X111699171Y-82302632D01*
X111699171Y-82302632D02*
X111699171Y-81945489D01*
X111699171Y-81945489D02*
X111627742Y-81802632D01*
X111627742Y-81802632D02*
X111556314Y-81731203D01*
X111556314Y-81731203D02*
X111413457Y-81659774D01*
X111413457Y-81659774D02*
X111270600Y-81659774D01*
X111270600Y-81659774D02*
X111056314Y-81731203D01*
X111056314Y-81731203D02*
X110199171Y-82588346D01*
X110199171Y-82588346D02*
X110199171Y-81659774D01*
X111699171Y-80731203D02*
X111699171Y-80588346D01*
X111699171Y-80588346D02*
X111627742Y-80445489D01*
X111627742Y-80445489D02*
X111556314Y-80374061D01*
X111556314Y-80374061D02*
X111413457Y-80302632D01*
X111413457Y-80302632D02*
X111127742Y-80231203D01*
X111127742Y-80231203D02*
X110770600Y-80231203D01*
X110770600Y-80231203D02*
X110484885Y-80302632D01*
X110484885Y-80302632D02*
X110342028Y-80374061D01*
X110342028Y-80374061D02*
X110270600Y-80445489D01*
X110270600Y-80445489D02*
X110199171Y-80588346D01*
X110199171Y-80588346D02*
X110199171Y-80731203D01*
X110199171Y-80731203D02*
X110270600Y-80874061D01*
X110270600Y-80874061D02*
X110342028Y-80945489D01*
X110342028Y-80945489D02*
X110484885Y-81016918D01*
X110484885Y-81016918D02*
X110770600Y-81088346D01*
X110770600Y-81088346D02*
X111127742Y-81088346D01*
X111127742Y-81088346D02*
X111413457Y-81016918D01*
X111413457Y-81016918D02*
X111556314Y-80945489D01*
X111556314Y-80945489D02*
X111627742Y-80874061D01*
X111627742Y-80874061D02*
X111699171Y-80731203D01*
X111556314Y-79659775D02*
X111627742Y-79588347D01*
X111627742Y-79588347D02*
X111699171Y-79445490D01*
X111699171Y-79445490D02*
X111699171Y-79088347D01*
X111699171Y-79088347D02*
X111627742Y-78945490D01*
X111627742Y-78945490D02*
X111556314Y-78874061D01*
X111556314Y-78874061D02*
X111413457Y-78802632D01*
X111413457Y-78802632D02*
X111270600Y-78802632D01*
X111270600Y-78802632D02*
X111056314Y-78874061D01*
X111056314Y-78874061D02*
X110199171Y-79731204D01*
X110199171Y-79731204D02*
X110199171Y-78802632D01*
X111699171Y-77445490D02*
X111699171Y-78159776D01*
X111699171Y-78159776D02*
X110984885Y-78231204D01*
X110984885Y-78231204D02*
X111056314Y-78159776D01*
X111056314Y-78159776D02*
X111127742Y-78016919D01*
X111127742Y-78016919D02*
X111127742Y-77659776D01*
X111127742Y-77659776D02*
X111056314Y-77516919D01*
X111056314Y-77516919D02*
X110984885Y-77445490D01*
X110984885Y-77445490D02*
X110842028Y-77374061D01*
X110842028Y-77374061D02*
X110484885Y-77374061D01*
X110484885Y-77374061D02*
X110342028Y-77445490D01*
X110342028Y-77445490D02*
X110270600Y-77516919D01*
X110270600Y-77516919D02*
X110199171Y-77659776D01*
X110199171Y-77659776D02*
X110199171Y-78016919D01*
X110199171Y-78016919D02*
X110270600Y-78159776D01*
X110270600Y-78159776D02*
X110342028Y-78231204D01*
D12*
%TO.P,A1,1,GPIO0*%
%TO.N,/SDO*%
X101970000Y-35210000D03*
D13*
%TO.P,A1,2,GPIO1*%
%TO.N,/LED*%
X101970000Y-37750000D03*
D14*
%TO.P,A1,3,GPIO2*%
%TO.N,/SCK*%
X101970000Y-40290000D03*
D13*
%TO.P,A1,4,GPIO3*%
%TO.N,/SDI*%
X101970000Y-42830000D03*
%TO.P,A1,5,GPIO4*%
%TO.N,/DC*%
X101970000Y-45370000D03*
%TO.P,A1,6,GND*%
%TO.N,GND*%
X101970000Y-47910000D03*
%TO.P,A1,7,GPIO5*%
%TO.N,/RST*%
X101970000Y-50450000D03*
D14*
%TO.P,A1,8,GPIO6*%
%TO.N,/CS*%
X101970000Y-52990000D03*
D13*
%TO.P,A1,9,GPIO7*%
%TO.N,/T_CS*%
X101970000Y-55530000D03*
%TO.P,A1,10,GPIO8*%
%TO.N,/Si_SDA*%
X101970000Y-58070000D03*
%TO.P,A1,11,GPIO9*%
%TO.N,/Si_SCL*%
X101970000Y-60610000D03*
%TO.P,A1,12,GPIO10*%
%TO.N,/Si_RST*%
X101970000Y-63150000D03*
D14*
%TO.P,A1,13,GPIO11*%
%TO.N,unconnected-(A1-GPIO11-Pad13)*%
X101970000Y-65690000D03*
D13*
%TO.P,A1,14,GPIO12*%
%TO.N,unconnected-(A1-GPIO12-Pad14)*%
X101970000Y-68230000D03*
%TO.P,A1,15,GND*%
%TO.N,GND*%
X101970000Y-70770000D03*
%TO.P,A1,16,GPIO13*%
%TO.N,unconnected-(A1-GPIO13-Pad16)*%
X101970000Y-73310000D03*
%TO.P,A1,17,GPIO14*%
%TO.N,unconnected-(A1-GPIO14-Pad17)*%
X101970000Y-75850000D03*
D14*
%TO.P,A1,18,GPIO15*%
%TO.N,unconnected-(A1-GPIO15-Pad18)*%
X101970000Y-78390000D03*
D13*
%TO.P,A1,19,GPIO16*%
%TO.N,ROT_DT*%
X101970000Y-80930000D03*
%TO.P,A1,20,GPIO17*%
%TO.N,ROT_CLK*%
X101970000Y-83470000D03*
%TO.P,A1,21,GPIO18*%
%TO.N,ROT_SW*%
X119750000Y-83470000D03*
%TO.P,A1,22,GPIO19*%
%TO.N,AUDIO_MUTE*%
X119750000Y-80930000D03*
D15*
%TO.P,A1,23,GPIO20*%
%TO.N,BUZZER*%
X119750000Y-78390000D03*
D13*
%TO.P,A1,24,GPIO21*%
%TO.N,unconnected-(A1-GPIO21-Pad24)*%
X119750000Y-75850000D03*
%TO.P,A1,25,GPIO22*%
%TO.N,unconnected-(A1-GPIO22-Pad25)*%
X119750000Y-73310000D03*
%TO.P,A1,26,GPIO23*%
%TO.N,unconnected-(A1-GPIO23-Pad26)*%
X119750000Y-70770000D03*
%TO.P,A1,27,GPIO24*%
%TO.N,unconnected-(A1-GPIO24-Pad27)*%
X119750000Y-68230000D03*
D15*
%TO.P,A1,28,GPIO25*%
%TO.N,unconnected-(A1-GPIO25-Pad28)*%
X119750000Y-65690000D03*
D13*
%TO.P,A1,29,AGND*%
%TO.N,GND*%
X119750000Y-63150000D03*
%TO.P,A1,30,GPIO26_ADC0*%
%TO.N,AD_FFT_AUDIO*%
X119750000Y-60610000D03*
%TO.P,A1,31,GPIO27_ADC1*%
%TO.N,Net-(A1-GPIO27_ADC1)*%
X119750000Y-58070000D03*
%TO.P,A1,32,GPIO28_ADC2*%
%TO.N,unconnected-(A1-GPIO28_ADC2-Pad32)*%
X119750000Y-55530000D03*
D15*
%TO.P,A1,33,GPIO29_ADC3*%
%TO.N,unconnected-(A1-GPIO29_ADC3-Pad33)*%
X119750000Y-52990000D03*
D13*
%TO.P,A1,34,RUN*%
%TO.N,Net-(A1-RUN)*%
X119750000Y-50450000D03*
%TO.P,A1,35,GND*%
%TO.N,GND*%
X119750000Y-47910000D03*
%TO.P,A1,36,3V3*%
%TO.N,+3.3V*%
X119750000Y-45370000D03*
%TO.P,A1,37,3V3_EN*%
%TO.N,unconnected-(A1-3V3_EN-Pad37)*%
X119750000Y-42830000D03*
D15*
%TO.P,A1,38,GND*%
%TO.N,GND*%
X119750000Y-40290000D03*
D13*
%TO.P,A1,39,VSYS*%
%TO.N,+Vsys*%
X119750000Y-37750000D03*
%TO.P,A1,40,VBUS*%
%TO.N,+Vbus*%
X119750000Y-35210000D03*
%TD*%
%TO.P,C12,1*%
%TO.N,+Vbus*%
X125000000Y-35250000D03*
%TO.P,C12,2*%
%TO.N,GND*%
X125000000Y-40250000D03*
%TD*%
%TO.P,R6,1*%
%TO.N,Net-(U3B--)*%
X65250000Y-40000000D03*
%TO.P,R6,2*%
%TO.N,Net-(C7-Pad1)*%
X55090000Y-40000000D03*
%TD*%
%TO.P,C1,1*%
%TO.N,Net-(U1-FMI)*%
X73250000Y-68490000D03*
%TO.P,C1,2*%
%TO.N,Net-(J1-Pin_2)*%
X70750000Y-68490000D03*
%TD*%
D16*
%TO.P,U2,1,VCC*%
%TO.N,+3.3V*%
X95000000Y-68290000D03*
D17*
%TO.P,U2,2,GND*%
%TO.N,GND*%
X95000000Y-65750000D03*
%TO.P,U2,3,CS*%
%TO.N,/CS*%
X95000000Y-63210000D03*
%TO.P,U2,4,RESET*%
%TO.N,/RST*%
X95000000Y-60670000D03*
%TO.P,U2,5,DC/RS*%
%TO.N,/DC*%
X95000000Y-58130000D03*
%TO.P,U2,6,SDI/MOSI*%
%TO.N,/SDI*%
X95000000Y-55590000D03*
%TO.P,U2,7,SCK*%
%TO.N,/SCK*%
X95000000Y-53050000D03*
%TO.P,U2,8,LED*%
%TO.N,/LED*%
X95000000Y-50510000D03*
%TO.P,U2,9,SDO/MISO*%
%TO.N,unconnected-(U2-SDO{slash}MISO-Pad9)*%
X95000000Y-47970000D03*
%TO.P,U2,10,T_CLK*%
%TO.N,/SCK*%
X95000000Y-45430000D03*
%TO.P,U2,11,T_CS*%
%TO.N,/T_CS*%
X95000000Y-42890000D03*
%TO.P,U2,12,T_DIN*%
%TO.N,/SDI*%
X95000000Y-40350000D03*
%TO.P,U2,13,T_DO*%
%TO.N,/SDO*%
X95000000Y-37810000D03*
%TO.P,U2,14,T_IRQ*%
%TO.N,unconnected-(U2-T_IRQ-Pad14)*%
X95000000Y-35270000D03*
%TD*%
D18*
%TO.P,C5,1*%
%TO.N,Net-(U1-LOUT{slash}DFS)*%
X76500000Y-60445113D03*
D13*
%TO.P,C5,2*%
%TO.N,AUDIO_L*%
X76500000Y-57945113D03*
%TD*%
%TO.P,R10,1*%
%TO.N,GND*%
X71250000Y-33500000D03*
%TO.P,R10,2*%
%TO.N,Net-(U3B-+)*%
X61090000Y-33500000D03*
%TD*%
%TO.P,C3,1*%
%TO.N,Net-(U1-AMI)*%
X73250000Y-78240000D03*
%TO.P,C3,2*%
%TO.N,Net-(J3-Pin_2)*%
X70750000Y-78240000D03*
%TD*%
%TO.P,R4,1*%
%TO.N,GND*%
X71250000Y-64750000D03*
%TO.P,R4,2*%
%TO.N,AUDIO_L*%
X71250000Y-54590000D03*
%TD*%
%TO.P,R2,1*%
%TO.N,AUDIO_MUTE*%
X64500000Y-60330000D03*
%TO.P,R2,2*%
%TO.N,Net-(Q2-B)*%
X64500000Y-50170000D03*
%TD*%
D19*
%TO.P,Q2,1,E*%
%TO.N,GND*%
X57000000Y-60250000D03*
D20*
%TO.P,Q2,2,B*%
%TO.N,Net-(Q2-B)*%
X57000000Y-57710000D03*
%TO.P,Q2,3,C*%
%TO.N,AUDIO_L*%
X57000000Y-55170000D03*
%TD*%
D21*
%TO.P,BZ1,1,+*%
%TO.N,+Vbus*%
X133750000Y-63950000D03*
D22*
%TO.P,BZ1,2,-*%
%TO.N,Net-(BZ1--)*%
X133750000Y-71550000D03*
%TD*%
D13*
%TO.P,R13,1*%
%TO.N,Net-(A1-GPIO27_ADC1)*%
X125750000Y-58000000D03*
%TO.P,R13,2*%
%TO.N,GND*%
X125750000Y-68160000D03*
%TD*%
%TO.P,R12,1*%
%TO.N,+Vbus*%
X130500000Y-47840000D03*
%TO.P,R12,2*%
%TO.N,Net-(A1-GPIO27_ADC1)*%
X130500000Y-58000000D03*
%TD*%
D16*
%TO.P,J6,1,Pin_1*%
%TO.N,ROT_CLK*%
X94750000Y-83410000D03*
D17*
%TO.P,J6,2,Pin_2*%
%TO.N,ROT_DT*%
X94750000Y-80870000D03*
%TO.P,J6,3,Pin_3*%
%TO.N,ROT_SW*%
X94750000Y-78330000D03*
%TO.P,J6,4,Pin_4*%
%TO.N,+3.3V*%
X94750000Y-75790000D03*
%TO.P,J6,5,Pin_5*%
%TO.N,GND*%
X94750000Y-73250000D03*
%TD*%
D16*
%TO.P,J5,1,Pin_1*%
%TO.N,GND*%
X135250000Y-43000000D03*
D17*
%TO.P,J5,2,Pin_2*%
%TO.N,+Vbus*%
X132710000Y-43000000D03*
%TO.P,J5,3,Pin_3*%
%TO.N,GND*%
X130170000Y-43000000D03*
%TD*%
D19*
%TO.P,Q1,1,E*%
%TO.N,GND*%
X57000000Y-53080000D03*
D20*
%TO.P,Q1,2,B*%
%TO.N,Net-(Q1-B)*%
X57000000Y-50540000D03*
%TO.P,Q1,3,C*%
%TO.N,AUDIO_R*%
X57000000Y-48000000D03*
%TD*%
D23*
%TO.P,RV1,1,1*%
%TO.N,Net-(R11-Pad1)*%
X55250000Y-36500000D03*
D24*
%TO.P,RV1,2,2*%
%TO.N,AD_FFT_AUDIO*%
X57750000Y-34000000D03*
%TO.P,RV1,3,3*%
X55250000Y-31500000D03*
%TD*%
D13*
%TO.P,R3,1*%
%TO.N,GND*%
X68000000Y-64660000D03*
%TO.P,R3,2*%
%TO.N,AUDIO_R*%
X68000000Y-54500000D03*
%TD*%
D16*
%TO.P,J3,1,Pin_1*%
%TO.N,Net-(J3-Pin_1)*%
X60750000Y-83740000D03*
D17*
%TO.P,J3,2,Pin_2*%
%TO.N,Net-(J3-Pin_2)*%
X58210000Y-83740000D03*
%TO.P,J3,3,Pin_3*%
%TO.N,Net-(J3-Pin_3)*%
X55670000Y-83740000D03*
%TD*%
D16*
%TO.P,J4,1,Pin_1*%
%TO.N,+Vbus*%
X89500000Y-35250000D03*
D17*
%TO.P,J4,2,Pin_2*%
%TO.N,AUDIO_L*%
X89500000Y-37790000D03*
%TO.P,J4,3,Pin_3*%
%TO.N,AUDIO_R*%
X89500000Y-40330000D03*
%TO.P,J4,4,Pin_4*%
%TO.N,GND*%
X89500000Y-42870000D03*
%TD*%
D16*
%TO.P,L2,1,1*%
%TO.N,Net-(J3-Pin_1)*%
X66000000Y-83740000D03*
D17*
%TO.P,L2,2,2*%
%TO.N,GND*%
X68540000Y-83740000D03*
%TD*%
D18*
%TO.P,C10,1*%
%TO.N,Net-(U1-VDD)*%
X88500000Y-60195113D03*
D13*
%TO.P,C10,2*%
%TO.N,GND*%
X88500000Y-57695113D03*
%TD*%
%TO.P,C9,1*%
%TO.N,GND*%
X87500000Y-63490000D03*
%TO.P,C9,2*%
%TO.N,Net-(U1-VDD)*%
X87500000Y-68490000D03*
%TD*%
%TO.P,R7,1*%
%TO.N,Net-(U3B--)*%
X71250000Y-40000000D03*
%TO.P,R7,2*%
%TO.N,AUDIO_L*%
X71250000Y-50160000D03*
%TD*%
%TO.P,R14,1*%
%TO.N,BUZZER*%
X125750000Y-81410000D03*
%TO.P,R14,2*%
%TO.N,Net-(Q3-B)*%
X125750000Y-71250000D03*
%TD*%
%TO.P,L3,1,1*%
%TO.N,GND*%
X63170000Y-71740000D03*
%TO.P,L3,2,2*%
%TO.N,Net-(U1-FMI)*%
X73330000Y-71740000D03*
%TD*%
%TO.P,L1,1,1*%
%TO.N,Net-(J3-Pin_3)*%
X63090000Y-75240000D03*
%TO.P,L1,2,2*%
%TO.N,GND*%
X73250000Y-75240000D03*
%TD*%
%TO.P,L4,1,1*%
%TO.N,Net-(U1-VDD)*%
X85500000Y-71990000D03*
%TO.P,L4,2,2*%
%TO.N,+3.3V*%
X85500000Y-82150000D03*
%TD*%
D25*
%TO.P,U3,1*%
%TO.N,N/C*%
X76880000Y-35170000D03*
D13*
%TO.P,U3,2*%
X76880000Y-37710000D03*
%TO.P,U3,3*%
X76880000Y-40250000D03*
%TO.P,U3,4,V+*%
%TO.N,+3.3V*%
X76880000Y-42790000D03*
%TO.P,U3,5,+*%
%TO.N,Net-(U3B-+)*%
X76880000Y-45330000D03*
%TO.P,U3,6,-*%
%TO.N,Net-(U3B--)*%
X76880000Y-47870000D03*
%TO.P,U3,7*%
%TO.N,AD_FFT_AUDIO*%
X76880000Y-50410000D03*
%TO.P,U3,8*%
%TO.N,N/C*%
X84500000Y-50410000D03*
%TO.P,U3,9*%
X84500000Y-47870000D03*
%TO.P,U3,10*%
X84500000Y-45330000D03*
%TO.P,U3,11,V-*%
%TO.N,GND*%
X84500000Y-42790000D03*
%TO.P,U3,12*%
%TO.N,N/C*%
X84500000Y-40250000D03*
%TO.P,U3,13*%
X84500000Y-37710000D03*
%TO.P,U3,14*%
X84500000Y-35170000D03*
%TD*%
D22*
%TO.P,TP2,1,1*%
%TO.N,AD_FFT_AUDIO*%
X74500000Y-32000000D03*
%TD*%
D13*
%TO.P,C6,1*%
%TO.N,Net-(U1-GPO3{slash}DCLK)*%
X75900000Y-65990000D03*
%TO.P,C6,2*%
%TO.N,GND*%
X75900000Y-63490000D03*
%TD*%
%TO.P,R9,1*%
%TO.N,Net-(U3B-+)*%
X74420000Y-54500000D03*
%TO.P,R9,2*%
%TO.N,+3.3V*%
X84580000Y-54500000D03*
%TD*%
%TO.P,R8,1*%
%TO.N,Net-(U3B-+)*%
X74250000Y-40000000D03*
%TO.P,R8,2*%
%TO.N,Net-(U3B--)*%
X74250000Y-50160000D03*
%TD*%
D26*
%TO.P,J1,1,Pin_1*%
%TO.N,GND*%
X57000000Y-64990000D03*
D27*
%TO.P,J1,2,Pin_2*%
%TO.N,Net-(J1-Pin_2)*%
X57000000Y-68490000D03*
%TD*%
D16*
%TO.P,SW1,1,1*%
%TO.N,GND*%
X125000000Y-47975000D03*
D17*
%TO.P,SW1,2,2*%
%TO.N,Net-(A1-RUN)*%
X125000000Y-50515000D03*
%TD*%
D13*
%TO.P,R1,1*%
%TO.N,AUDIO_MUTE*%
X61000000Y-60250000D03*
%TO.P,R1,2*%
%TO.N,Net-(Q1-B)*%
X61000000Y-50090000D03*
%TD*%
D28*
%TO.P,C11,1*%
%TO.N,+Vbus*%
X130000000Y-35250000D03*
D13*
%TO.P,C11,2*%
%TO.N,GND*%
X130000000Y-37750000D03*
%TD*%
D22*
%TO.P,TP1,1,1*%
%TO.N,Net-(C7-Pad2)*%
X55250000Y-43750000D03*
%TD*%
D13*
%TO.P,R11,1*%
%TO.N,Net-(R11-Pad1)*%
X61090000Y-36500000D03*
%TO.P,R11,2*%
%TO.N,Net-(U3B--)*%
X71250000Y-36500000D03*
%TD*%
%TO.P,C7,1*%
%TO.N,Net-(C7-Pad1)*%
X65250000Y-43750000D03*
%TO.P,C7,2*%
%TO.N,Net-(C7-Pad2)*%
X60250000Y-43750000D03*
%TD*%
%TO.P,R5,1*%
%TO.N,Net-(U3B--)*%
X68000000Y-40000000D03*
%TO.P,R5,2*%
%TO.N,AUDIO_R*%
X68000000Y-50160000D03*
%TD*%
D19*
%TO.P,Q3,1,E*%
%TO.N,GND*%
X130250000Y-81500000D03*
D20*
%TO.P,Q3,2,B*%
%TO.N,Net-(Q3-B)*%
X130250000Y-78960000D03*
%TO.P,Q3,3,C*%
%TO.N,Net-(BZ1--)*%
X130250000Y-76420000D03*
%TD*%
D29*
%TO.P,Y1,1,1*%
%TO.N,Net-(U1-RCLK)*%
X80400000Y-65990000D03*
%TO.P,Y1,2,2*%
%TO.N,Net-(U1-GPO3{slash}DCLK)*%
X78500000Y-65990000D03*
%TD*%
D13*
%TO.P,C8,1*%
%TO.N,GND*%
X83500000Y-63490000D03*
%TO.P,C8,2*%
%TO.N,Net-(U1-RCLK)*%
X83500000Y-65990000D03*
%TD*%
%TO.P,C2,1*%
%TO.N,Net-(J2-Pin_2)*%
X65750000Y-78240000D03*
%TO.P,C2,2*%
%TO.N,Net-(J3-Pin_2)*%
X68250000Y-78240000D03*
%TD*%
D26*
%TO.P,J2,1,Pin_1*%
%TO.N,GND*%
X57250000Y-74740000D03*
D27*
%TO.P,J2,2,Pin_2*%
%TO.N,Net-(J2-Pin_2)*%
X57250000Y-78240000D03*
%TD*%
D18*
%TO.P,C4,1*%
%TO.N,Net-(U1-ROUT{slash}DOUT)*%
X82500000Y-60240000D03*
D13*
%TO.P,C4,2*%
%TO.N,AUDIO_R*%
X82500000Y-57740000D03*
%TD*%
D30*
%TO.N,+3.3V*%
X99000000Y-67000000D02*
X100500000Y-67000000D01*
X95000000Y-68290000D02*
X97710000Y-68290000D01*
D31*
X100500000Y-67000000D02*
X103500000Y-67000000D01*
D30*
X81000000Y-45000000D02*
X81000000Y-52750000D01*
X112000000Y-47250000D02*
X113880000Y-45370000D01*
X78790000Y-42790000D02*
X81000000Y-45000000D01*
X92710000Y-68290000D02*
X95000000Y-68290000D01*
X85500000Y-82150000D02*
X85500000Y-78750000D01*
X112000000Y-61500000D02*
X112000000Y-47250000D01*
X106500000Y-67000000D02*
X103500000Y-67000000D01*
X97710000Y-68290000D02*
X99000000Y-67000000D01*
X106500000Y-67000000D02*
X112000000Y-61500000D01*
X91750000Y-69250000D02*
X92710000Y-68290000D01*
X113880000Y-45370000D02*
X119750000Y-45370000D01*
X88250000Y-76000000D02*
X91750000Y-76000000D01*
X82750000Y-54500000D02*
X84580000Y-54500000D01*
X76880000Y-42790000D02*
X78790000Y-42790000D01*
X91750000Y-76000000D02*
X91750000Y-69250000D01*
X81000000Y-52750000D02*
X82750000Y-54500000D01*
X85500000Y-78750000D02*
X88250000Y-76000000D01*
X95000000Y-75920000D02*
X91830000Y-75920000D01*
X91830000Y-75920000D02*
X91750000Y-76000000D01*
D31*
%TO.N,/DC*%
X98198000Y-58052000D02*
X98198000Y-47552000D01*
X98000000Y-58250000D02*
X98198000Y-58052000D01*
X95080000Y-58250000D02*
X98000000Y-58250000D01*
X95000000Y-58330000D02*
X95080000Y-58250000D01*
X100380000Y-45370000D02*
X101970000Y-45370000D01*
X98198000Y-47552000D02*
X100380000Y-45370000D01*
D30*
%TO.N,GND*%
X67850000Y-64990000D02*
X68000000Y-64840000D01*
X134500000Y-45000000D02*
X130750000Y-45000000D01*
X53250000Y-54000000D02*
X54170000Y-53080000D01*
X53500000Y-60250000D02*
X57000000Y-60250000D01*
X83500000Y-63490000D02*
X75900000Y-63490000D01*
X79000000Y-33750000D02*
X78750000Y-33500000D01*
X53750000Y-64990000D02*
X57000000Y-64990000D01*
X97120000Y-73380000D02*
X99750000Y-70750000D01*
X130170000Y-44420000D02*
X130170000Y-43000000D01*
X76000000Y-33500000D02*
X75500000Y-34000000D01*
X73250000Y-34000000D02*
X72750000Y-33500000D01*
X53250000Y-85000000D02*
X53250000Y-74740000D01*
X83500000Y-63490000D02*
X87500000Y-63490000D01*
X130250000Y-85000000D02*
X128901000Y-86349000D01*
X53250000Y-65490000D02*
X53250000Y-60000000D01*
X68540000Y-85460000D02*
X68540000Y-83740000D01*
X75500000Y-34000000D02*
X73250000Y-34000000D01*
X127475000Y-47975000D02*
X133000000Y-53500000D01*
X63170000Y-71740000D02*
X66240000Y-71740000D01*
X72750000Y-33500000D02*
X71250000Y-33500000D01*
X125000000Y-40250000D02*
X125000000Y-38750000D01*
X130170000Y-43000000D02*
X130170000Y-37920000D01*
X71250000Y-64750000D02*
X72750000Y-64750000D01*
X130170000Y-37920000D02*
X130000000Y-37750000D01*
X125750000Y-63150000D02*
X123900000Y-63150000D01*
X125000000Y-47975000D02*
X127475000Y-47975000D01*
D31*
X68250000Y-64930000D02*
X68340000Y-64840000D01*
D30*
X126000000Y-37750000D02*
X130000000Y-37750000D01*
X86500000Y-61500000D02*
X86500000Y-58740000D01*
X71160000Y-64840000D02*
X71250000Y-64750000D01*
X53250000Y-60000000D02*
X53250000Y-54000000D01*
X72750000Y-64750000D02*
X74010000Y-63490000D01*
X119790000Y-63110000D02*
X119750000Y-63150000D01*
X54599000Y-86349000D02*
X53250000Y-85000000D01*
D31*
X68000000Y-64930000D02*
X68250000Y-64930000D01*
D30*
X53250000Y-60000000D02*
X53500000Y-60250000D01*
X125750000Y-68160000D02*
X125750000Y-63150000D01*
X57000000Y-64990000D02*
X67850000Y-64990000D01*
X81540000Y-42790000D02*
X79000000Y-40250000D01*
X68500000Y-85500000D02*
X68540000Y-85460000D01*
X124960000Y-40290000D02*
X125000000Y-40250000D01*
X78750000Y-33500000D02*
X76000000Y-33500000D01*
X113350000Y-63150000D02*
X119750000Y-63150000D01*
X66240000Y-71740000D02*
X69740000Y-75240000D01*
X125000000Y-47975000D02*
X124935000Y-47910000D01*
X125000000Y-38750000D02*
X126000000Y-37750000D01*
X89500000Y-44500000D02*
X87102000Y-46898000D01*
X119750000Y-40290000D02*
X124960000Y-40290000D01*
X53250000Y-74740000D02*
X53250000Y-65490000D01*
X133000000Y-60000000D02*
X129850000Y-63150000D01*
X53250000Y-74740000D02*
X57250000Y-74740000D01*
X133660000Y-68160000D02*
X136000000Y-70500000D01*
X132250000Y-81500000D02*
X130250000Y-81500000D01*
X87056676Y-56251789D02*
X88500000Y-57695113D01*
X79000000Y-40250000D02*
X79000000Y-33750000D01*
X86500000Y-58740000D02*
X87544887Y-57695113D01*
X63170000Y-71740000D02*
X62000000Y-71740000D01*
X99770000Y-70770000D02*
X101970000Y-70770000D01*
X87500000Y-63490000D02*
X87500000Y-62500000D01*
X135250000Y-44250000D02*
X134500000Y-45000000D01*
X125000000Y-43000000D02*
X125000000Y-47975000D01*
X54170000Y-53080000D02*
X57000000Y-53080000D01*
X125000000Y-40250000D02*
X125000000Y-43000000D01*
X133000000Y-53500000D02*
X133000000Y-60000000D01*
X133660000Y-68160000D02*
X125750000Y-68160000D01*
X130750000Y-45000000D02*
X130170000Y-44420000D01*
X68000000Y-64840000D02*
X71160000Y-64840000D01*
X99750000Y-70750000D02*
X99770000Y-70770000D01*
X68500000Y-86349000D02*
X68500000Y-85500000D01*
X101970000Y-70770000D02*
X105730000Y-70770000D01*
X89500000Y-42870000D02*
X89500000Y-44500000D01*
X68500000Y-86349000D02*
X54599000Y-86349000D01*
X135250000Y-43000000D02*
X135250000Y-44250000D01*
X53250000Y-65490000D02*
X53750000Y-64990000D01*
X59000000Y-74740000D02*
X57250000Y-74740000D01*
X124935000Y-47910000D02*
X119750000Y-47910000D01*
X87102000Y-56206464D02*
X87056676Y-56251789D01*
X129850000Y-63150000D02*
X125750000Y-63150000D01*
X87544887Y-57695113D02*
X88500000Y-57695113D01*
X128901000Y-86349000D02*
X68500000Y-86349000D01*
X74010000Y-63490000D02*
X75900000Y-63490000D01*
X87102000Y-46898000D02*
X87102000Y-56206464D01*
X105730000Y-70770000D02*
X113350000Y-63150000D01*
X95000000Y-73380000D02*
X97120000Y-73380000D01*
X69740000Y-75240000D02*
X73250000Y-75240000D01*
X130250000Y-81500000D02*
X130250000Y-85000000D01*
X84500000Y-42790000D02*
X81540000Y-42790000D01*
X123900000Y-63150000D02*
X119750000Y-63150000D01*
X136000000Y-77750000D02*
X132250000Y-81500000D01*
X87500000Y-62500000D02*
X86500000Y-61500000D01*
X62000000Y-71740000D02*
X59000000Y-74740000D01*
X136000000Y-70500000D02*
X136000000Y-77750000D01*
D31*
%TO.N,/CS*%
X95000000Y-63410000D02*
X95160000Y-63250000D01*
X100010000Y-52990000D02*
X101970000Y-52990000D01*
X99000000Y-54000000D02*
X100010000Y-52990000D01*
X98750000Y-63250000D02*
X99000000Y-63000000D01*
X99000000Y-63000000D02*
X99000000Y-54000000D01*
X95160000Y-63250000D02*
X98750000Y-63250000D01*
%TO.N,ROT_SW*%
X92500000Y-84500000D02*
X92500000Y-79250000D01*
X93290000Y-78460000D02*
X95000000Y-78460000D01*
X118405000Y-83470000D02*
X116625000Y-85250000D01*
X93250000Y-85250000D02*
X92500000Y-84500000D01*
X92500000Y-79250000D02*
X93290000Y-78460000D01*
X116625000Y-85250000D02*
X93250000Y-85250000D01*
X119750000Y-83470000D02*
X118405000Y-83470000D01*
%TO.N,AD_FFT_AUDIO*%
X57750000Y-34000000D02*
X57750000Y-31500000D01*
X74000000Y-31500000D02*
X74500000Y-32000000D01*
X57750000Y-31500000D02*
X55250000Y-31500000D01*
X57750000Y-31500000D02*
X74000000Y-31500000D01*
%TO.N,Net-(A1-GPIO27_ADC1)*%
X125570000Y-58070000D02*
X125750000Y-58250000D01*
X130410000Y-58250000D02*
X130500000Y-58160000D01*
X125750000Y-58000000D02*
X130500000Y-58000000D01*
X119750000Y-58070000D02*
X125680000Y-58070000D01*
X125680000Y-58070000D02*
X125750000Y-58000000D01*
%TO.N,BUZZER*%
X119860000Y-78500000D02*
X119750000Y-78390000D01*
X125750000Y-81410000D02*
X125750000Y-79000000D01*
X125140000Y-78390000D02*
X119750000Y-78390000D01*
X125750000Y-79000000D02*
X125140000Y-78390000D01*
%TO.N,/RST*%
X95120000Y-60750000D02*
X98250000Y-60750000D01*
X95000000Y-60870000D02*
X95120000Y-60750000D01*
X98250000Y-60750000D02*
X98599000Y-60401000D01*
X100300000Y-50450000D02*
X101970000Y-50450000D01*
X98599000Y-60401000D02*
X98599000Y-52151000D01*
X98599000Y-52151000D02*
X100300000Y-50450000D01*
D30*
%TO.N,+Vbus*%
X135000000Y-47840000D02*
X135000000Y-61000000D01*
X89500000Y-33750000D02*
X90500000Y-32750000D01*
X130500000Y-47840000D02*
X135000000Y-47840000D01*
X90500000Y-32750000D02*
X118500000Y-32750000D01*
X118500000Y-32750000D02*
X119750000Y-34000000D01*
X133750000Y-62250000D02*
X133750000Y-63950000D01*
X135250000Y-47840000D02*
X137750000Y-45340000D01*
X132710000Y-36710000D02*
X131250000Y-35250000D01*
X125000000Y-35250000D02*
X119790000Y-35250000D01*
X119750000Y-34000000D02*
X119750000Y-35210000D01*
X131250000Y-35250000D02*
X129750000Y-35250000D01*
X136750000Y-39750000D02*
X132710000Y-39750000D01*
X137750000Y-40750000D02*
X136750000Y-39750000D01*
X130000000Y-35250000D02*
X125000000Y-35250000D01*
X135000000Y-61000000D02*
X133750000Y-62250000D01*
X119790000Y-35250000D02*
X119750000Y-35210000D01*
X135000000Y-47840000D02*
X135250000Y-47840000D01*
X89500000Y-35250000D02*
X89500000Y-33750000D01*
X137750000Y-45340000D02*
X137750000Y-40750000D01*
X132710000Y-43000000D02*
X132710000Y-36710000D01*
D31*
%TO.N,/SDI*%
X93250000Y-55040000D02*
X93800000Y-55590000D01*
X93440000Y-40350000D02*
X93250000Y-40540000D01*
X93800000Y-55590000D02*
X95000000Y-55590000D01*
X96770000Y-40350000D02*
X93440000Y-40350000D01*
X93250000Y-40540000D02*
X93250000Y-55040000D01*
X99250000Y-42830000D02*
X96770000Y-40350000D01*
X101970000Y-42830000D02*
X99250000Y-42830000D01*
%TO.N,/SCK*%
X94010000Y-53050000D02*
X93750000Y-52790000D01*
X95000000Y-53050000D02*
X94010000Y-53050000D01*
X93750000Y-45540000D02*
X93860000Y-45430000D01*
X93860000Y-45430000D02*
X95000000Y-45430000D01*
X93750000Y-52790000D02*
X93750000Y-45540000D01*
X102010000Y-40250000D02*
X101970000Y-40290000D01*
%TO.N,AUDIO_MUTE*%
X64420000Y-60250000D02*
X64500000Y-60330000D01*
X61000000Y-60250000D02*
X64420000Y-60250000D01*
%TO.N,Net-(A1-RUN)*%
X119750000Y-50450000D02*
X124935000Y-50450000D01*
X124935000Y-50450000D02*
X125000000Y-50515000D01*
X125660000Y-50450000D02*
X125750000Y-50540000D01*
%TO.N,ROT_DT*%
X95000000Y-81000000D02*
X101900000Y-81000000D01*
X101910000Y-80870000D02*
X101970000Y-80930000D01*
X101900000Y-81000000D02*
X101970000Y-80930000D01*
%TO.N,ROT_CLK*%
X101970000Y-83470000D02*
X95070000Y-83470000D01*
X95070000Y-83470000D02*
X95000000Y-83540000D01*
X101910000Y-83410000D02*
X101970000Y-83470000D01*
%TO.N,Net-(U1-GPO3{slash}DCLK)*%
X75900000Y-65990000D02*
X78750000Y-65990000D01*
%TO.N,Net-(U1-RCLK)*%
X83500000Y-65990000D02*
X80650000Y-65990000D01*
%TO.N,Net-(U3B--)*%
X73870000Y-47870000D02*
X71250000Y-45250000D01*
X71250000Y-36500000D02*
X71250000Y-40000000D01*
X71080000Y-39830000D02*
X71250000Y-40000000D01*
X76880000Y-47870000D02*
X74250000Y-47870000D01*
X71160000Y-40000000D02*
X71250000Y-40090000D01*
X65250000Y-40000000D02*
X68000000Y-40000000D01*
X74250000Y-47870000D02*
X73870000Y-47870000D01*
X68000000Y-40000000D02*
X71160000Y-40000000D01*
X74250000Y-50330000D02*
X74250000Y-47870000D01*
X71250000Y-45250000D02*
X71250000Y-40090000D01*
%TO.N,AUDIO_R*%
X89420000Y-40250000D02*
X89500000Y-40330000D01*
X87250000Y-40250000D02*
X89420000Y-40250000D01*
X82500000Y-57740000D02*
X81193887Y-59046113D01*
X68000000Y-58250000D02*
X68000000Y-49000000D01*
X68000000Y-49000000D02*
X67000000Y-48000000D01*
X84577100Y-57740000D02*
X86401000Y-55916100D01*
X81193887Y-59046113D02*
X68796113Y-59046113D01*
X68796113Y-59046113D02*
X68000000Y-58250000D01*
X67000000Y-48000000D02*
X57000000Y-48000000D01*
X82500000Y-57740000D02*
X84577100Y-57740000D01*
X86401000Y-55916100D02*
X86401000Y-41099000D01*
X86401000Y-41099000D02*
X87250000Y-40250000D01*
%TO.N,AUDIO_L*%
X85500000Y-56250000D02*
X86000000Y-55750000D01*
X86000000Y-55750000D02*
X86000000Y-39000000D01*
X76500000Y-56750000D02*
X77000000Y-56250000D01*
X71250000Y-57000000D02*
X71250000Y-54590000D01*
X87210000Y-37790000D02*
X89500000Y-37790000D01*
X77000000Y-56250000D02*
X85500000Y-56250000D01*
X72195113Y-57945113D02*
X71250000Y-57000000D01*
X86000000Y-39000000D02*
X87210000Y-37790000D01*
X71250000Y-54590000D02*
X71250000Y-50250000D01*
X76500000Y-57945113D02*
X72195113Y-57945113D01*
X76500000Y-57945113D02*
X76500000Y-56750000D01*
%TO.N,Net-(Q1-B)*%
X61000000Y-50090000D02*
X59160000Y-50090000D01*
X59160000Y-50090000D02*
X58710000Y-50540000D01*
X58710000Y-50540000D02*
X57000000Y-50540000D01*
%TO.N,Net-(Q2-B)*%
X64500000Y-56250000D02*
X63040000Y-57710000D01*
X63040000Y-57710000D02*
X57000000Y-57710000D01*
X64500000Y-50170000D02*
X64500000Y-56250000D01*
%TO.N,Net-(J3-Pin_2)*%
X59000000Y-80500000D02*
X67250000Y-80500000D01*
X67250000Y-80500000D02*
X68250000Y-79500000D01*
X68250000Y-78240000D02*
X69500000Y-78240000D01*
X58210000Y-81290000D02*
X59000000Y-80500000D01*
X68250000Y-79500000D02*
X68250000Y-78240000D01*
X69500000Y-78240000D02*
X70750000Y-78240000D01*
X58210000Y-83740000D02*
X58210000Y-81290000D01*
%TO.N,/SDO*%
X96690000Y-37810000D02*
X99290000Y-35210000D01*
X95000000Y-37810000D02*
X96690000Y-37810000D01*
X99290000Y-35210000D02*
X101970000Y-35210000D01*
%TO.N,Net-(U1-FMI)*%
X73250000Y-68490000D02*
X73250000Y-71660000D01*
X73250000Y-71660000D02*
X73330000Y-71740000D01*
%TO.N,Net-(J2-Pin_2)*%
X57250000Y-78240000D02*
X65750000Y-78240000D01*
%TO.N,Net-(U3B-+)*%
X75580000Y-45330000D02*
X76880000Y-45330000D01*
X77750000Y-54500000D02*
X78750000Y-53500000D01*
X74420000Y-54500000D02*
X77750000Y-54500000D01*
X74250000Y-40000000D02*
X74250000Y-37250000D01*
X65750000Y-33500000D02*
X61090000Y-33500000D01*
X78080000Y-45330000D02*
X76880000Y-45330000D01*
X78750000Y-46000000D02*
X78080000Y-45330000D01*
X72000000Y-35000000D02*
X67250000Y-35000000D01*
X67250000Y-35000000D02*
X65750000Y-33500000D01*
X74250000Y-37250000D02*
X72000000Y-35000000D01*
X74250000Y-44000000D02*
X75580000Y-45330000D01*
X74250000Y-40170000D02*
X74250000Y-44000000D01*
X78750000Y-53500000D02*
X78750000Y-46000000D01*
%TO.N,Net-(BZ1--)*%
X130250000Y-76420000D02*
X130250000Y-73000000D01*
X130250000Y-73000000D02*
X131700000Y-71550000D01*
X131700000Y-71550000D02*
X133750000Y-71550000D01*
%TO.N,Net-(Q3-B)*%
X128460000Y-78960000D02*
X130250000Y-78960000D01*
X125750000Y-76250000D02*
X128460000Y-78960000D01*
X125750000Y-71250000D02*
X125750000Y-76250000D01*
%TO.N,Net-(J1-Pin_2)*%
X57000000Y-68490000D02*
X70750000Y-68490000D01*
%TO.N,Net-(C7-Pad1)*%
X62750000Y-43750000D02*
X65250000Y-43750000D01*
X59000000Y-40000000D02*
X62750000Y-43750000D01*
X55090000Y-40000000D02*
X59000000Y-40000000D01*
%TO.N,Net-(C7-Pad2)*%
X55250000Y-43750000D02*
X60250000Y-43750000D01*
%TO.N,Net-(U1-VDD)*%
X88500000Y-60195113D02*
X89000000Y-60695113D01*
X86750000Y-71990000D02*
X87500000Y-71240000D01*
X88500000Y-61990000D02*
X88500000Y-60195113D01*
X89000000Y-62490000D02*
X88500000Y-61990000D01*
X89000000Y-65740000D02*
X87500000Y-67240000D01*
X87500000Y-67240000D02*
X87500000Y-68490000D01*
X85500000Y-71990000D02*
X86750000Y-71990000D01*
X89000000Y-65740000D02*
X89000000Y-62490000D01*
X87500000Y-71240000D02*
X87500000Y-68490000D01*
%TO.N,Net-(J3-Pin_1)*%
X66000000Y-83740000D02*
X60750000Y-83740000D01*
%TO.N,Net-(J3-Pin_3)*%
X55750000Y-76490000D02*
X60000000Y-76490000D01*
X54750000Y-77490000D02*
X55750000Y-76490000D01*
X55670000Y-80420000D02*
X54750000Y-79500000D01*
X61250000Y-75240000D02*
X63090000Y-75240000D01*
X60000000Y-76490000D02*
X61250000Y-75240000D01*
X55670000Y-83740000D02*
X55670000Y-80420000D01*
X54750000Y-79500000D02*
X54750000Y-77490000D01*
%TO.N,Net-(R11-Pad1)*%
X60670000Y-36500000D02*
X60920000Y-36750000D01*
X55250000Y-36500000D02*
X61090000Y-36500000D01*
%TD*%
M02*
