%TF.GenerationSoftware,KiCad,Pcbnew,9.0.6*%
%TF.CreationDate,2025-12-25T20:25:13+01:00*%
%TF.ProjectId,pico-radio-9,7069636f-2d72-4616-9469-6f2d392e6b69,rev?*%
%TF.SameCoordinates,Original*%
%TF.FileFunction,Copper,L2,Bot*%
%TF.FilePolarity,Positive*%
%FSLAX46Y46*%
G04 Gerber Fmt 4.6, Leading zero omitted, Abs format (unit mm)*
G04 Created by KiCad (PCBNEW 9.0.6) date 2025-12-25 20:25:13*
%MOMM*%
%LPD*%
G01*
G04 APERTURE LIST*
G04 Aperture macros list*
%AMRoundRect*
0 Rectangle with rounded corners*
0 $1 Rounding radius*
0 $2 $3 $4 $5 $6 $7 $8 $9 X,Y pos of 4 corners*
0 Add a 4 corners polygon primitive as box body*
4,1,4,$2,$3,$4,$5,$6,$7,$8,$9,$2,$3,0*
0 Add four circle primitives for the rounded corners*
1,1,$1+$1,$2,$3*
1,1,$1+$1,$4,$5*
1,1,$1+$1,$6,$7*
1,1,$1+$1,$8,$9*
0 Add four rect primitives between the rounded corners*
20,1,$1+$1,$2,$3,$4,$5,0*
20,1,$1+$1,$4,$5,$6,$7,0*
20,1,$1+$1,$6,$7,$8,$9,0*
20,1,$1+$1,$8,$9,$2,$3,0*%
%AMFreePoly0*
4,1,37,0.603843,0.796157,0.639018,0.796157,0.711114,0.766294,0.766294,0.711114,0.796157,0.639018,0.796157,0.603843,0.800000,0.600000,0.800000,-0.600000,0.796157,-0.603843,0.796157,-0.639018,0.766294,-0.711114,0.711114,-0.766294,0.639018,-0.796157,0.603843,-0.796157,0.600000,-0.800000,0.000000,-0.800000,0.000000,-0.796148,-0.078414,-0.796148,-0.232228,-0.765552,-0.377117,-0.705537,
-0.507515,-0.618408,-0.618408,-0.507515,-0.705537,-0.377117,-0.765552,-0.232228,-0.796148,-0.078414,-0.796148,0.078414,-0.765552,0.232228,-0.705537,0.377117,-0.618408,0.507515,-0.507515,0.618408,-0.377117,0.705537,-0.232228,0.765552,-0.078414,0.796148,0.000000,0.796148,0.000000,0.800000,0.600000,0.800000,0.603843,0.796157,0.603843,0.796157,$1*%
%AMFreePoly1*
4,1,37,0.000000,0.796148,0.078414,0.796148,0.232228,0.765552,0.377117,0.705537,0.507515,0.618408,0.618408,0.507515,0.705537,0.377117,0.765552,0.232228,0.796148,0.078414,0.796148,-0.078414,0.765552,-0.232228,0.705537,-0.377117,0.618408,-0.507515,0.507515,-0.618408,0.377117,-0.705537,0.232228,-0.765552,0.078414,-0.796148,0.000000,-0.796148,0.000000,-0.800000,-0.600000,-0.800000,
-0.603843,-0.796157,-0.639018,-0.796157,-0.711114,-0.766294,-0.766294,-0.711114,-0.796157,-0.639018,-0.796157,-0.603843,-0.800000,-0.600000,-0.800000,0.600000,-0.796157,0.603843,-0.796157,0.639018,-0.766294,0.711114,-0.711114,0.766294,-0.639018,0.796157,-0.603843,0.796157,-0.600000,0.800000,0.000000,0.800000,0.000000,0.796148,0.000000,0.796148,$1*%
%AMFreePoly2*
4,1,23,0.550000,-0.750000,0.000000,-0.750000,0.000000,-0.745722,-0.065263,-0.745722,-0.191342,-0.711940,-0.304381,-0.646677,-0.396677,-0.554381,-0.461940,-0.441342,-0.495722,-0.315263,-0.495722,-0.250000,-0.500000,-0.250000,-0.500000,0.250000,-0.495722,0.250000,-0.495722,0.315263,-0.461940,0.441342,-0.396677,0.554381,-0.304381,0.646677,-0.191342,0.711940,-0.065263,0.745722,0.000000,0.745722,
0.000000,0.750000,0.550000,0.750000,0.550000,-0.750000,0.550000,-0.750000,$1*%
%AMFreePoly3*
4,1,23,0.000000,0.745722,0.065263,0.745722,0.191342,0.711940,0.304381,0.646677,0.396677,0.554381,0.461940,0.441342,0.495722,0.315263,0.495722,0.250000,0.500000,0.250000,0.500000,-0.250000,0.495722,-0.250000,0.495722,-0.315263,0.461940,-0.441342,0.396677,-0.554381,0.304381,-0.646677,0.191342,-0.711940,0.065263,-0.745722,0.000000,-0.745722,0.000000,-0.750000,-0.550000,-0.750000,
-0.550000,0.750000,0.000000,0.750000,0.000000,0.745722,0.000000,0.745722,$1*%
%AMFreePoly4*
4,1,23,0.500000,-0.750000,0.000000,-0.750000,0.000000,-0.745722,-0.065263,-0.745722,-0.191342,-0.711940,-0.304381,-0.646677,-0.396677,-0.554381,-0.461940,-0.441342,-0.495722,-0.315263,-0.495722,-0.250000,-0.500000,-0.250000,-0.500000,0.250000,-0.495722,0.250000,-0.495722,0.315263,-0.461940,0.441342,-0.396677,0.554381,-0.304381,0.646677,-0.191342,0.711940,-0.065263,0.745722,0.000000,0.745722,
0.000000,0.750000,0.500000,0.750000,0.500000,-0.750000,0.500000,-0.750000,$1*%
%AMFreePoly5*
4,1,23,0.000000,0.745722,0.065263,0.745722,0.191342,0.711940,0.304381,0.646677,0.396677,0.554381,0.461940,0.441342,0.495722,0.315263,0.495722,0.250000,0.500000,0.250000,0.500000,-0.250000,0.495722,-0.250000,0.495722,-0.315263,0.461940,-0.441342,0.396677,-0.554381,0.304381,-0.646677,0.191342,-0.711940,0.065263,-0.745722,0.000000,-0.745722,0.000000,-0.750000,-0.500000,-0.750000,
-0.500000,0.750000,0.000000,0.750000,0.000000,0.745722,0.000000,0.745722,$1*%
G04 Aperture macros list end*
%ADD10C,0.200000*%
%TA.AperFunction,NonConductor*%
%ADD11C,0.200000*%
%TD*%
%TA.AperFunction,EtchedComponent*%
%ADD12C,0.000000*%
%TD*%
%TA.AperFunction,ComponentPad*%
%ADD13C,1.600000*%
%TD*%
%TA.AperFunction,ComponentPad*%
%ADD14R,1.700000X1.700000*%
%TD*%
%TA.AperFunction,ComponentPad*%
%ADD15C,1.700000*%
%TD*%
%TA.AperFunction,ComponentPad*%
%ADD16R,2.000000X2.000000*%
%TD*%
%TA.AperFunction,ComponentPad*%
%ADD17C,2.000000*%
%TD*%
%TA.AperFunction,ComponentPad*%
%ADD18R,1.500000X1.500000*%
%TD*%
%TA.AperFunction,ComponentPad*%
%ADD19C,1.500000*%
%TD*%
%TA.AperFunction,ComponentPad*%
%ADD20C,1.930400*%
%TD*%
%TA.AperFunction,ComponentPad*%
%ADD21R,1.930400X1.930400*%
%TD*%
%TA.AperFunction,ComponentPad*%
%ADD22RoundRect,0.250000X-0.550000X-0.550000X0.550000X-0.550000X0.550000X0.550000X-0.550000X0.550000X0*%
%TD*%
%TA.AperFunction,ComponentPad*%
%ADD23RoundRect,0.250000X-0.550000X0.550000X-0.550000X-0.550000X0.550000X-0.550000X0.550000X0.550000X0*%
%TD*%
%TA.AperFunction,ComponentPad*%
%ADD24RoundRect,0.250001X-0.949999X0.949999X-0.949999X-0.949999X0.949999X-0.949999X0.949999X0.949999X0*%
%TD*%
%TA.AperFunction,ComponentPad*%
%ADD25C,2.400000*%
%TD*%
%TA.AperFunction,ComponentPad*%
%ADD26RoundRect,0.200000X-0.600000X-0.600000X0.600000X-0.600000X0.600000X0.600000X-0.600000X0.600000X0*%
%TD*%
%TA.AperFunction,ComponentPad*%
%ADD27FreePoly0,0.000000*%
%TD*%
%TA.AperFunction,ComponentPad*%
%ADD28FreePoly1,0.000000*%
%TD*%
%TA.AperFunction,ComponentPad*%
%ADD29R,1.550000X1.550000*%
%TD*%
%TA.AperFunction,ComponentPad*%
%ADD30C,1.550000*%
%TD*%
%TA.AperFunction,ComponentPad*%
%ADD31C,1.000000*%
%TD*%
%TA.AperFunction,SMDPad,CuDef*%
%ADD32FreePoly2,90.000000*%
%TD*%
%TA.AperFunction,SMDPad,CuDef*%
%ADD33R,1.500000X1.000000*%
%TD*%
%TA.AperFunction,SMDPad,CuDef*%
%ADD34FreePoly3,90.000000*%
%TD*%
%TA.AperFunction,SMDPad,CuDef*%
%ADD35FreePoly4,270.000000*%
%TD*%
%TA.AperFunction,SMDPad,CuDef*%
%ADD36FreePoly5,270.000000*%
%TD*%
%TA.AperFunction,SMDPad,CuDef*%
%ADD37R,1.397000X0.558800*%
%TD*%
%TA.AperFunction,Conductor*%
%ADD38C,0.200000*%
%TD*%
%TA.AperFunction,Conductor*%
%ADD39C,0.500000*%
%TD*%
%TA.AperFunction,Conductor*%
%ADD40C,0.800000*%
%TD*%
G04 APERTURE END LIST*
D10*
D11*
X129642856Y-29897331D02*
X129642856Y-28897331D01*
X129642856Y-28897331D02*
X129261904Y-28897331D01*
X129261904Y-28897331D02*
X129166666Y-28944950D01*
X129166666Y-28944950D02*
X129119047Y-28992569D01*
X129119047Y-28992569D02*
X129071428Y-29087807D01*
X129071428Y-29087807D02*
X129071428Y-29230664D01*
X129071428Y-29230664D02*
X129119047Y-29325902D01*
X129119047Y-29325902D02*
X129166666Y-29373521D01*
X129166666Y-29373521D02*
X129261904Y-29421140D01*
X129261904Y-29421140D02*
X129642856Y-29421140D01*
X128642856Y-29897331D02*
X128642856Y-29230664D01*
X128642856Y-28897331D02*
X128690475Y-28944950D01*
X128690475Y-28944950D02*
X128642856Y-28992569D01*
X128642856Y-28992569D02*
X128595237Y-28944950D01*
X128595237Y-28944950D02*
X128642856Y-28897331D01*
X128642856Y-28897331D02*
X128642856Y-28992569D01*
X127738095Y-29849712D02*
X127833333Y-29897331D01*
X127833333Y-29897331D02*
X128023809Y-29897331D01*
X128023809Y-29897331D02*
X128119047Y-29849712D01*
X128119047Y-29849712D02*
X128166666Y-29802092D01*
X128166666Y-29802092D02*
X128214285Y-29706854D01*
X128214285Y-29706854D02*
X128214285Y-29421140D01*
X128214285Y-29421140D02*
X128166666Y-29325902D01*
X128166666Y-29325902D02*
X128119047Y-29278283D01*
X128119047Y-29278283D02*
X128023809Y-29230664D01*
X128023809Y-29230664D02*
X127833333Y-29230664D01*
X127833333Y-29230664D02*
X127738095Y-29278283D01*
X127166666Y-29897331D02*
X127261904Y-29849712D01*
X127261904Y-29849712D02*
X127309523Y-29802092D01*
X127309523Y-29802092D02*
X127357142Y-29706854D01*
X127357142Y-29706854D02*
X127357142Y-29421140D01*
X127357142Y-29421140D02*
X127309523Y-29325902D01*
X127309523Y-29325902D02*
X127261904Y-29278283D01*
X127261904Y-29278283D02*
X127166666Y-29230664D01*
X127166666Y-29230664D02*
X127023809Y-29230664D01*
X127023809Y-29230664D02*
X126928571Y-29278283D01*
X126928571Y-29278283D02*
X126880952Y-29325902D01*
X126880952Y-29325902D02*
X126833333Y-29421140D01*
X126833333Y-29421140D02*
X126833333Y-29706854D01*
X126833333Y-29706854D02*
X126880952Y-29802092D01*
X126880952Y-29802092D02*
X126928571Y-29849712D01*
X126928571Y-29849712D02*
X127023809Y-29897331D01*
X127023809Y-29897331D02*
X127166666Y-29897331D01*
X125071428Y-29897331D02*
X125404761Y-29421140D01*
X125642856Y-29897331D02*
X125642856Y-28897331D01*
X125642856Y-28897331D02*
X125261904Y-28897331D01*
X125261904Y-28897331D02*
X125166666Y-28944950D01*
X125166666Y-28944950D02*
X125119047Y-28992569D01*
X125119047Y-28992569D02*
X125071428Y-29087807D01*
X125071428Y-29087807D02*
X125071428Y-29230664D01*
X125071428Y-29230664D02*
X125119047Y-29325902D01*
X125119047Y-29325902D02*
X125166666Y-29373521D01*
X125166666Y-29373521D02*
X125261904Y-29421140D01*
X125261904Y-29421140D02*
X125642856Y-29421140D01*
X124214285Y-29897331D02*
X124214285Y-29373521D01*
X124214285Y-29373521D02*
X124261904Y-29278283D01*
X124261904Y-29278283D02*
X124357142Y-29230664D01*
X124357142Y-29230664D02*
X124547618Y-29230664D01*
X124547618Y-29230664D02*
X124642856Y-29278283D01*
X124214285Y-29849712D02*
X124309523Y-29897331D01*
X124309523Y-29897331D02*
X124547618Y-29897331D01*
X124547618Y-29897331D02*
X124642856Y-29849712D01*
X124642856Y-29849712D02*
X124690475Y-29754473D01*
X124690475Y-29754473D02*
X124690475Y-29659235D01*
X124690475Y-29659235D02*
X124642856Y-29563997D01*
X124642856Y-29563997D02*
X124547618Y-29516378D01*
X124547618Y-29516378D02*
X124309523Y-29516378D01*
X124309523Y-29516378D02*
X124214285Y-29468759D01*
X123309523Y-29897331D02*
X123309523Y-28897331D01*
X123309523Y-29849712D02*
X123404761Y-29897331D01*
X123404761Y-29897331D02*
X123595237Y-29897331D01*
X123595237Y-29897331D02*
X123690475Y-29849712D01*
X123690475Y-29849712D02*
X123738094Y-29802092D01*
X123738094Y-29802092D02*
X123785713Y-29706854D01*
X123785713Y-29706854D02*
X123785713Y-29421140D01*
X123785713Y-29421140D02*
X123738094Y-29325902D01*
X123738094Y-29325902D02*
X123690475Y-29278283D01*
X123690475Y-29278283D02*
X123595237Y-29230664D01*
X123595237Y-29230664D02*
X123404761Y-29230664D01*
X123404761Y-29230664D02*
X123309523Y-29278283D01*
X122833332Y-29897331D02*
X122833332Y-29230664D01*
X122833332Y-28897331D02*
X122880951Y-28944950D01*
X122880951Y-28944950D02*
X122833332Y-28992569D01*
X122833332Y-28992569D02*
X122785713Y-28944950D01*
X122785713Y-28944950D02*
X122833332Y-28897331D01*
X122833332Y-28897331D02*
X122833332Y-28992569D01*
X122214285Y-29897331D02*
X122309523Y-29849712D01*
X122309523Y-29849712D02*
X122357142Y-29802092D01*
X122357142Y-29802092D02*
X122404761Y-29706854D01*
X122404761Y-29706854D02*
X122404761Y-29421140D01*
X122404761Y-29421140D02*
X122357142Y-29325902D01*
X122357142Y-29325902D02*
X122309523Y-29278283D01*
X122309523Y-29278283D02*
X122214285Y-29230664D01*
X122214285Y-29230664D02*
X122071428Y-29230664D01*
X122071428Y-29230664D02*
X121976190Y-29278283D01*
X121976190Y-29278283D02*
X121928571Y-29325902D01*
X121928571Y-29325902D02*
X121880952Y-29421140D01*
X121880952Y-29421140D02*
X121880952Y-29706854D01*
X121880952Y-29706854D02*
X121928571Y-29802092D01*
X121928571Y-29802092D02*
X121976190Y-29849712D01*
X121976190Y-29849712D02*
X122071428Y-29897331D01*
X122071428Y-29897331D02*
X122214285Y-29897331D01*
X120833332Y-28897331D02*
X120499999Y-29897331D01*
X120499999Y-29897331D02*
X120166666Y-28897331D01*
X119785713Y-29897331D02*
X119595237Y-29897331D01*
X119595237Y-29897331D02*
X119499999Y-29849712D01*
X119499999Y-29849712D02*
X119452380Y-29802092D01*
X119452380Y-29802092D02*
X119357142Y-29659235D01*
X119357142Y-29659235D02*
X119309523Y-29468759D01*
X119309523Y-29468759D02*
X119309523Y-29087807D01*
X119309523Y-29087807D02*
X119357142Y-28992569D01*
X119357142Y-28992569D02*
X119404761Y-28944950D01*
X119404761Y-28944950D02*
X119499999Y-28897331D01*
X119499999Y-28897331D02*
X119690475Y-28897331D01*
X119690475Y-28897331D02*
X119785713Y-28944950D01*
X119785713Y-28944950D02*
X119833332Y-28992569D01*
X119833332Y-28992569D02*
X119880951Y-29087807D01*
X119880951Y-29087807D02*
X119880951Y-29325902D01*
X119880951Y-29325902D02*
X119833332Y-29421140D01*
X119833332Y-29421140D02*
X119785713Y-29468759D01*
X119785713Y-29468759D02*
X119690475Y-29516378D01*
X119690475Y-29516378D02*
X119499999Y-29516378D01*
X119499999Y-29516378D02*
X119404761Y-29468759D01*
X119404761Y-29468759D02*
X119357142Y-29421140D01*
X119357142Y-29421140D02*
X119309523Y-29325902D01*
X126928571Y-30983465D02*
X126785714Y-31031084D01*
X126785714Y-31031084D02*
X126738095Y-31078703D01*
X126738095Y-31078703D02*
X126690476Y-31173941D01*
X126690476Y-31173941D02*
X126690476Y-31316798D01*
X126690476Y-31316798D02*
X126738095Y-31412036D01*
X126738095Y-31412036D02*
X126785714Y-31459656D01*
X126785714Y-31459656D02*
X126880952Y-31507275D01*
X126880952Y-31507275D02*
X127261904Y-31507275D01*
X127261904Y-31507275D02*
X127261904Y-30507275D01*
X127261904Y-30507275D02*
X126928571Y-30507275D01*
X126928571Y-30507275D02*
X126833333Y-30554894D01*
X126833333Y-30554894D02*
X126785714Y-30602513D01*
X126785714Y-30602513D02*
X126738095Y-30697751D01*
X126738095Y-30697751D02*
X126738095Y-30792989D01*
X126738095Y-30792989D02*
X126785714Y-30888227D01*
X126785714Y-30888227D02*
X126833333Y-30935846D01*
X126833333Y-30935846D02*
X126928571Y-30983465D01*
X126928571Y-30983465D02*
X127261904Y-30983465D01*
X126404761Y-30507275D02*
X125833333Y-30507275D01*
X126119047Y-31507275D02*
X126119047Y-30507275D01*
X125499999Y-31126322D02*
X124738095Y-31126322D01*
X124309523Y-31459656D02*
X124166666Y-31507275D01*
X124166666Y-31507275D02*
X123928571Y-31507275D01*
X123928571Y-31507275D02*
X123833333Y-31459656D01*
X123833333Y-31459656D02*
X123785714Y-31412036D01*
X123785714Y-31412036D02*
X123738095Y-31316798D01*
X123738095Y-31316798D02*
X123738095Y-31221560D01*
X123738095Y-31221560D02*
X123785714Y-31126322D01*
X123785714Y-31126322D02*
X123833333Y-31078703D01*
X123833333Y-31078703D02*
X123928571Y-31031084D01*
X123928571Y-31031084D02*
X124119047Y-30983465D01*
X124119047Y-30983465D02*
X124214285Y-30935846D01*
X124214285Y-30935846D02*
X124261904Y-30888227D01*
X124261904Y-30888227D02*
X124309523Y-30792989D01*
X124309523Y-30792989D02*
X124309523Y-30697751D01*
X124309523Y-30697751D02*
X124261904Y-30602513D01*
X124261904Y-30602513D02*
X124214285Y-30554894D01*
X124214285Y-30554894D02*
X124119047Y-30507275D01*
X124119047Y-30507275D02*
X123880952Y-30507275D01*
X123880952Y-30507275D02*
X123738095Y-30554894D01*
X123166666Y-31507275D02*
X123261904Y-31459656D01*
X123261904Y-31459656D02*
X123309523Y-31412036D01*
X123309523Y-31412036D02*
X123357142Y-31316798D01*
X123357142Y-31316798D02*
X123357142Y-31031084D01*
X123357142Y-31031084D02*
X123309523Y-30935846D01*
X123309523Y-30935846D02*
X123261904Y-30888227D01*
X123261904Y-30888227D02*
X123166666Y-30840608D01*
X123166666Y-30840608D02*
X123023809Y-30840608D01*
X123023809Y-30840608D02*
X122928571Y-30888227D01*
X122928571Y-30888227D02*
X122880952Y-30935846D01*
X122880952Y-30935846D02*
X122833333Y-31031084D01*
X122833333Y-31031084D02*
X122833333Y-31316798D01*
X122833333Y-31316798D02*
X122880952Y-31412036D01*
X122880952Y-31412036D02*
X122928571Y-31459656D01*
X122928571Y-31459656D02*
X123023809Y-31507275D01*
X123023809Y-31507275D02*
X123166666Y-31507275D01*
X122547618Y-30840608D02*
X122166666Y-30840608D01*
X122404761Y-31507275D02*
X122404761Y-30650132D01*
X122404761Y-30650132D02*
X122357142Y-30554894D01*
X122357142Y-30554894D02*
X122261904Y-30507275D01*
X122261904Y-30507275D02*
X122166666Y-30507275D01*
X121976189Y-30840608D02*
X121595237Y-30840608D01*
X121833332Y-30507275D02*
X121833332Y-31364417D01*
X121833332Y-31364417D02*
X121785713Y-31459656D01*
X121785713Y-31459656D02*
X121690475Y-31507275D01*
X121690475Y-31507275D02*
X121595237Y-31507275D01*
X128595237Y-32212457D02*
X128547618Y-32164838D01*
X128547618Y-32164838D02*
X128452380Y-32117219D01*
X128452380Y-32117219D02*
X128214285Y-32117219D01*
X128214285Y-32117219D02*
X128119047Y-32164838D01*
X128119047Y-32164838D02*
X128071428Y-32212457D01*
X128071428Y-32212457D02*
X128023809Y-32307695D01*
X128023809Y-32307695D02*
X128023809Y-32402933D01*
X128023809Y-32402933D02*
X128071428Y-32545790D01*
X128071428Y-32545790D02*
X128642856Y-33117219D01*
X128642856Y-33117219D02*
X128023809Y-33117219D01*
X127404761Y-32117219D02*
X127309523Y-32117219D01*
X127309523Y-32117219D02*
X127214285Y-32164838D01*
X127214285Y-32164838D02*
X127166666Y-32212457D01*
X127166666Y-32212457D02*
X127119047Y-32307695D01*
X127119047Y-32307695D02*
X127071428Y-32498171D01*
X127071428Y-32498171D02*
X127071428Y-32736266D01*
X127071428Y-32736266D02*
X127119047Y-32926742D01*
X127119047Y-32926742D02*
X127166666Y-33021980D01*
X127166666Y-33021980D02*
X127214285Y-33069600D01*
X127214285Y-33069600D02*
X127309523Y-33117219D01*
X127309523Y-33117219D02*
X127404761Y-33117219D01*
X127404761Y-33117219D02*
X127499999Y-33069600D01*
X127499999Y-33069600D02*
X127547618Y-33021980D01*
X127547618Y-33021980D02*
X127595237Y-32926742D01*
X127595237Y-32926742D02*
X127642856Y-32736266D01*
X127642856Y-32736266D02*
X127642856Y-32498171D01*
X127642856Y-32498171D02*
X127595237Y-32307695D01*
X127595237Y-32307695D02*
X127547618Y-32212457D01*
X127547618Y-32212457D02*
X127499999Y-32164838D01*
X127499999Y-32164838D02*
X127404761Y-32117219D01*
X126690475Y-32212457D02*
X126642856Y-32164838D01*
X126642856Y-32164838D02*
X126547618Y-32117219D01*
X126547618Y-32117219D02*
X126309523Y-32117219D01*
X126309523Y-32117219D02*
X126214285Y-32164838D01*
X126214285Y-32164838D02*
X126166666Y-32212457D01*
X126166666Y-32212457D02*
X126119047Y-32307695D01*
X126119047Y-32307695D02*
X126119047Y-32402933D01*
X126119047Y-32402933D02*
X126166666Y-32545790D01*
X126166666Y-32545790D02*
X126738094Y-33117219D01*
X126738094Y-33117219D02*
X126119047Y-33117219D01*
X125214285Y-32117219D02*
X125690475Y-32117219D01*
X125690475Y-32117219D02*
X125738094Y-32593409D01*
X125738094Y-32593409D02*
X125690475Y-32545790D01*
X125690475Y-32545790D02*
X125595237Y-32498171D01*
X125595237Y-32498171D02*
X125357142Y-32498171D01*
X125357142Y-32498171D02*
X125261904Y-32545790D01*
X125261904Y-32545790D02*
X125214285Y-32593409D01*
X125214285Y-32593409D02*
X125166666Y-32688647D01*
X125166666Y-32688647D02*
X125166666Y-32926742D01*
X125166666Y-32926742D02*
X125214285Y-33021980D01*
X125214285Y-33021980D02*
X125261904Y-33069600D01*
X125261904Y-33069600D02*
X125357142Y-33117219D01*
X125357142Y-33117219D02*
X125595237Y-33117219D01*
X125595237Y-33117219D02*
X125690475Y-33069600D01*
X125690475Y-33069600D02*
X125738094Y-33021980D01*
X124738094Y-33021980D02*
X124690475Y-33069600D01*
X124690475Y-33069600D02*
X124738094Y-33117219D01*
X124738094Y-33117219D02*
X124785713Y-33069600D01*
X124785713Y-33069600D02*
X124738094Y-33021980D01*
X124738094Y-33021980D02*
X124738094Y-33117219D01*
X123738095Y-33117219D02*
X124309523Y-33117219D01*
X124023809Y-33117219D02*
X124023809Y-32117219D01*
X124023809Y-32117219D02*
X124119047Y-32260076D01*
X124119047Y-32260076D02*
X124214285Y-32355314D01*
X124214285Y-32355314D02*
X124309523Y-32402933D01*
X123357142Y-32212457D02*
X123309523Y-32164838D01*
X123309523Y-32164838D02*
X123214285Y-32117219D01*
X123214285Y-32117219D02*
X122976190Y-32117219D01*
X122976190Y-32117219D02*
X122880952Y-32164838D01*
X122880952Y-32164838D02*
X122833333Y-32212457D01*
X122833333Y-32212457D02*
X122785714Y-32307695D01*
X122785714Y-32307695D02*
X122785714Y-32402933D01*
X122785714Y-32402933D02*
X122833333Y-32545790D01*
X122833333Y-32545790D02*
X123404761Y-33117219D01*
X123404761Y-33117219D02*
X122785714Y-33117219D01*
X122357142Y-33021980D02*
X122309523Y-33069600D01*
X122309523Y-33069600D02*
X122357142Y-33117219D01*
X122357142Y-33117219D02*
X122404761Y-33069600D01*
X122404761Y-33069600D02*
X122357142Y-33021980D01*
X122357142Y-33021980D02*
X122357142Y-33117219D01*
X121928571Y-32212457D02*
X121880952Y-32164838D01*
X121880952Y-32164838D02*
X121785714Y-32117219D01*
X121785714Y-32117219D02*
X121547619Y-32117219D01*
X121547619Y-32117219D02*
X121452381Y-32164838D01*
X121452381Y-32164838D02*
X121404762Y-32212457D01*
X121404762Y-32212457D02*
X121357143Y-32307695D01*
X121357143Y-32307695D02*
X121357143Y-32402933D01*
X121357143Y-32402933D02*
X121404762Y-32545790D01*
X121404762Y-32545790D02*
X121976190Y-33117219D01*
X121976190Y-33117219D02*
X121357143Y-33117219D01*
X120500000Y-32450552D02*
X120500000Y-33117219D01*
X120738095Y-32069600D02*
X120976190Y-32783885D01*
X120976190Y-32783885D02*
X120357143Y-32783885D01*
D12*
%TA.AperFunction,EtchedComponent*%
%TO.C,JP2*%
G36*
X85525000Y-54975000D02*
G01*
X84925000Y-54975000D01*
X84925000Y-54475000D01*
X85525000Y-54475000D01*
X85525000Y-54975000D01*
G37*
%TD.AperFunction*%
%TD*%
D13*
%TO.P,R4,1*%
%TO.N,GND*%
X56975000Y-80935000D03*
%TO.P,R4,2*%
%TO.N,AUDIO_L*%
X56975000Y-70775000D03*
%TD*%
%TO.P,C7,1*%
%TO.N,Net-(C7-Pad1)*%
X146225000Y-66025000D03*
%TO.P,C7,2*%
%TO.N,Net-(C7-Pad2)*%
X146225000Y-71025000D03*
%TD*%
D14*
%TO.P,J5,1,Pin_1*%
%TO.N,GND*%
X146265000Y-83775000D03*
D15*
%TO.P,J5,2,Pin_2*%
%TO.N,Net-(J5-Pin_2)*%
X143725000Y-83775000D03*
%TO.P,J5,3,Pin_3*%
%TO.N,GND*%
X141185000Y-83775000D03*
%TD*%
D16*
%TO.P,BZ1,1,+*%
%TO.N,+Vbus*%
X132025000Y-69275000D03*
D17*
%TO.P,BZ1,2,-*%
%TO.N,Net-(BZ1--)*%
X124425000Y-69275000D03*
%TD*%
D13*
%TO.P,R10,1*%
%TO.N,GND*%
X127065000Y-46275000D03*
%TO.P,R10,2*%
%TO.N,Net-(U3B-+)*%
X137225000Y-46275000D03*
%TD*%
%TO.P,JP5,1,A*%
%TO.N,GND*%
X119975000Y-92185000D03*
%TO.P,JP5,2,B*%
X119975000Y-82025000D03*
%TD*%
D18*
%TO.P,Q2,1,E*%
%TO.N,GND*%
X56975000Y-61775000D03*
D19*
%TO.P,Q2,2,B*%
%TO.N,Net-(Q2-B)*%
X56975000Y-64315000D03*
%TO.P,Q2,3,C*%
%TO.N,AUDIO_L*%
X56975000Y-66855000D03*
%TD*%
D13*
%TO.P,R11,1*%
%TO.N,Net-(R11-Pad1)*%
X142225000Y-61435000D03*
%TO.P,R11,2*%
%TO.N,Net-(U3B--)*%
X142225000Y-51275000D03*
%TD*%
%TO.P,JP3,1,A*%
%TO.N,Net-(J4-Pin_1)*%
X82475000Y-78775000D03*
%TO.P,JP3,2,B*%
%TO.N,Net-(J5-Pin_2)*%
X82475000Y-88935000D03*
%TD*%
D20*
%TO.P,U4,CLK,CLK*%
%TO.N,ROT_CLK*%
X87975000Y-86775000D03*
%TO.P,U4,DT,DT*%
%TO.N,ROT_DT*%
X87975000Y-84235000D03*
D21*
%TO.P,U4,GND,GND*%
%TO.N,GND*%
X87975000Y-76615000D03*
D20*
%TO.P,U4,SW,SW*%
%TO.N,ROT_SW*%
X87975000Y-81695000D03*
%TO.P,U4,VCC,VCC*%
%TO.N,+3.3V*%
X87975000Y-79155000D03*
%TD*%
D13*
%TO.P,R3,1*%
%TO.N,GND*%
X64725000Y-80935000D03*
%TO.P,R3,2*%
%TO.N,AUDIO_R*%
X64725000Y-70775000D03*
%TD*%
D14*
%TO.P,J3,1,Pin_1*%
%TO.N,Net-(J3-Pin_1)*%
X49750000Y-51080000D03*
D15*
%TO.P,J3,2,Pin_2*%
%TO.N,Net-(J3-Pin_2)*%
X49750000Y-48540000D03*
%TO.P,J3,3,Pin_3*%
%TO.N,Net-(J3-Pin_3)*%
X49750000Y-46000000D03*
%TD*%
D17*
%TO.P,TP1,1,1*%
%TO.N,Net-(C7-Pad2)*%
X146225000Y-76025000D03*
%TD*%
D13*
%TO.P,R14,1*%
%TO.N,BUZZER*%
X116725000Y-81855000D03*
%TO.P,R14,2*%
%TO.N,Net-(Q3-B)*%
X116725000Y-71695000D03*
%TD*%
D22*
%TO.P,C10,1*%
%TO.N,Net-(JP2-B)*%
X85225000Y-43525000D03*
D13*
%TO.P,C10,2*%
%TO.N,GND*%
X87725000Y-43525000D03*
%TD*%
D14*
%TO.P,J4,1,Pin_1*%
%TO.N,Net-(J4-Pin_1)*%
X80725000Y-74025000D03*
D15*
%TO.P,J4,2,Pin_2*%
%TO.N,AUDIO_R*%
X78185000Y-74025000D03*
%TO.P,J4,3,Pin_3*%
%TO.N,AUDIO_L*%
X75645000Y-74025000D03*
%TO.P,J4,4,Pin_4*%
%TO.N,GND*%
X73105000Y-74025000D03*
%TD*%
D13*
%TO.P,C1,1*%
%TO.N,Net-(U1-FMI)*%
X59475000Y-55275000D03*
%TO.P,C1,2*%
%TO.N,Net-(J1-Pin_2)*%
X56975000Y-55275000D03*
%TD*%
D23*
%TO.P,C5,1*%
%TO.N,Net-(U1-LOUT{slash}DFS)*%
X72975000Y-65569888D03*
D13*
%TO.P,C5,2*%
%TO.N,AUDIO_L*%
X72975000Y-68069888D03*
%TD*%
D24*
%TO.P,J2,1,Pin_1*%
%TO.N,GND*%
X49725000Y-56275000D03*
D25*
%TO.P,J2,2,Pin_2*%
%TO.N,Net-(J2-Pin_2)*%
X49725000Y-59775000D03*
%TD*%
D13*
%TO.P,C8,1*%
%TO.N,GND*%
X80975000Y-47775000D03*
%TO.P,C8,2*%
%TO.N,Net-(U1-RCLK)*%
X80975000Y-50275000D03*
%TD*%
D26*
%TO.P,A1,1,GPIO0*%
%TO.N,/SDO*%
X93445000Y-38525000D03*
D13*
%TO.P,A1,2,GPIO1*%
%TO.N,/LED*%
X93445000Y-41065000D03*
D27*
%TO.P,A1,3,GPIO2*%
%TO.N,/SCK*%
X93445000Y-43605000D03*
D13*
%TO.P,A1,4,GPIO3*%
%TO.N,/SDI*%
X93445000Y-46145000D03*
%TO.P,A1,5,GPIO4*%
%TO.N,/DC*%
X93445000Y-48685000D03*
%TO.P,A1,6,GND*%
%TO.N,GND*%
X93445000Y-51225000D03*
%TO.P,A1,7,GPIO5*%
%TO.N,/RST*%
X93445000Y-53765000D03*
D27*
%TO.P,A1,8,GPIO6*%
%TO.N,/CS*%
X93445000Y-56305000D03*
D13*
%TO.P,A1,9,GPIO7*%
%TO.N,/T_CS*%
X93445000Y-58845000D03*
%TO.P,A1,10,GPIO8*%
%TO.N,/Si_SDA*%
X93445000Y-61385000D03*
%TO.P,A1,11,GPIO9*%
%TO.N,/Si_SCL*%
X93445000Y-63925000D03*
%TO.P,A1,12,GPIO10*%
%TO.N,/Si_RST*%
X93445000Y-66465000D03*
D27*
%TO.P,A1,13,GPIO11*%
%TO.N,unconnected-(A1-GPIO11-Pad13)*%
X93445000Y-69005000D03*
D13*
%TO.P,A1,14,GPIO12*%
%TO.N,unconnected-(A1-GPIO12-Pad14)*%
X93445000Y-71545000D03*
%TO.P,A1,15,GND*%
%TO.N,GND*%
X93445000Y-74085000D03*
%TO.P,A1,16,GPIO13*%
%TO.N,unconnected-(A1-GPIO13-Pad16)*%
X93445000Y-76625000D03*
%TO.P,A1,17,GPIO14*%
%TO.N,unconnected-(A1-GPIO14-Pad17)*%
X93445000Y-79165000D03*
D27*
%TO.P,A1,18,GPIO15*%
%TO.N,unconnected-(A1-GPIO15-Pad18)*%
X93445000Y-81705000D03*
D13*
%TO.P,A1,19,GPIO16*%
%TO.N,ROT_DT*%
X93445000Y-84245000D03*
%TO.P,A1,20,GPIO17*%
%TO.N,ROT_CLK*%
X93445000Y-86785000D03*
%TO.P,A1,21,GPIO18*%
%TO.N,ROT_SW*%
X111225000Y-86785000D03*
%TO.P,A1,22,GPIO19*%
%TO.N,AUDIO_MUTE*%
X111225000Y-84245000D03*
D28*
%TO.P,A1,23,GPIO20*%
%TO.N,BUZZER*%
X111225000Y-81705000D03*
D13*
%TO.P,A1,24,GPIO21*%
%TO.N,unconnected-(A1-GPIO21-Pad24)*%
X111225000Y-79165000D03*
%TO.P,A1,25,GPIO22*%
%TO.N,unconnected-(A1-GPIO22-Pad25)*%
X111225000Y-76625000D03*
%TO.P,A1,26,GPIO23*%
%TO.N,unconnected-(A1-GPIO23-Pad26)*%
X111225000Y-74085000D03*
%TO.P,A1,27,GPIO24*%
%TO.N,unconnected-(A1-GPIO24-Pad27)*%
X111225000Y-71545000D03*
D28*
%TO.P,A1,28,GPIO25*%
%TO.N,unconnected-(A1-GPIO25-Pad28)*%
X111225000Y-69005000D03*
D13*
%TO.P,A1,29,AGND*%
%TO.N,GND*%
X111225000Y-66465000D03*
%TO.P,A1,30,GPIO26_ADC0*%
%TO.N,AD_FFT_AUDIO*%
X111225000Y-63925000D03*
%TO.P,A1,31,GPIO27_ADC1*%
%TO.N,Net-(A1-GPIO27_ADC1)*%
X111225000Y-61385000D03*
%TO.P,A1,32,GPIO28_ADC2*%
%TO.N,unconnected-(A1-GPIO28_ADC2-Pad32)*%
X111225000Y-58845000D03*
D28*
%TO.P,A1,33,GPIO29_ADC3*%
%TO.N,unconnected-(A1-GPIO29_ADC3-Pad33)*%
X111225000Y-56305000D03*
D13*
%TO.P,A1,34,RUN*%
%TO.N,Net-(A1-RUN)*%
X111225000Y-53765000D03*
%TO.P,A1,35,GND*%
%TO.N,GND*%
X111225000Y-51225000D03*
%TO.P,A1,36,3V3*%
%TO.N,+3.3V*%
X111225000Y-48685000D03*
%TO.P,A1,37,3V3_EN*%
%TO.N,unconnected-(A1-3V3_EN-Pad37)*%
X111225000Y-46145000D03*
D28*
%TO.P,A1,38,GND*%
%TO.N,GND*%
X111225000Y-43605000D03*
D13*
%TO.P,A1,39,VSYS*%
%TO.N,+Vsys*%
X111225000Y-41065000D03*
%TO.P,A1,40,VBUS*%
%TO.N,+Vbus*%
X111225000Y-38525000D03*
%TD*%
D23*
%TO.P,C4,1*%
%TO.N,Net-(U1-ROUT{slash}DOUT)*%
X80725000Y-65569888D03*
D13*
%TO.P,C4,2*%
%TO.N,AUDIO_R*%
X80725000Y-68069888D03*
%TD*%
D17*
%TO.P,TP2,1,1*%
%TO.N,AD_FFT_AUDIO*%
X151475000Y-67775000D03*
%TD*%
D13*
%TO.P,R8,1*%
%TO.N,Net-(U3B-+)*%
X137225000Y-51275000D03*
%TO.P,R8,2*%
%TO.N,Net-(U3B--)*%
X137225000Y-61435000D03*
%TD*%
%TO.P,C3,1*%
%TO.N,Net-(U1-AMI)*%
X70725000Y-52775000D03*
%TO.P,C3,2*%
%TO.N,Net-(J3-Pin_2)*%
X68225000Y-52775000D03*
%TD*%
%TO.P,R6,1*%
%TO.N,Net-(U3B--)*%
X142225000Y-66025000D03*
%TO.P,R6,2*%
%TO.N,Net-(C7-Pad1)*%
X142225000Y-76185000D03*
%TD*%
D23*
%TO.P,C11,1*%
%TO.N,+Vbus*%
X118225000Y-38525000D03*
D13*
%TO.P,C11,2*%
%TO.N,GND*%
X118225000Y-41025000D03*
%TD*%
%TO.P,L3,1,1*%
%TO.N,GND*%
X64475000Y-45195000D03*
%TO.P,L3,2,2*%
%TO.N,Net-(U1-FMI)*%
X64475000Y-55355000D03*
%TD*%
%TO.P,R13,1*%
%TO.N,Net-(A1-GPIO27_ADC1)*%
X126975000Y-61355000D03*
%TO.P,R13,2*%
%TO.N,GND*%
X126975000Y-51195000D03*
%TD*%
D22*
%TO.P,U3,1*%
%TO.N,N/C*%
X147105000Y-38485000D03*
D13*
%TO.P,U3,2*%
X147105000Y-41025000D03*
%TO.P,U3,3*%
X147105000Y-43565000D03*
%TO.P,U3,4,V+*%
%TO.N,+3.3V*%
X147105000Y-46105000D03*
%TO.P,U3,5,+*%
%TO.N,Net-(U3B-+)*%
X147105000Y-48645000D03*
%TO.P,U3,6,-*%
%TO.N,Net-(U3B--)*%
X147105000Y-51185000D03*
%TO.P,U3,7*%
%TO.N,AD_FFT_AUDIO*%
X147105000Y-53725000D03*
%TO.P,U3,8*%
%TO.N,N/C*%
X154725000Y-53725000D03*
%TO.P,U3,9*%
X154725000Y-51185000D03*
%TO.P,U3,10*%
X154725000Y-48645000D03*
%TO.P,U3,11,V-*%
%TO.N,GND*%
X154725000Y-46105000D03*
%TO.P,U3,12*%
%TO.N,N/C*%
X154725000Y-43565000D03*
%TO.P,U3,13*%
X154725000Y-41025000D03*
%TO.P,U3,14*%
X154725000Y-38485000D03*
%TD*%
%TO.P,R5,1*%
%TO.N,Net-(U3B--)*%
X78225000Y-89025000D03*
%TO.P,R5,2*%
%TO.N,AUDIO_R*%
X78225000Y-78865000D03*
%TD*%
%TO.P,C6,1*%
%TO.N,Net-(U1-GPO3{slash}DCLK)*%
X70725000Y-50275000D03*
%TO.P,C6,2*%
%TO.N,GND*%
X70725000Y-47775000D03*
%TD*%
%TO.P,C9,1*%
%TO.N,GND*%
X87725000Y-38525000D03*
%TO.P,C9,2*%
%TO.N,Net-(JP2-B)*%
X82725000Y-38525000D03*
%TD*%
%TO.P,C2,1*%
%TO.N,Net-(J2-Pin_2)*%
X56975000Y-52775000D03*
%TO.P,C2,2*%
%TO.N,Net-(J3-Pin_2)*%
X59475000Y-52775000D03*
%TD*%
%TO.P,L1,1,1*%
%TO.N,Net-(J3-Pin_3)*%
X60475000Y-42275000D03*
%TO.P,L1,2,2*%
%TO.N,GND*%
X70635000Y-42275000D03*
%TD*%
%TO.P,C12,1*%
%TO.N,+Vbus*%
X123475000Y-38525000D03*
%TO.P,C12,2*%
%TO.N,GND*%
X123475000Y-43525000D03*
%TD*%
D29*
%TO.P,RV1,1,1*%
%TO.N,AD_FFT_AUDIO*%
X151315000Y-58025000D03*
D30*
%TO.P,RV1,2,2*%
X148815000Y-60525000D03*
%TO.P,RV1,3,3*%
%TO.N,Net-(R11-Pad1)*%
X151315000Y-63025000D03*
%TD*%
D18*
%TO.P,Q1,1,E*%
%TO.N,GND*%
X64725000Y-61775000D03*
D19*
%TO.P,Q1,2,B*%
%TO.N,Net-(Q1-B)*%
X64725000Y-64315000D03*
%TO.P,Q1,3,C*%
%TO.N,AUDIO_R*%
X64725000Y-66855000D03*
%TD*%
D14*
%TO.P,SW1,1,1*%
%TO.N,GND*%
X119975000Y-51275000D03*
D15*
%TO.P,SW1,2,2*%
%TO.N,Net-(A1-RUN)*%
X119975000Y-53815000D03*
%TD*%
D13*
%TO.P,JP4,1,A*%
%TO.N,Net-(J5-Pin_2)*%
X131975000Y-87275000D03*
%TO.P,JP4,2,B*%
%TO.N,+Vbus*%
X131975000Y-77115000D03*
%TD*%
D24*
%TO.P,J1,1,Pin_1*%
%TO.N,GND*%
X49750000Y-36500000D03*
D25*
%TO.P,J1,2,Pin_2*%
%TO.N,Net-(J1-Pin_2)*%
X49750000Y-40000000D03*
%TD*%
D13*
%TO.P,R12,1*%
%TO.N,+Vbus*%
X131725000Y-51195000D03*
%TO.P,R12,2*%
%TO.N,Net-(A1-GPIO27_ADC1)*%
X131725000Y-61355000D03*
%TD*%
D31*
%TO.P,Y1,1,1*%
%TO.N,Net-(U1-RCLK)*%
X77225000Y-50275000D03*
%TO.P,Y1,2,2*%
%TO.N,Net-(U1-GPO3{slash}DCLK)*%
X75325000Y-50275000D03*
%TD*%
D14*
%TO.P,U2,1,VCC*%
%TO.N,+3.3V*%
X93225000Y-31025000D03*
D15*
%TO.P,U2,2,GND*%
%TO.N,GND*%
X90685000Y-31025000D03*
%TO.P,U2,3,CS*%
%TO.N,/CS*%
X88145000Y-31025000D03*
%TO.P,U2,4,RESET*%
%TO.N,/RST*%
X85605000Y-31025000D03*
%TO.P,U2,5,DC/RS*%
%TO.N,/DC*%
X83065000Y-31025000D03*
%TO.P,U2,6,SDI/MOSI*%
%TO.N,/SDI*%
X80525000Y-31025000D03*
%TO.P,U2,7,SCK*%
%TO.N,/SCK*%
X77985000Y-31025000D03*
%TO.P,U2,8,LED*%
%TO.N,/LED*%
X75445000Y-31025000D03*
%TO.P,U2,9,SDO/MISO*%
%TO.N,Net-(JP1-A)*%
X72905000Y-31025000D03*
%TO.P,U2,10,T_CLK*%
%TO.N,/SCK*%
X70365000Y-31025000D03*
%TO.P,U2,11,T_CS*%
%TO.N,/T_CS*%
X67825000Y-31025000D03*
%TO.P,U2,12,T_DIN*%
%TO.N,/SDI*%
X65285000Y-31025000D03*
%TO.P,U2,13,T_DO*%
%TO.N,/SDO*%
X62745000Y-31025000D03*
%TO.P,U2,14,T_IRQ*%
%TO.N,unconnected-(U2-T_IRQ-Pad14)*%
X60205000Y-31025000D03*
%TD*%
D13*
%TO.P,R2,1*%
%TO.N,AUDIO_MUTE*%
X52725000Y-80935000D03*
%TO.P,R2,2*%
%TO.N,Net-(Q2-B)*%
X52725000Y-70775000D03*
%TD*%
%TO.P,R7,1*%
%TO.N,Net-(U3B--)*%
X73225000Y-89025000D03*
%TO.P,R7,2*%
%TO.N,AUDIO_L*%
X73225000Y-78865000D03*
%TD*%
D14*
%TO.P,L2,1,1*%
%TO.N,Net-(J3-Pin_1)*%
X56975000Y-47275000D03*
D15*
%TO.P,L2,2,2*%
%TO.N,GND*%
X56975000Y-44735000D03*
%TD*%
D13*
%TO.P,R1,1*%
%TO.N,AUDIO_MUTE*%
X60975000Y-80855000D03*
%TO.P,R1,2*%
%TO.N,Net-(Q1-B)*%
X60975000Y-70695000D03*
%TD*%
%TO.P,L4,1,1*%
%TO.N,Net-(JP2-B)*%
X70725000Y-38525000D03*
%TO.P,L4,2,2*%
%TO.N,+3.3V*%
X60565000Y-38525000D03*
%TD*%
%TO.P,R9,1*%
%TO.N,Net-(U3B-+)*%
X142225000Y-46185000D03*
%TO.P,R9,2*%
%TO.N,+3.3V*%
X142225000Y-36025000D03*
%TD*%
D18*
%TO.P,Q3,1,E*%
%TO.N,GND*%
X124475000Y-82065000D03*
D19*
%TO.P,Q3,2,B*%
%TO.N,Net-(Q3-B)*%
X124475000Y-79525000D03*
%TO.P,Q3,3,C*%
%TO.N,Net-(BZ1--)*%
X124475000Y-76985000D03*
%TD*%
D32*
%TO.P,JP2,1,A*%
%TO.N,GND*%
X85225000Y-55375000D03*
D33*
%TO.P,JP2,2,C*%
%TO.N,Net-(JP2-C)*%
X85225000Y-54075000D03*
D34*
%TO.P,JP2,3,B*%
%TO.N,Net-(JP2-B)*%
X85225000Y-52775000D03*
%TD*%
D35*
%TO.P,JP1,1,A*%
%TO.N,Net-(JP1-A)*%
X72975000Y-34025000D03*
D36*
%TO.P,JP1,2,B*%
%TO.N,/SDO*%
X72975000Y-35325000D03*
%TD*%
D37*
%TO.P,U1,1,LOUT/DFS*%
%TO.N,Net-(U1-LOUT{slash}DFS)*%
X73666400Y-61645000D03*
%TO.P,U1,2,GPO3/DCLK*%
%TO.N,Net-(U1-GPO3{slash}DCLK)*%
X73666400Y-60375000D03*
%TO.P,U1,3,GPO2/INTB*%
%TO.N,unconnected-(U1-GPO2{slash}INTB-Pad3)*%
X73666400Y-59105000D03*
%TO.P,U1,4,GPO1*%
%TO.N,unconnected-(U1-GPO1-Pad4)*%
X73666400Y-57835000D03*
%TO.P,U1,5,NC*%
%TO.N,unconnected-(U1-NC-Pad5)*%
X73666400Y-56565000D03*
%TO.P,U1,6,FMI*%
%TO.N,Net-(U1-FMI)*%
X73666400Y-55295000D03*
%TO.P,U1,7,RFGND*%
%TO.N,GND*%
X73666400Y-54025000D03*
%TO.P,U1,8,AMI*%
%TO.N,Net-(U1-AMI)*%
X73666400Y-52755000D03*
%TO.P,U1,9,\u002ARST*%
%TO.N,/Si_RST*%
X78975000Y-52755000D03*
%TO.P,U1,10,SENB*%
%TO.N,Net-(JP2-C)*%
X78975000Y-54025000D03*
%TO.P,U1,11,SCLK*%
%TO.N,/Si_SCL*%
X78975000Y-55295000D03*
%TO.P,U1,12,SDIO*%
%TO.N,/Si_SDA*%
X78975000Y-56565000D03*
%TO.P,U1,13,RCLK*%
%TO.N,Net-(U1-RCLK)*%
X78975000Y-57835000D03*
%TO.P,U1,14,VDD*%
%TO.N,Net-(JP2-B)*%
X78975000Y-59105000D03*
%TO.P,U1,15,GND*%
%TO.N,GND*%
X78975000Y-60375000D03*
%TO.P,U1,16,ROUT/DOUT*%
%TO.N,Net-(U1-ROUT{slash}DOUT)*%
X78975000Y-61645000D03*
%TD*%
D38*
%TO.N,+3.3V*%
X90975000Y-78025000D02*
X95225000Y-78025000D01*
X146055000Y-46105000D02*
X144975000Y-45025000D01*
D39*
X56975000Y-29275000D02*
X58826000Y-27424000D01*
X93225000Y-28775000D02*
X93225000Y-31025000D01*
X91874000Y-27424000D02*
X93225000Y-28775000D01*
X59225000Y-38525000D02*
X56975000Y-36275000D01*
X98725000Y-78025000D02*
X95225000Y-78025000D01*
X106565000Y-36090000D02*
X106500000Y-36025000D01*
X56975000Y-36275000D02*
X56975000Y-29275000D01*
X103225000Y-73525000D02*
X98850000Y-77900000D01*
X106500000Y-36025000D02*
X106500000Y-35000000D01*
X106565000Y-48685000D02*
X103225000Y-52025000D01*
D38*
X147105000Y-46105000D02*
X146055000Y-46105000D01*
X144975000Y-45025000D02*
X144975000Y-43025000D01*
D39*
X98850000Y-77900000D02*
X98725000Y-78025000D01*
X106565000Y-48685000D02*
X106565000Y-36090000D01*
D38*
X144975000Y-43025000D02*
X142225000Y-40275000D01*
D39*
X103225000Y-52025000D02*
X103225000Y-73525000D01*
D38*
X142225000Y-40275000D02*
X142225000Y-36025000D01*
D39*
X102525000Y-31025000D02*
X93225000Y-31025000D01*
X89845000Y-79155000D02*
X87975000Y-79155000D01*
X90975000Y-78025000D02*
X89845000Y-79155000D01*
X58826000Y-27424000D02*
X91874000Y-27424000D01*
X106500000Y-36025000D02*
X142225000Y-36025000D01*
X60565000Y-38525000D02*
X59225000Y-38525000D01*
X111225000Y-48685000D02*
X106565000Y-48685000D01*
X106500000Y-35000000D02*
X102525000Y-31025000D01*
D38*
%TO.N,/DC*%
X96428000Y-36728000D02*
X96428000Y-47572000D01*
X96428000Y-47572000D02*
X95315000Y-48685000D01*
X83725000Y-34525000D02*
X94225000Y-34525000D01*
X94225000Y-34525000D02*
X96428000Y-36728000D01*
X83065000Y-31025000D02*
X83065000Y-33865000D01*
X83065000Y-33865000D02*
X83725000Y-34525000D01*
X95315000Y-48685000D02*
X93445000Y-48685000D01*
D40*
%TO.N,GND*%
X64225000Y-35525000D02*
X59475000Y-35525000D01*
X88035000Y-74085000D02*
X93445000Y-74085000D01*
X56975000Y-75775000D02*
X64725000Y-75775000D01*
X123475000Y-43525000D02*
X125975000Y-43525000D01*
D38*
X119925000Y-51225000D02*
X119955000Y-51195000D01*
D40*
X152895000Y-81605000D02*
X156975000Y-77525000D01*
X146265000Y-81605000D02*
X146265000Y-83775000D01*
X90725000Y-29275000D02*
X90685000Y-29315000D01*
X114225000Y-51225000D02*
X119925000Y-51225000D01*
D38*
X69475000Y-51775000D02*
X69475000Y-53525000D01*
D40*
X67475000Y-74025000D02*
X65725000Y-75775000D01*
X57975000Y-29525000D02*
X59225000Y-28275000D01*
X100475000Y-60275000D02*
X100475000Y-37775000D01*
X68885000Y-40525000D02*
X65475000Y-40525000D01*
X70635000Y-42275000D02*
X70635000Y-45275000D01*
X57475000Y-40525000D02*
X53450000Y-36500000D01*
X89475000Y-55275000D02*
X89475000Y-55775000D01*
X126975000Y-51195000D02*
X126975000Y-46365000D01*
X73105000Y-74025000D02*
X67475000Y-74025000D01*
X123475000Y-43525000D02*
X119725000Y-43525000D01*
X57025000Y-92025000D02*
X141185000Y-92025000D01*
X56975000Y-44735000D02*
X64015000Y-44735000D01*
X111225000Y-51225000D02*
X114225000Y-51225000D01*
D38*
X126645000Y-51275000D02*
X126725000Y-51195000D01*
D40*
X64725000Y-61775000D02*
X56975000Y-61775000D01*
X89525000Y-51225000D02*
X89475000Y-51275000D01*
X57975000Y-34025000D02*
X57975000Y-29525000D01*
X70635000Y-42275000D02*
X68885000Y-40525000D01*
X44725000Y-38775000D02*
X44725000Y-56275000D01*
X119725000Y-43525000D02*
X118225000Y-43525000D01*
X118225000Y-43525000D02*
X118225000Y-41025000D01*
X59475000Y-35525000D02*
X57975000Y-34025000D01*
X126975000Y-81275000D02*
X126185000Y-82065000D01*
X95623000Y-32923000D02*
X91250000Y-32923000D01*
X44725000Y-79725000D02*
X57025000Y-92025000D01*
X100475000Y-37775000D02*
X95623000Y-32923000D01*
D38*
X91725000Y-60275000D02*
X94975000Y-60275000D01*
D40*
X127065000Y-44685000D02*
X127065000Y-46275000D01*
X88035000Y-67335000D02*
X88035000Y-74085000D01*
X89475000Y-55775000D02*
X89475000Y-58025000D01*
D38*
X85225000Y-55375000D02*
X89375000Y-55375000D01*
D40*
X156975000Y-77525000D02*
X156975000Y-46025000D01*
X81075000Y-60375000D02*
X88035000Y-67335000D01*
X126185000Y-82065000D02*
X125225000Y-82065000D01*
X49725000Y-56275000D02*
X44725000Y-56275000D01*
X70725000Y-47775000D02*
X80975000Y-47775000D01*
X141185000Y-82315000D02*
X141185000Y-83775000D01*
X64725000Y-80935000D02*
X64725000Y-75775000D01*
X70635000Y-45275000D02*
X70635000Y-47685000D01*
X98665000Y-74085000D02*
X100475000Y-72275000D01*
X109275000Y-51225000D02*
X108225000Y-52275000D01*
X44725000Y-69025000D02*
X44725000Y-79725000D01*
X56975000Y-80935000D02*
X56975000Y-75775000D01*
D38*
X78975000Y-60375000D02*
X81075000Y-60375000D01*
D40*
X111225000Y-66465000D02*
X125665000Y-66465000D01*
X146265000Y-86945000D02*
X146265000Y-83775000D01*
D38*
X69975000Y-54025000D02*
X73666400Y-54025000D01*
D40*
X90685000Y-32358000D02*
X90685000Y-31025000D01*
X44725000Y-75775000D02*
X56975000Y-75775000D01*
X87725000Y-38525000D02*
X87725000Y-43525000D01*
X91250000Y-32923000D02*
X90685000Y-32358000D01*
X125225000Y-82065000D02*
X124475000Y-82065000D01*
X91725000Y-60275000D02*
X89475000Y-58025000D01*
X93445000Y-74085000D02*
X98665000Y-74085000D01*
X49750000Y-36500000D02*
X47000000Y-36500000D01*
X154805000Y-46025000D02*
X154725000Y-46105000D01*
X125665000Y-66465000D02*
X126975000Y-67775000D01*
X146265000Y-81605000D02*
X141895000Y-81605000D01*
D38*
X88035000Y-74085000D02*
X87975000Y-74145000D01*
D40*
X146265000Y-81605000D02*
X152895000Y-81605000D01*
D38*
X69475000Y-53525000D02*
X69975000Y-54025000D01*
D40*
X56975000Y-61775000D02*
X44725000Y-61775000D01*
X108225000Y-52275000D02*
X108225000Y-65025000D01*
X89475000Y-50025000D02*
X89475000Y-55275000D01*
X64475000Y-45195000D02*
X70555000Y-45195000D01*
X111225000Y-51225000D02*
X109275000Y-51225000D01*
X120185000Y-81815000D02*
X119975000Y-82025000D01*
X64725000Y-75775000D02*
X65725000Y-75775000D01*
X141895000Y-81605000D02*
X141185000Y-82315000D01*
X65475000Y-40525000D02*
X65475000Y-36775000D01*
X89475000Y-51275000D02*
X89475000Y-50025000D01*
X126975000Y-51195000D02*
X120055000Y-51195000D01*
D38*
X126975000Y-46365000D02*
X127065000Y-46275000D01*
D40*
X65475000Y-36775000D02*
X64225000Y-35525000D01*
D38*
X69475000Y-47775000D02*
X68975000Y-48275000D01*
D40*
X156975000Y-46025000D02*
X154805000Y-46025000D01*
D38*
X68975000Y-51275000D02*
X69475000Y-51775000D01*
D40*
X108225000Y-65025000D02*
X109665000Y-66465000D01*
X65475000Y-40525000D02*
X57475000Y-40525000D01*
D38*
X64015000Y-44735000D02*
X64475000Y-45195000D01*
D40*
X125975000Y-43595000D02*
X127065000Y-44685000D01*
X70635000Y-47685000D02*
X70725000Y-47775000D01*
X53450000Y-36500000D02*
X49750000Y-36500000D01*
X125975000Y-43525000D02*
X125975000Y-43595000D01*
X44725000Y-56275000D02*
X44725000Y-61775000D01*
X70555000Y-45195000D02*
X70635000Y-45275000D01*
X109665000Y-66465000D02*
X111225000Y-66465000D01*
X89475000Y-50025000D02*
X89475000Y-45275000D01*
D38*
X119925000Y-51225000D02*
X119975000Y-51275000D01*
D40*
X59225000Y-28275000D02*
X89725000Y-28275000D01*
D38*
X89375000Y-55375000D02*
X89475000Y-55275000D01*
D40*
X93445000Y-51225000D02*
X89525000Y-51225000D01*
X44725000Y-69025000D02*
X44725000Y-75775000D01*
X100475000Y-60275000D02*
X94975000Y-60275000D01*
X44725000Y-61775000D02*
X44725000Y-69025000D01*
X125225000Y-82065000D02*
X120015000Y-82065000D01*
X100475000Y-72275000D02*
X100475000Y-60275000D01*
X90685000Y-29315000D02*
X90685000Y-31025000D01*
X141185000Y-92025000D02*
X146265000Y-86945000D01*
X120015000Y-82065000D02*
X119975000Y-82025000D01*
D38*
X68975000Y-48275000D02*
X68975000Y-51275000D01*
D40*
X120055000Y-51195000D02*
X119975000Y-51275000D01*
X87975000Y-74145000D02*
X87975000Y-76615000D01*
X89475000Y-45275000D02*
X87725000Y-43525000D01*
X111305000Y-43525000D02*
X111225000Y-43605000D01*
X89725000Y-28275000D02*
X90725000Y-29275000D01*
X47000000Y-36500000D02*
X44725000Y-38775000D01*
D38*
X70725000Y-47775000D02*
X69475000Y-47775000D01*
D40*
X118225000Y-43525000D02*
X111305000Y-43525000D01*
X126975000Y-67775000D02*
X126975000Y-81275000D01*
D38*
%TO.N,/CS*%
X93445000Y-56305000D02*
X95445000Y-56305000D01*
X88145000Y-32695000D02*
X88145000Y-31025000D01*
X95445000Y-56305000D02*
X97230000Y-54520000D01*
X97230000Y-54520000D02*
X97230000Y-36280000D01*
X97230000Y-36280000D02*
X94574000Y-33624000D01*
X89074000Y-33624000D02*
X88145000Y-32695000D01*
X94574000Y-33624000D02*
X89074000Y-33624000D01*
%TO.N,/T_CS*%
X91475000Y-50025000D02*
X94475000Y-50025000D01*
X90975000Y-53275000D02*
X90975000Y-58025000D01*
X94475000Y-50025000D02*
X94725000Y-50275000D01*
X67825000Y-31025000D02*
X67825000Y-33875000D01*
X94725000Y-52025000D02*
X94225000Y-52525000D01*
X90975000Y-58025000D02*
X91795000Y-58845000D01*
X89876000Y-36926000D02*
X90725000Y-37775000D01*
X90725000Y-49275000D02*
X91475000Y-50025000D01*
X70876000Y-36926000D02*
X89876000Y-36926000D01*
X91725000Y-52525000D02*
X90975000Y-53275000D01*
X94225000Y-52525000D02*
X91725000Y-52525000D01*
X94725000Y-50275000D02*
X94725000Y-52025000D01*
X90725000Y-37775000D02*
X90725000Y-49275000D01*
X67825000Y-33875000D02*
X70876000Y-36926000D01*
X91795000Y-58845000D02*
X93445000Y-58845000D01*
%TO.N,ROT_SW*%
X112225000Y-83025000D02*
X91725000Y-83025000D01*
X90395000Y-81695000D02*
X87975000Y-81695000D01*
X91725000Y-83025000D02*
X90395000Y-81695000D01*
X112465000Y-86785000D02*
X112725000Y-86525000D01*
X112725000Y-83525000D02*
X112225000Y-83025000D01*
X111225000Y-86785000D02*
X112465000Y-86785000D01*
X112725000Y-86525000D02*
X112725000Y-83525000D01*
%TO.N,AD_FFT_AUDIO*%
X151475000Y-67775000D02*
X152725000Y-67775000D01*
X127875000Y-63925000D02*
X111225000Y-63925000D01*
X153225000Y-67275000D02*
X153225000Y-58525000D01*
X148475000Y-50525000D02*
X147975000Y-50025000D01*
X147105000Y-53725000D02*
X147105000Y-57525000D01*
X139225000Y-55025000D02*
X135725000Y-58525000D01*
X148275000Y-53725000D02*
X148475000Y-53525000D01*
X153225000Y-58525000D02*
X152725000Y-58025000D01*
X148815000Y-60525000D02*
X148815000Y-58115000D01*
X147105000Y-57525000D02*
X147605000Y-58025000D01*
X128725000Y-77275000D02*
X128725000Y-64775000D01*
X132975000Y-79025000D02*
X130475000Y-79025000D01*
X152725000Y-58025000D02*
X151315000Y-58025000D01*
X152725000Y-67775000D02*
X153225000Y-67275000D01*
X147975000Y-50025000D02*
X140475000Y-50025000D01*
X140475000Y-50025000D02*
X139225000Y-51275000D01*
X148725000Y-58025000D02*
X151315000Y-58025000D01*
X148815000Y-58115000D02*
X148725000Y-58025000D01*
X135725000Y-58525000D02*
X135725000Y-76275000D01*
X148475000Y-53525000D02*
X148475000Y-50525000D01*
X135725000Y-76275000D02*
X132975000Y-79025000D01*
X139225000Y-51275000D02*
X139225000Y-55025000D01*
X128725000Y-64775000D02*
X127875000Y-63925000D01*
X147105000Y-53725000D02*
X148275000Y-53725000D01*
X130475000Y-79025000D02*
X128725000Y-77275000D01*
X147605000Y-58025000D02*
X148725000Y-58025000D01*
%TO.N,Net-(A1-GPIO27_ADC1)*%
X111255000Y-61355000D02*
X111225000Y-61385000D01*
X126975000Y-61355000D02*
X111255000Y-61355000D01*
X131725000Y-61355000D02*
X126975000Y-61355000D01*
X126695000Y-61385000D02*
X126725000Y-61355000D01*
%TO.N,BUZZER*%
X111405000Y-81705000D02*
X111555000Y-81855000D01*
X111225000Y-81705000D02*
X111405000Y-81705000D01*
X111375000Y-81855000D02*
X111225000Y-81705000D01*
X111555000Y-81855000D02*
X116725000Y-81855000D01*
%TO.N,/RST*%
X85975000Y-34025000D02*
X85605000Y-33655000D01*
X96829000Y-52421000D02*
X96829000Y-36561900D01*
X95485000Y-53765000D02*
X96829000Y-52421000D01*
X96829000Y-36561900D02*
X94292100Y-34025000D01*
X94292100Y-34025000D02*
X85975000Y-34025000D01*
X93445000Y-53765000D02*
X95485000Y-53765000D01*
X85605000Y-33655000D02*
X85605000Y-31025000D01*
%TO.N,+Vbus*%
X132025000Y-77065000D02*
X131975000Y-77115000D01*
D39*
X132025000Y-69275000D02*
X132025000Y-77065000D01*
X123475000Y-38525000D02*
X127725000Y-38525000D01*
X118225000Y-38525000D02*
X111225000Y-38525000D01*
X131725000Y-51195000D02*
X131725000Y-55525000D01*
X134475000Y-58275000D02*
X134475000Y-64025000D01*
X118225000Y-38525000D02*
X123475000Y-38525000D01*
D38*
X131975000Y-69325000D02*
X132025000Y-69275000D01*
D39*
X132025000Y-66475000D02*
X132025000Y-68724000D01*
X131725000Y-55525000D02*
X134475000Y-58275000D01*
X134475000Y-64025000D02*
X132025000Y-66475000D01*
X131725000Y-42525000D02*
X131725000Y-51195000D01*
D38*
X131975000Y-69876000D02*
X132025000Y-69826000D01*
D39*
X127725000Y-38525000D02*
X131725000Y-42525000D01*
D38*
%TO.N,/SDI*%
X79975000Y-29025000D02*
X66225000Y-29025000D01*
X66225000Y-29025000D02*
X65285000Y-29965000D01*
X96027000Y-36942800D02*
X94109200Y-35025000D01*
X80525000Y-31025000D02*
X80525000Y-29575000D01*
X96027000Y-44973000D02*
X96027000Y-36942800D01*
X93445000Y-46145000D02*
X94855000Y-46145000D01*
X65285000Y-29965000D02*
X65285000Y-31025000D01*
X94109200Y-35025000D02*
X81725000Y-35025000D01*
X80525000Y-33825000D02*
X80525000Y-31025000D01*
X94855000Y-46145000D02*
X96027000Y-44973000D01*
X80525000Y-29575000D02*
X79975000Y-29025000D01*
X81725000Y-35025000D02*
X80525000Y-33825000D01*
%TO.N,/SCK*%
X95626000Y-37108900D02*
X94042100Y-35525000D01*
X70725000Y-29525000D02*
X77475000Y-29525000D01*
X93445000Y-43605000D02*
X94645000Y-43605000D01*
X94042100Y-35525000D02*
X79975000Y-35525000D01*
X95626000Y-42624000D02*
X95626000Y-37108900D01*
X94645000Y-43605000D02*
X95626000Y-42624000D01*
X77985000Y-33535000D02*
X77985000Y-31025000D01*
X77985000Y-30035000D02*
X77985000Y-31025000D01*
X70365000Y-31025000D02*
X70365000Y-29885000D01*
X77475000Y-29525000D02*
X77985000Y-30035000D01*
X79975000Y-35525000D02*
X77985000Y-33535000D01*
X70365000Y-29885000D02*
X70725000Y-29525000D01*
%TO.N,AUDIO_MUTE*%
X105005000Y-84245000D02*
X100475000Y-88775000D01*
X52725000Y-82275000D02*
X53225000Y-82775000D01*
X53225000Y-82775000D02*
X60975000Y-82775000D01*
X60975000Y-80855000D02*
X60975000Y-82775000D01*
X85975000Y-88775000D02*
X79975000Y-82775000D01*
X111225000Y-84245000D02*
X105005000Y-84245000D01*
X100475000Y-88775000D02*
X85975000Y-88775000D01*
X79975000Y-82775000D02*
X60975000Y-82775000D01*
X52725000Y-80935000D02*
X52725000Y-82275000D01*
%TO.N,Net-(A1-RUN)*%
X111225000Y-53765000D02*
X119925000Y-53765000D01*
X119925000Y-53765000D02*
X119975000Y-53815000D01*
%TO.N,ROT_DT*%
X87985000Y-84245000D02*
X87975000Y-84235000D01*
X93445000Y-84245000D02*
X87985000Y-84245000D01*
%TO.N,ROT_CLK*%
X88235000Y-86785000D02*
X93445000Y-86785000D01*
X88225000Y-86775000D02*
X88235000Y-86785000D01*
X87975000Y-86775000D02*
X88225000Y-86775000D01*
%TO.N,Net-(U1-GPO3{slash}DCLK)*%
X75325000Y-59925000D02*
X74875000Y-60375000D01*
X75325000Y-50275000D02*
X75325000Y-59925000D01*
X75325000Y-50275000D02*
X70725000Y-50275000D01*
X74875000Y-60375000D02*
X73666400Y-60375000D01*
%TO.N,Net-(U1-RCLK)*%
X76725000Y-57025000D02*
X77535000Y-57835000D01*
X76725000Y-51775000D02*
X76725000Y-57025000D01*
X77225000Y-50275000D02*
X80975000Y-50275000D01*
X77225000Y-51275000D02*
X76725000Y-51775000D01*
X77535000Y-57835000D02*
X78975000Y-57835000D01*
X77225000Y-50275000D02*
X77225000Y-51275000D01*
%TO.N,Net-(U3B--)*%
X142225000Y-66025000D02*
X137225000Y-66025000D01*
X142225000Y-51275000D02*
X142225000Y-53775000D01*
X137225000Y-66025000D02*
X137225000Y-65445000D01*
X142225000Y-53775000D02*
X137225000Y-58775000D01*
X137225000Y-76775000D02*
X137225000Y-66025000D01*
X137225000Y-61435000D02*
X137225000Y-65445000D01*
X83225000Y-87525000D02*
X84975000Y-89275000D01*
X137225000Y-61185000D02*
X137475000Y-61435000D01*
X133725000Y-80275000D02*
X137225000Y-76775000D01*
X84975000Y-89275000D02*
X121975000Y-89275000D01*
X130975000Y-80275000D02*
X133725000Y-80275000D01*
X78225000Y-89025000D02*
X79725000Y-87525000D01*
X147105000Y-51185000D02*
X142315000Y-51185000D01*
X79725000Y-87525000D02*
X83225000Y-87525000D01*
X137225000Y-58775000D02*
X137225000Y-61185000D01*
X142315000Y-51185000D02*
X142225000Y-51275000D01*
X73225000Y-89025000D02*
X78225000Y-89025000D01*
X121975000Y-89275000D02*
X130975000Y-80275000D01*
%TO.N,Net-(U1-ROUT{slash}DOUT)*%
X80725000Y-64275000D02*
X80725000Y-65569888D01*
X78975000Y-62525000D02*
X80725000Y-64275000D01*
X78975000Y-61645000D02*
X78975000Y-62525000D01*
%TO.N,AUDIO_R*%
X78185000Y-69065000D02*
X78185000Y-74025000D01*
X64725000Y-66855000D02*
X77555000Y-66855000D01*
X78185000Y-67485000D02*
X78185000Y-69065000D01*
X77555000Y-66855000D02*
X78185000Y-67485000D01*
X80725000Y-68069888D02*
X78185000Y-68069888D01*
X78185000Y-74025000D02*
X78185000Y-78825000D01*
X64725000Y-66855000D02*
X64725000Y-70775000D01*
X78185000Y-68069888D02*
X78185000Y-69065000D01*
X78185000Y-78825000D02*
X78225000Y-78865000D01*
%TO.N,Net-(U1-LOUT{slash}DFS)*%
X73666400Y-62833600D02*
X73666400Y-61645000D01*
X72975000Y-65569888D02*
X72975000Y-63525000D01*
X72975000Y-63525000D02*
X73666400Y-62833600D01*
%TO.N,AUDIO_L*%
X70225000Y-70275000D02*
X72975000Y-70275000D01*
X72975000Y-70275000D02*
X74225000Y-70275000D01*
X75645000Y-74025000D02*
X75725000Y-74025000D01*
X75725000Y-74025000D02*
X75725000Y-76365000D01*
X75645000Y-71695000D02*
X75645000Y-74025000D01*
X74225000Y-70275000D02*
X75645000Y-71695000D01*
X56975000Y-70775000D02*
X56975000Y-72275000D01*
X75725000Y-76365000D02*
X73225000Y-78865000D01*
X57725000Y-73025000D02*
X67475000Y-73025000D01*
X67475000Y-73025000D02*
X70225000Y-70275000D01*
X56975000Y-72275000D02*
X57725000Y-73025000D01*
X56975000Y-66855000D02*
X56975000Y-70775000D01*
X72975000Y-70275000D02*
X72975000Y-68069888D01*
%TO.N,Net-(Q1-B)*%
X60975000Y-65775000D02*
X60975000Y-70695000D01*
X62435000Y-64315000D02*
X60975000Y-65775000D01*
X64725000Y-64315000D02*
X62435000Y-64315000D01*
%TO.N,Net-(Q2-B)*%
X54185000Y-64315000D02*
X56975000Y-64315000D01*
X52725000Y-70775000D02*
X52725000Y-65775000D01*
X52725000Y-65775000D02*
X54185000Y-64315000D01*
%TO.N,Net-(J3-Pin_2)*%
X47500000Y-49250000D02*
X47500000Y-52250000D01*
X48000000Y-52750000D02*
X53250000Y-52750000D01*
X58874000Y-51124000D02*
X59475000Y-51725000D01*
X48210000Y-48540000D02*
X47500000Y-49250000D01*
X47500000Y-52250000D02*
X48000000Y-52750000D01*
X59475000Y-51725000D02*
X59475000Y-52775000D01*
X59475000Y-52775000D02*
X68225000Y-52775000D01*
X53250000Y-52750000D02*
X54876000Y-51124000D01*
X49750000Y-48540000D02*
X48210000Y-48540000D01*
X54876000Y-51124000D02*
X58874000Y-51124000D01*
%TO.N,/SDO*%
X67225000Y-29525000D02*
X66475000Y-30275000D01*
X93445000Y-38525000D02*
X93445000Y-36995000D01*
X69225000Y-34025000D02*
X69225000Y-31512760D01*
X92975000Y-36525000D02*
X72975000Y-36525000D01*
X68475000Y-29525000D02*
X67225000Y-29525000D01*
X62745000Y-32045000D02*
X62745000Y-31025000D01*
X66475000Y-32025000D02*
X65975000Y-32525000D01*
X72975000Y-36525000D02*
X71725000Y-36525000D01*
X63225000Y-32525000D02*
X62745000Y-32045000D01*
X72975000Y-35325000D02*
X72975000Y-36525000D01*
X69225000Y-31512760D02*
X69214000Y-31501760D01*
X69225000Y-30275000D02*
X68475000Y-29525000D01*
X71725000Y-36525000D02*
X69225000Y-34025000D01*
X93445000Y-36995000D02*
X92975000Y-36525000D01*
X69214000Y-31501760D02*
X69214000Y-30286000D01*
X65975000Y-32525000D02*
X63225000Y-32525000D01*
X66475000Y-30275000D02*
X66475000Y-32025000D01*
%TO.N,Net-(U1-FMI)*%
X64475000Y-55355000D02*
X59555000Y-55355000D01*
X73666400Y-55295000D02*
X65285000Y-55295000D01*
X59555000Y-55355000D02*
X59475000Y-55275000D01*
X65285000Y-55295000D02*
X65225000Y-55355000D01*
%TO.N,Net-(J2-Pin_2)*%
X51975000Y-59775000D02*
X53225000Y-58525000D01*
X53225000Y-58525000D02*
X53225000Y-54275000D01*
X54725000Y-52775000D02*
X56975000Y-52775000D01*
X53225000Y-54275000D02*
X54725000Y-52775000D01*
X49725000Y-59775000D02*
X51975000Y-59775000D01*
%TO.N,Net-(U1-AMI)*%
X73666400Y-52755000D02*
X70745000Y-52755000D01*
X70745000Y-52755000D02*
X70725000Y-52775000D01*
%TO.N,Net-(U3B-+)*%
X143095000Y-48645000D02*
X142225000Y-47775000D01*
X137225000Y-46275000D02*
X142135000Y-46275000D01*
X147105000Y-48645000D02*
X143095000Y-48645000D01*
X142135000Y-46275000D02*
X142225000Y-46185000D01*
X137225000Y-51275000D02*
X137225000Y-46275000D01*
X142055000Y-46605000D02*
X142225000Y-46775000D01*
X142225000Y-47775000D02*
X142225000Y-46185000D01*
%TO.N,/Si_RST*%
X77225000Y-53275000D02*
X77745000Y-52755000D01*
X77704600Y-57254600D02*
X77225000Y-56775000D01*
X81704600Y-57254600D02*
X77704600Y-57254600D01*
X90915000Y-66465000D02*
X81704600Y-57254600D01*
X77745000Y-52755000D02*
X78975000Y-52755000D01*
X93445000Y-66465000D02*
X90915000Y-66465000D01*
X77225000Y-56775000D02*
X77225000Y-53275000D01*
%TO.N,/Si_SDA*%
X95225000Y-62025000D02*
X95225000Y-64525000D01*
X94475000Y-65275000D02*
X95225000Y-64525000D01*
X78975000Y-56565000D02*
X81765000Y-56565000D01*
X90475000Y-65275000D02*
X94475000Y-65275000D01*
X94585000Y-61385000D02*
X95225000Y-62025000D01*
X81765000Y-56565000D02*
X90475000Y-65275000D01*
X94585000Y-61385000D02*
X93445000Y-61385000D01*
%TO.N,/Si_SCL*%
X90125000Y-63925000D02*
X81495000Y-55295000D01*
X81495000Y-55295000D02*
X78975000Y-55295000D01*
X93445000Y-63925000D02*
X90125000Y-63925000D01*
%TO.N,/LED*%
X93445000Y-41065000D02*
X94685000Y-41065000D01*
X95225000Y-40525000D02*
X95225000Y-37275000D01*
X75445000Y-33745000D02*
X75445000Y-31025000D01*
X93975000Y-36025000D02*
X77725000Y-36025000D01*
X77725000Y-36025000D02*
X75445000Y-33745000D01*
X95225000Y-37275000D02*
X93975000Y-36025000D01*
X94685000Y-41065000D02*
X95225000Y-40525000D01*
%TO.N,Net-(BZ1--)*%
X124425000Y-69275000D02*
X124425000Y-76685000D01*
X124475000Y-69075000D02*
X124425000Y-69025000D01*
X124425000Y-76685000D02*
X124475000Y-76735000D01*
%TO.N,Net-(Q3-B)*%
X119975000Y-79525000D02*
X124225000Y-79525000D01*
X116725000Y-76275000D02*
X119975000Y-79525000D01*
X124225000Y-79525000D02*
X124475000Y-79275000D01*
X116725000Y-71695000D02*
X116725000Y-76275000D01*
D39*
%TO.N,Net-(J4-Pin_1)*%
X82475000Y-78775000D02*
X82475000Y-77275000D01*
X82475000Y-77275000D02*
X80725000Y-75525000D01*
X80725000Y-75525000D02*
X80725000Y-74025000D01*
D38*
%TO.N,Net-(J1-Pin_2)*%
X46975000Y-52475000D02*
X47750000Y-53250000D01*
X46975000Y-40525000D02*
X47500000Y-40000000D01*
X47500000Y-40000000D02*
X49750000Y-40000000D01*
X58225000Y-54025000D02*
X56975000Y-55275000D01*
X47750000Y-53250000D02*
X53500000Y-53250000D01*
X57775000Y-51525000D02*
X58225000Y-51975000D01*
X55225000Y-51525000D02*
X57775000Y-51525000D01*
X46975000Y-52475000D02*
X46975000Y-40525000D01*
X49750000Y-40000000D02*
X49500000Y-39750000D01*
X53500000Y-53250000D02*
X55225000Y-51525000D01*
X58225000Y-51975000D02*
X58225000Y-54025000D01*
%TO.N,Net-(C7-Pad1)*%
X142225000Y-72025000D02*
X146225000Y-68025000D01*
X146225000Y-68025000D02*
X146225000Y-66025000D01*
X142225000Y-76185000D02*
X142225000Y-72025000D01*
%TO.N,Net-(C7-Pad2)*%
X146225000Y-76025000D02*
X146225000Y-71025000D01*
%TO.N,Net-(JP2-B)*%
X76272000Y-49661607D02*
X76272000Y-57822000D01*
X77555000Y-59105000D02*
X78975000Y-59105000D01*
X85225000Y-49025000D02*
X85225000Y-52775000D01*
D39*
X82725000Y-38525000D02*
X70725000Y-38525000D01*
X85225000Y-42275000D02*
X85225000Y-43525000D01*
X82725000Y-39775000D02*
X85225000Y-42275000D01*
X85225000Y-43525000D02*
X85225000Y-49025000D01*
D38*
X76272000Y-57822000D02*
X77555000Y-59105000D01*
X85225000Y-49025000D02*
X76908607Y-49025000D01*
D39*
X82725000Y-38525000D02*
X82725000Y-39775000D01*
D38*
X76908607Y-49025000D02*
X76272000Y-49661607D01*
%TO.N,Net-(J3-Pin_1)*%
X49750000Y-51080000D02*
X51670000Y-51080000D01*
X56475000Y-47525000D02*
X56725000Y-47525000D01*
X56975000Y-47275000D02*
X56725000Y-47525000D01*
X51670000Y-51080000D02*
X55475000Y-47275000D01*
X56895000Y-47355000D02*
X56975000Y-47275000D01*
X55475000Y-47275000D02*
X56975000Y-47275000D01*
%TO.N,Net-(J3-Pin_3)*%
X49750000Y-46000000D02*
X53475000Y-42275000D01*
X53475000Y-42275000D02*
X60475000Y-42275000D01*
X49750000Y-46000000D02*
X50500000Y-46000000D01*
%TO.N,Net-(JP1-A)*%
X72975000Y-31095000D02*
X72905000Y-31025000D01*
X72975000Y-34025000D02*
X72975000Y-31095000D01*
%TO.N,Net-(JP2-C)*%
X85175000Y-54025000D02*
X78975000Y-54025000D01*
X85225000Y-54075000D02*
X85175000Y-54025000D01*
D39*
%TO.N,Net-(J5-Pin_2)*%
X123975000Y-90775000D02*
X127475000Y-87275000D01*
X82475000Y-88935000D02*
X82475000Y-90025000D01*
X83225000Y-90775000D02*
X123975000Y-90775000D01*
X127475000Y-87275000D02*
X131975000Y-87275000D01*
X143725000Y-86485000D02*
X142935000Y-87275000D01*
X143725000Y-86485000D02*
X143725000Y-83775000D01*
X142935000Y-87275000D02*
X131975000Y-87275000D01*
X82475000Y-90025000D02*
X83225000Y-90775000D01*
D38*
%TO.N,Net-(R11-Pad1)*%
X151315000Y-63025000D02*
X143815000Y-63025000D01*
X143815000Y-63025000D02*
X142225000Y-61435000D01*
%TD*%
M02*
