%TF.GenerationSoftware,KiCad,Pcbnew,9.0.6*%
%TF.CreationDate,2025-12-25T20:25:17+01:00*%
%TF.ProjectId,pico-radio-9,7069636f-2d72-4616-9469-6f2d392e6b69,rev?*%
%TF.SameCoordinates,Original*%
%TF.FileFunction,Plated,1,2,PTH,Drill*%
%TF.FilePolarity,Positive*%
%FSLAX46Y46*%
G04 Gerber Fmt 4.6, Leading zero omitted, Abs format (unit mm)*
G04 Created by KiCad (PCBNEW 9.0.6) date 2025-12-25 20:25:17*
%MOMM*%
%LPD*%
G01*
G04 APERTURE LIST*
%TA.AperFunction,ComponentDrill*%
%ADD10C,0.500000*%
%TD*%
%TA.AperFunction,ComponentDrill*%
%ADD11C,0.800000*%
%TD*%
%TA.AperFunction,ComponentDrill*%
%ADD12C,1.000000*%
%TD*%
%TA.AperFunction,ComponentDrill*%
%ADD13C,1.016000*%
%TD*%
%TA.AperFunction,ComponentDrill*%
%ADD14C,1.200000*%
%TD*%
G04 APERTURE END LIST*
D10*
%TO.C,Y1*%
X75325000Y-50275000D03*
X77225000Y-50275000D03*
D11*
%TO.C,R2*%
X52725000Y-70775000D03*
X52725000Y-80935000D03*
%TO.C,C2*%
X56975000Y-52775000D03*
%TO.C,C1*%
X56975000Y-55275000D03*
%TO.C,Q2*%
X56975000Y-61775000D03*
X56975000Y-64315000D03*
X56975000Y-66855000D03*
%TO.C,R4*%
X56975000Y-70775000D03*
X56975000Y-80935000D03*
%TO.C,C2*%
X59475000Y-52775000D03*
%TO.C,C1*%
X59475000Y-55275000D03*
%TO.C,L1*%
X60475000Y-42275000D03*
%TO.C,L4*%
X60565000Y-38525000D03*
%TO.C,R1*%
X60975000Y-70695000D03*
X60975000Y-80855000D03*
%TO.C,L3*%
X64475000Y-45195000D03*
X64475000Y-55355000D03*
%TO.C,Q1*%
X64725000Y-61775000D03*
X64725000Y-64315000D03*
X64725000Y-66855000D03*
%TO.C,R3*%
X64725000Y-70775000D03*
X64725000Y-80935000D03*
%TO.C,C3*%
X68225000Y-52775000D03*
%TO.C,L1*%
X70635000Y-42275000D03*
%TO.C,L4*%
X70725000Y-38525000D03*
%TO.C,C6*%
X70725000Y-47775000D03*
X70725000Y-50275000D03*
%TO.C,C3*%
X70725000Y-52775000D03*
%TO.C,C5*%
X72975000Y-65569888D03*
X72975000Y-68069888D03*
%TO.C,R7*%
X73225000Y-78865000D03*
X73225000Y-89025000D03*
%TO.C,R5*%
X78225000Y-78865000D03*
X78225000Y-89025000D03*
%TO.C,C4*%
X80725000Y-65569888D03*
X80725000Y-68069888D03*
%TO.C,C8*%
X80975000Y-47775000D03*
X80975000Y-50275000D03*
%TO.C,JP3*%
X82475000Y-78775000D03*
X82475000Y-88935000D03*
%TO.C,C9*%
X82725000Y-38525000D03*
%TO.C,C10*%
X85225000Y-43525000D03*
%TO.C,C9*%
X87725000Y-38525000D03*
%TO.C,C10*%
X87725000Y-43525000D03*
%TO.C,R14*%
X116725000Y-71695000D03*
X116725000Y-81855000D03*
%TO.C,C11*%
X118225000Y-38525000D03*
X118225000Y-41025000D03*
%TO.C,JP5*%
X119975000Y-82025000D03*
X119975000Y-92185000D03*
%TO.C,C12*%
X123475000Y-38525000D03*
X123475000Y-43525000D03*
%TO.C,Q3*%
X124475000Y-76985000D03*
X124475000Y-79525000D03*
X124475000Y-82065000D03*
%TO.C,R13*%
X126975000Y-51195000D03*
X126975000Y-61355000D03*
%TO.C,R10*%
X127065000Y-46275000D03*
%TO.C,R12*%
X131725000Y-51195000D03*
X131725000Y-61355000D03*
%TO.C,JP4*%
X131975000Y-77115000D03*
X131975000Y-87275000D03*
%TO.C,R10*%
X137225000Y-46275000D03*
%TO.C,R8*%
X137225000Y-51275000D03*
X137225000Y-61435000D03*
%TO.C,R9*%
X142225000Y-36025000D03*
X142225000Y-46185000D03*
%TO.C,R11*%
X142225000Y-51275000D03*
X142225000Y-61435000D03*
%TO.C,R6*%
X142225000Y-66025000D03*
X142225000Y-76185000D03*
%TO.C,C7*%
X146225000Y-66025000D03*
X146225000Y-71025000D03*
%TO.C,U3*%
X147105000Y-38485000D03*
X147105000Y-41025000D03*
X147105000Y-43565000D03*
X147105000Y-46105000D03*
X147105000Y-48645000D03*
X147105000Y-51185000D03*
X147105000Y-53725000D03*
X154725000Y-38485000D03*
X154725000Y-41025000D03*
X154725000Y-43565000D03*
X154725000Y-46105000D03*
X154725000Y-48645000D03*
X154725000Y-51185000D03*
X154725000Y-53725000D03*
D12*
%TO.C,J3*%
X49750000Y-46000000D03*
X49750000Y-48540000D03*
X49750000Y-51080000D03*
%TO.C,L2*%
X56975000Y-44735000D03*
X56975000Y-47275000D03*
%TO.C,U2*%
X60205000Y-31025000D03*
X62745000Y-31025000D03*
X65285000Y-31025000D03*
X67825000Y-31025000D03*
X70365000Y-31025000D03*
X72905000Y-31025000D03*
%TO.C,J4*%
X73105000Y-74025000D03*
%TO.C,U2*%
X75445000Y-31025000D03*
%TO.C,J4*%
X75645000Y-74025000D03*
%TO.C,U2*%
X77985000Y-31025000D03*
%TO.C,J4*%
X78185000Y-74025000D03*
%TO.C,U2*%
X80525000Y-31025000D03*
%TO.C,J4*%
X80725000Y-74025000D03*
%TO.C,U2*%
X83065000Y-31025000D03*
X85605000Y-31025000D03*
X88145000Y-31025000D03*
X90685000Y-31025000D03*
X93225000Y-31025000D03*
%TO.C,A1*%
X93445000Y-38525000D03*
X93445000Y-41065000D03*
X93445000Y-43605000D03*
X93445000Y-46145000D03*
X93445000Y-48685000D03*
X93445000Y-51225000D03*
X93445000Y-53765000D03*
X93445000Y-56305000D03*
X93445000Y-58845000D03*
X93445000Y-61385000D03*
X93445000Y-63925000D03*
X93445000Y-66465000D03*
X93445000Y-69005000D03*
X93445000Y-71545000D03*
X93445000Y-74085000D03*
X93445000Y-76625000D03*
X93445000Y-79165000D03*
X93445000Y-81705000D03*
X93445000Y-84245000D03*
X93445000Y-86785000D03*
X111225000Y-38525000D03*
X111225000Y-41065000D03*
X111225000Y-43605000D03*
X111225000Y-46145000D03*
X111225000Y-48685000D03*
X111225000Y-51225000D03*
X111225000Y-53765000D03*
X111225000Y-56305000D03*
X111225000Y-58845000D03*
X111225000Y-61385000D03*
X111225000Y-63925000D03*
X111225000Y-66465000D03*
X111225000Y-69005000D03*
X111225000Y-71545000D03*
X111225000Y-74085000D03*
X111225000Y-76625000D03*
X111225000Y-79165000D03*
X111225000Y-81705000D03*
X111225000Y-84245000D03*
X111225000Y-86785000D03*
%TO.C,SW1*%
X119975000Y-51275000D03*
X119975000Y-53815000D03*
%TO.C,BZ1*%
X124425000Y-69275000D03*
X132025000Y-69275000D03*
%TO.C,J5*%
X141185000Y-83775000D03*
X143725000Y-83775000D03*
%TO.C,TP1*%
X146225000Y-76025000D03*
%TO.C,J5*%
X146265000Y-83775000D03*
%TO.C,RV1*%
X148815000Y-60525000D03*
X151315000Y-58025000D03*
X151315000Y-63025000D03*
%TO.C,TP2*%
X151475000Y-67775000D03*
D13*
%TO.C,U4*%
X87975000Y-76615000D03*
X87975000Y-79155000D03*
X87975000Y-81695000D03*
X87975000Y-84235000D03*
X87975000Y-86775000D03*
D14*
%TO.C,J2*%
X49725000Y-56275000D03*
X49725000Y-59775000D03*
%TO.C,J1*%
X49750000Y-36500000D03*
X49750000Y-40000000D03*
M02*
