%TF.GenerationSoftware,KiCad,Pcbnew,9.0.7*%
%TF.CreationDate,2026-01-28T19:50:36+01:00*%
%TF.ProjectId,pico-radio-9,7069636f-2d72-4616-9469-6f2d392e6b69,rev?*%
%TF.SameCoordinates,Original*%
%TF.FileFunction,Soldermask,Bot*%
%TF.FilePolarity,Negative*%
%FSLAX46Y46*%
G04 Gerber Fmt 4.6, Leading zero omitted, Abs format (unit mm)*
G04 Created by KiCad (PCBNEW 9.0.7) date 2026-01-28 19:50:36*
%MOMM*%
%LPD*%
G01*
G04 APERTURE LIST*
G04 Aperture macros list*
%AMRoundRect*
0 Rectangle with rounded corners*
0 $1 Rounding radius*
0 $2 $3 $4 $5 $6 $7 $8 $9 X,Y pos of 4 corners*
0 Add a 4 corners polygon primitive as box body*
4,1,4,$2,$3,$4,$5,$6,$7,$8,$9,$2,$3,0*
0 Add four circle primitives for the rounded corners*
1,1,$1+$1,$2,$3*
1,1,$1+$1,$4,$5*
1,1,$1+$1,$6,$7*
1,1,$1+$1,$8,$9*
0 Add four rect primitives between the rounded corners*
20,1,$1+$1,$2,$3,$4,$5,0*
20,1,$1+$1,$4,$5,$6,$7,0*
20,1,$1+$1,$6,$7,$8,$9,0*
20,1,$1+$1,$8,$9,$2,$3,0*%
%AMFreePoly0*
4,1,37,0.603843,0.796157,0.639018,0.796157,0.711114,0.766294,0.766294,0.711114,0.796157,0.639018,0.796157,0.603843,0.800000,0.600000,0.800000,-0.600000,0.796157,-0.603843,0.796157,-0.639018,0.766294,-0.711114,0.711114,-0.766294,0.639018,-0.796157,0.603843,-0.796157,0.600000,-0.800000,0.000000,-0.800000,0.000000,-0.796148,-0.078414,-0.796148,-0.232228,-0.765552,-0.377117,-0.705537,
-0.507515,-0.618408,-0.618408,-0.507515,-0.705537,-0.377117,-0.765552,-0.232228,-0.796148,-0.078414,-0.796148,0.078414,-0.765552,0.232228,-0.705537,0.377117,-0.618408,0.507515,-0.507515,0.618408,-0.377117,0.705537,-0.232228,0.765552,-0.078414,0.796148,0.000000,0.796148,0.000000,0.800000,0.600000,0.800000,0.603843,0.796157,0.603843,0.796157,$1*%
%AMFreePoly1*
4,1,37,0.000000,0.796148,0.078414,0.796148,0.232228,0.765552,0.377117,0.705537,0.507515,0.618408,0.618408,0.507515,0.705537,0.377117,0.765552,0.232228,0.796148,0.078414,0.796148,-0.078414,0.765552,-0.232228,0.705537,-0.377117,0.618408,-0.507515,0.507515,-0.618408,0.377117,-0.705537,0.232228,-0.765552,0.078414,-0.796148,0.000000,-0.796148,0.000000,-0.800000,-0.600000,-0.800000,
-0.603843,-0.796157,-0.639018,-0.796157,-0.711114,-0.766294,-0.766294,-0.711114,-0.796157,-0.639018,-0.796157,-0.603843,-0.800000,-0.600000,-0.800000,0.600000,-0.796157,0.603843,-0.796157,0.639018,-0.766294,0.711114,-0.711114,0.766294,-0.639018,0.796157,-0.603843,0.796157,-0.600000,0.800000,0.000000,0.800000,0.000000,0.796148,0.000000,0.796148,$1*%
%AMFreePoly2*
4,1,23,0.550000,-0.750000,0.000000,-0.750000,0.000000,-0.745722,-0.065263,-0.745722,-0.191342,-0.711940,-0.304381,-0.646677,-0.396677,-0.554381,-0.461940,-0.441342,-0.495722,-0.315263,-0.495722,-0.250000,-0.500000,-0.250000,-0.500000,0.250000,-0.495722,0.250000,-0.495722,0.315263,-0.461940,0.441342,-0.396677,0.554381,-0.304381,0.646677,-0.191342,0.711940,-0.065263,0.745722,0.000000,0.745722,
0.000000,0.750000,0.550000,0.750000,0.550000,-0.750000,0.550000,-0.750000,$1*%
%AMFreePoly3*
4,1,23,0.000000,0.745722,0.065263,0.745722,0.191342,0.711940,0.304381,0.646677,0.396677,0.554381,0.461940,0.441342,0.495722,0.315263,0.495722,0.250000,0.500000,0.250000,0.500000,-0.250000,0.495722,-0.250000,0.495722,-0.315263,0.461940,-0.441342,0.396677,-0.554381,0.304381,-0.646677,0.191342,-0.711940,0.065263,-0.745722,0.000000,-0.745722,0.000000,-0.750000,-0.550000,-0.750000,
-0.550000,0.750000,0.000000,0.750000,0.000000,0.745722,0.000000,0.745722,$1*%
%AMFreePoly4*
4,1,23,0.500000,-0.750000,0.000000,-0.750000,0.000000,-0.745722,-0.065263,-0.745722,-0.191342,-0.711940,-0.304381,-0.646677,-0.396677,-0.554381,-0.461940,-0.441342,-0.495722,-0.315263,-0.495722,-0.250000,-0.500000,-0.250000,-0.500000,0.250000,-0.495722,0.250000,-0.495722,0.315263,-0.461940,0.441342,-0.396677,0.554381,-0.304381,0.646677,-0.191342,0.711940,-0.065263,0.745722,0.000000,0.745722,
0.000000,0.750000,0.500000,0.750000,0.500000,-0.750000,0.500000,-0.750000,$1*%
%AMFreePoly5*
4,1,23,0.000000,0.745722,0.065263,0.745722,0.191342,0.711940,0.304381,0.646677,0.396677,0.554381,0.461940,0.441342,0.495722,0.315263,0.495722,0.250000,0.500000,0.250000,0.500000,-0.250000,0.495722,-0.250000,0.495722,-0.315263,0.461940,-0.441342,0.396677,-0.554381,0.304381,-0.646677,0.191342,-0.711940,0.065263,-0.745722,0.000000,-0.745722,0.000000,-0.750000,-0.500000,-0.750000,
-0.500000,0.750000,0.000000,0.750000,0.000000,0.745722,0.000000,0.745722,$1*%
G04 Aperture macros list end*
%ADD10C,1.600000*%
%ADD11C,3.200000*%
%ADD12R,1.700000X1.700000*%
%ADD13C,1.700000*%
%ADD14R,2.000000X2.000000*%
%ADD15C,2.000000*%
%ADD16R,1.500000X1.500000*%
%ADD17C,1.500000*%
%ADD18C,2.134400*%
%ADD19RoundRect,0.102000X0.965200X-0.965200X0.965200X0.965200X-0.965200X0.965200X-0.965200X-0.965200X0*%
%ADD20RoundRect,0.250000X-0.550000X-0.550000X0.550000X-0.550000X0.550000X0.550000X-0.550000X0.550000X0*%
%ADD21RoundRect,0.250000X-0.550000X0.550000X-0.550000X-0.550000X0.550000X-0.550000X0.550000X0.550000X0*%
%ADD22RoundRect,0.250001X-0.949999X0.949999X-0.949999X-0.949999X0.949999X-0.949999X0.949999X0.949999X0*%
%ADD23C,2.400000*%
%ADD24RoundRect,0.200000X-0.600000X-0.600000X0.600000X-0.600000X0.600000X0.600000X-0.600000X0.600000X0*%
%ADD25FreePoly0,0.000000*%
%ADD26FreePoly1,0.000000*%
%ADD27R,1.550000X1.550000*%
%ADD28C,1.550000*%
%ADD29C,1.000000*%
%ADD30FreePoly2,90.000000*%
%ADD31R,1.500000X1.000000*%
%ADD32FreePoly3,90.000000*%
%ADD33FreePoly4,270.000000*%
%ADD34FreePoly5,270.000000*%
%ADD35R,1.397000X0.558800*%
G04 APERTURE END LIST*
%TO.C,JP2*%
G36*
X85975000Y-54825000D02*
G01*
X84475000Y-54825000D01*
X84475000Y-53325000D01*
X85975000Y-53325000D01*
X85975000Y-54825000D01*
G37*
%TO.C,JP1*%
G36*
X72225000Y-34525000D02*
G01*
X73725000Y-34525000D01*
X73725000Y-34825000D01*
X72225000Y-34825000D01*
X72225000Y-34525000D01*
G37*
%TD*%
D10*
%TO.C,C14*%
X68750000Y-84000000D03*
X68750000Y-79000000D03*
%TD*%
%TO.C,C13*%
X72250000Y-84000000D03*
X72250000Y-79000000D03*
%TD*%
%TO.C,R4*%
X56975000Y-80935000D03*
X56975000Y-70775000D03*
%TD*%
D11*
%TO.C,H2*%
X154750000Y-90000000D03*
%TD*%
D10*
%TO.C,C7*%
X146225000Y-66025000D03*
X146225000Y-71025000D03*
%TD*%
D12*
%TO.C,J5*%
X146265000Y-83775000D03*
D13*
X143725000Y-83775000D03*
X141185000Y-83775000D03*
%TD*%
D14*
%TO.C,BZ1*%
X132025000Y-69275000D03*
D15*
X124425000Y-69275000D03*
%TD*%
D10*
%TO.C,R10*%
X127065000Y-46275000D03*
X137225000Y-46275000D03*
%TD*%
%TO.C,JP5*%
X119975000Y-92185000D03*
X119975000Y-82025000D03*
%TD*%
D16*
%TO.C,Q2*%
X56975000Y-61775000D03*
D17*
X56975000Y-64315000D03*
X56975000Y-66855000D03*
%TD*%
D10*
%TO.C,R11*%
X142225000Y-61435000D03*
X142225000Y-51275000D03*
%TD*%
%TO.C,JP3*%
X82475000Y-78775000D03*
X82475000Y-88935000D03*
%TD*%
D18*
%TO.C,U4*%
X87975000Y-86775000D03*
X87975000Y-84235000D03*
D19*
X87975000Y-76615000D03*
D18*
X87975000Y-81695000D03*
X87975000Y-79155000D03*
%TD*%
D10*
%TO.C,R3*%
X64725000Y-80935000D03*
X64725000Y-70775000D03*
%TD*%
D12*
%TO.C,J3*%
X49750000Y-51080000D03*
D13*
X49750000Y-48540000D03*
X49750000Y-46000000D03*
%TD*%
D15*
%TO.C,TP1*%
X146225000Y-76025000D03*
%TD*%
D10*
%TO.C,R14*%
X116725000Y-81855000D03*
X116725000Y-71695000D03*
%TD*%
D20*
%TO.C,C10*%
X85225000Y-43525000D03*
D10*
X87725000Y-43525000D03*
%TD*%
D12*
%TO.C,J4*%
X80725000Y-74025000D03*
D13*
X78185000Y-74025000D03*
X75645000Y-74025000D03*
X73105000Y-74025000D03*
%TD*%
D10*
%TO.C,C1*%
X59475000Y-55275000D03*
X56975000Y-55275000D03*
%TD*%
D21*
%TO.C,C5*%
X72975000Y-65569888D03*
D10*
X72975000Y-68069888D03*
%TD*%
D22*
%TO.C,J2*%
X49725000Y-56275000D03*
D23*
X49725000Y-59775000D03*
%TD*%
D10*
%TO.C,C8*%
X80975000Y-47775000D03*
X80975000Y-50275000D03*
%TD*%
D24*
%TO.C,A1*%
X93445000Y-38525000D03*
D10*
X93445000Y-41065000D03*
D25*
X93445000Y-43605000D03*
D10*
X93445000Y-46145000D03*
X93445000Y-48685000D03*
X93445000Y-51225000D03*
X93445000Y-53765000D03*
D25*
X93445000Y-56305000D03*
D10*
X93445000Y-58845000D03*
X93445000Y-61385000D03*
X93445000Y-63925000D03*
X93445000Y-66465000D03*
D25*
X93445000Y-69005000D03*
D10*
X93445000Y-71545000D03*
X93445000Y-74085000D03*
X93445000Y-76625000D03*
X93445000Y-79165000D03*
D25*
X93445000Y-81705000D03*
D10*
X93445000Y-84245000D03*
X93445000Y-86785000D03*
X111225000Y-86785000D03*
X111225000Y-84245000D03*
D26*
X111225000Y-81705000D03*
D10*
X111225000Y-79165000D03*
X111225000Y-76625000D03*
X111225000Y-74085000D03*
X111225000Y-71545000D03*
D26*
X111225000Y-69005000D03*
D10*
X111225000Y-66465000D03*
X111225000Y-63925000D03*
X111225000Y-61385000D03*
X111225000Y-58845000D03*
D26*
X111225000Y-56305000D03*
D10*
X111225000Y-53765000D03*
X111225000Y-51225000D03*
X111225000Y-48685000D03*
X111225000Y-46145000D03*
D26*
X111225000Y-43605000D03*
D10*
X111225000Y-41065000D03*
X111225000Y-38525000D03*
%TD*%
D21*
%TO.C,C4*%
X80725000Y-65569888D03*
D10*
X80725000Y-68069888D03*
%TD*%
D15*
%TO.C,TP2*%
X151475000Y-67775000D03*
%TD*%
D11*
%TO.C,H3*%
X46000000Y-29500000D03*
%TD*%
D10*
%TO.C,R8*%
X137225000Y-51275000D03*
X137225000Y-61435000D03*
%TD*%
%TO.C,C3*%
X70725000Y-52775000D03*
X68225000Y-52775000D03*
%TD*%
%TO.C,R6*%
X142225000Y-66025000D03*
X142225000Y-76185000D03*
%TD*%
D21*
%TO.C,C11*%
X118225000Y-38525000D03*
D10*
X118225000Y-41025000D03*
%TD*%
%TO.C,L3*%
X64475000Y-45195000D03*
X64475000Y-55355000D03*
%TD*%
%TO.C,R13*%
X126975000Y-61355000D03*
X126975000Y-51195000D03*
%TD*%
D20*
%TO.C,U3*%
X147105000Y-38485000D03*
D10*
X147105000Y-41025000D03*
X147105000Y-43565000D03*
X147105000Y-46105000D03*
X147105000Y-48645000D03*
X147105000Y-51185000D03*
X147105000Y-53725000D03*
X154725000Y-53725000D03*
X154725000Y-51185000D03*
X154725000Y-48645000D03*
X154725000Y-46105000D03*
X154725000Y-43565000D03*
X154725000Y-41025000D03*
X154725000Y-38485000D03*
%TD*%
%TO.C,R5*%
X79250000Y-89025000D03*
X79250000Y-78865000D03*
%TD*%
%TO.C,C6*%
X70725000Y-50275000D03*
X70725000Y-47775000D03*
%TD*%
%TO.C,C9*%
X87725000Y-38525000D03*
X82725000Y-38525000D03*
%TD*%
%TO.C,C2*%
X56975000Y-52775000D03*
X59475000Y-52775000D03*
%TD*%
D11*
%TO.C,H1*%
X46000000Y-90000000D03*
%TD*%
D10*
%TO.C,L1*%
X60475000Y-42275000D03*
X70635000Y-42275000D03*
%TD*%
%TO.C,C12*%
X123475000Y-38525000D03*
X123475000Y-43525000D03*
%TD*%
D27*
%TO.C,RV1*%
X151315000Y-58025000D03*
D28*
X148815000Y-60525000D03*
X151315000Y-63025000D03*
%TD*%
D16*
%TO.C,Q1*%
X64725000Y-61775000D03*
D17*
X64725000Y-64315000D03*
X64725000Y-66855000D03*
%TD*%
D12*
%TO.C,SW1*%
X119975000Y-51275000D03*
D13*
X119975000Y-53815000D03*
%TD*%
D10*
%TO.C,JP4*%
X131975000Y-87275000D03*
X131975000Y-77115000D03*
%TD*%
D22*
%TO.C,J1*%
X49750000Y-36500000D03*
D23*
X49750000Y-40000000D03*
%TD*%
D10*
%TO.C,R12*%
X131725000Y-51195000D03*
X131725000Y-61355000D03*
%TD*%
D29*
%TO.C,Y1*%
X77225000Y-50275000D03*
X75325000Y-50275000D03*
%TD*%
D12*
%TO.C,U2*%
X93225000Y-31025000D03*
D13*
X90685000Y-31025000D03*
X88145000Y-31025000D03*
X85605000Y-31025000D03*
X83065000Y-31025000D03*
X80525000Y-31025000D03*
X77985000Y-31025000D03*
X75445000Y-31025000D03*
X72905000Y-31025000D03*
X70365000Y-31025000D03*
X67825000Y-31025000D03*
X65285000Y-31025000D03*
X62745000Y-31025000D03*
X60205000Y-31025000D03*
%TD*%
D10*
%TO.C,R2*%
X52725000Y-80935000D03*
X52725000Y-70775000D03*
%TD*%
%TO.C,R7*%
X75750000Y-89025000D03*
X75750000Y-78865000D03*
%TD*%
D12*
%TO.C,L2*%
X56975000Y-47275000D03*
D13*
X56975000Y-44735000D03*
%TD*%
D10*
%TO.C,R1*%
X60975000Y-80855000D03*
X60975000Y-70695000D03*
%TD*%
%TO.C,L4*%
X70725000Y-38525000D03*
X60565000Y-38525000D03*
%TD*%
D11*
%TO.C,H4*%
X154750000Y-29500000D03*
%TD*%
D10*
%TO.C,R9*%
X142225000Y-46185000D03*
X142225000Y-36025000D03*
%TD*%
D16*
%TO.C,Q3*%
X124475000Y-82065000D03*
D17*
X124475000Y-79525000D03*
X124475000Y-76985000D03*
%TD*%
D30*
%TO.C,JP2*%
X85225000Y-55375000D03*
D31*
X85225000Y-54075000D03*
D32*
X85225000Y-52775000D03*
%TD*%
D33*
%TO.C,JP1*%
X72975000Y-34025000D03*
D34*
X72975000Y-35325000D03*
%TD*%
D35*
%TO.C,U1*%
X73666400Y-61645000D03*
X73666400Y-60375000D03*
X73666400Y-59105000D03*
X73666400Y-57835000D03*
X73666400Y-56565000D03*
X73666400Y-55295000D03*
X73666400Y-54025000D03*
X73666400Y-52755000D03*
X78975000Y-52755000D03*
X78975000Y-54025000D03*
X78975000Y-55295000D03*
X78975000Y-56565000D03*
X78975000Y-57835000D03*
X78975000Y-59105000D03*
X78975000Y-60375000D03*
X78975000Y-61645000D03*
%TD*%
M02*
